G04*
G04 #@! TF.GenerationSoftware,Altium Limited,Altium Designer,21.0.8 (223)*
G04*
G04 Layer_Physical_Order=4*
G04 Layer_Color=16711680*
%FSLAX25Y25*%
%MOIN*%
G70*
G04*
G04 #@! TF.SameCoordinates,DAC18CA6-1256-4E10-BBFD-4CDD4F333C27*
G04*
G04*
G04 #@! TF.FilePolarity,Positive*
G04*
G01*
G75*
%ADD11C,0.00787*%
%ADD39C,0.07874*%
%ADD41C,0.01181*%
%ADD46R,0.07874X0.07874*%
G04:AMPARAMS|DCode=51|XSize=23.62mil|YSize=23.62mil|CornerRadius=2.36mil|HoleSize=0mil|Usage=FLASHONLY|Rotation=0.000|XOffset=0mil|YOffset=0mil|HoleType=Round|Shape=RoundedRectangle|*
%AMROUNDEDRECTD51*
21,1,0.02362,0.01890,0,0,0.0*
21,1,0.01890,0.02362,0,0,0.0*
1,1,0.00472,0.00945,-0.00945*
1,1,0.00472,-0.00945,-0.00945*
1,1,0.00472,-0.00945,0.00945*
1,1,0.00472,0.00945,0.00945*
%
%ADD51ROUNDEDRECTD51*%
%ADD68C,0.09449*%
%ADD69C,0.01772*%
%ADD70R,0.01575X0.01575*%
%ADD71O,0.03347X0.00984*%
%ADD72O,0.00984X0.03347*%
G04:AMPARAMS|DCode=73|XSize=39.37mil|YSize=35.43mil|CornerRadius=4.43mil|HoleSize=0mil|Usage=FLASHONLY|Rotation=0.000|XOffset=0mil|YOffset=0mil|HoleType=Round|Shape=RoundedRectangle|*
%AMROUNDEDRECTD73*
21,1,0.03937,0.02657,0,0,0.0*
21,1,0.03051,0.03543,0,0,0.0*
1,1,0.00886,0.01526,-0.01329*
1,1,0.00886,-0.01526,-0.01329*
1,1,0.00886,-0.01526,0.01329*
1,1,0.00886,0.01526,0.01329*
%
%ADD73ROUNDEDRECTD73*%
G36*
X-0Y52347D02*
X2057D01*
X6157Y52024D01*
X10220Y51381D01*
X14220Y50420D01*
X18132Y49149D01*
X21932Y47575D01*
X22098Y47491D01*
X22026Y46966D01*
X21964Y46954D01*
X21703Y46780D01*
X21703Y46780D01*
X17763Y42840D01*
X11971Y42840D01*
X11971Y42840D01*
X11664Y42778D01*
X11550Y42702D01*
X11144Y42761D01*
X10963Y42871D01*
X10655Y43332D01*
X10102Y43702D01*
X9449Y43832D01*
X8796Y43702D01*
X8242Y43332D01*
X7873Y42779D01*
X7743Y42126D01*
X7873Y41473D01*
X8242Y40920D01*
X8703Y40612D01*
X8864Y40065D01*
X3887Y35088D01*
X3712Y34827D01*
X3651Y34520D01*
X3712Y34213D01*
X3887Y33953D01*
X3887Y33953D01*
X12687Y25152D01*
X12947Y24978D01*
X13331Y24570D01*
X13363Y24429D01*
Y22441D01*
X13363Y22441D01*
X13454Y21980D01*
X13715Y21589D01*
X18038Y17267D01*
X17847Y16805D01*
X15097D01*
X14636Y16713D01*
X14245Y16452D01*
X14245Y16452D01*
X13545Y15753D01*
X10628D01*
X10627Y15755D01*
X10073Y16124D01*
X9420Y16254D01*
X8767Y16124D01*
X8214Y15755D01*
X7844Y15201D01*
X7714Y14548D01*
X7844Y13895D01*
X8214Y13342D01*
X8767Y12972D01*
X9420Y12842D01*
X10073Y12972D01*
X10627Y13342D01*
X10628Y13344D01*
X14044D01*
X14044Y13344D01*
X14505Y13436D01*
X14896Y13697D01*
X14896Y13697D01*
X15595Y14396D01*
X18955D01*
X20559Y12793D01*
X20559Y12793D01*
X20950Y12532D01*
X21410Y12440D01*
X21411Y12440D01*
X22465D01*
X22862Y12043D01*
X22862Y12040D01*
X22992Y11387D01*
X23361Y10834D01*
X23915Y10464D01*
X24568Y10334D01*
X25221Y10464D01*
X25774Y10834D01*
X25995Y11164D01*
X26072Y11206D01*
X26568Y11249D01*
X26600Y11239D01*
X33674Y4165D01*
X33935Y3991D01*
X34242Y3930D01*
X34549Y3991D01*
X34809Y4165D01*
X37816Y7172D01*
X37839Y7205D01*
X37869Y7230D01*
X37925Y7334D01*
X37990Y7432D01*
X38418Y7620D01*
X39070Y7750D01*
X39624Y8120D01*
X39994Y8673D01*
X40124Y9326D01*
X40311Y9753D01*
X40409Y9819D01*
X40513Y9874D01*
X40539Y9905D01*
X40572Y9927D01*
X42326Y11681D01*
X42500Y11942D01*
X42561Y12249D01*
Y17484D01*
X46780Y21703D01*
X46954Y21964D01*
X46966Y22026D01*
X47491Y22098D01*
X47575Y21932D01*
X49149Y18132D01*
X50420Y14220D01*
X51381Y10220D01*
X52024Y6157D01*
X52347Y2057D01*
Y-0D01*
X52347Y-38567D01*
X43307Y-38567D01*
X43000Y-38628D01*
X42739Y-38802D01*
X42565Y-39063D01*
X42504Y-39370D01*
X42504Y-44866D01*
X-42504Y-44866D01*
X-42504Y-39370D01*
X-42565Y-39063D01*
X-42739Y-38802D01*
X-43000Y-38628D01*
X-43307Y-38567D01*
X-52347D01*
X-52347Y-0D01*
X-52347Y2057D01*
X-52024Y6157D01*
X-51381Y10220D01*
X-50420Y14220D01*
X-49149Y18132D01*
X-47575Y21932D01*
X-45708Y25597D01*
X-43558Y29105D01*
X-41141Y32432D01*
X-38469Y35560D01*
X-35561Y38469D01*
X-32433Y41141D01*
X-29105Y43558D01*
X-25598Y45708D01*
X-21933Y47575D01*
X-18132Y49149D01*
X-14220Y50420D01*
X-10220Y51381D01*
X-6157Y52024D01*
X-2057Y52347D01*
X-0Y52347D01*
D02*
G37*
G36*
X29509Y38974D02*
X24740Y34205D01*
X24669Y34253D01*
X24016Y34383D01*
X23363Y34253D01*
X22809Y33884D01*
X22440Y33330D01*
X22400Y33128D01*
X20663D01*
X15095Y27560D01*
X15095D01*
X14542Y27191D01*
X14172Y26637D01*
D01*
X13255Y25720D01*
X4454Y34520D01*
X11971Y42037D01*
X18095Y42037D01*
X22271Y46213D01*
X29509Y38974D01*
D02*
G37*
G36*
X37861Y30623D02*
X28990Y21752D01*
X28493Y21801D01*
X28488Y21807D01*
X27935Y22177D01*
X27282Y22307D01*
X26629Y22177D01*
X26076Y21807D01*
X25706Y21254D01*
X25576Y20601D01*
X25706Y19948D01*
X25947Y19586D01*
X25952Y19573D01*
X25875Y19031D01*
X25834Y18955D01*
X25717Y18877D01*
X25717Y18877D01*
X23067Y16226D01*
X22748D01*
X15868Y23106D01*
X19225Y26463D01*
X19835Y26342D01*
X20488Y26472D01*
X21041Y26841D01*
X21411Y27395D01*
X21541Y28048D01*
X21420Y28658D01*
X23780Y31018D01*
X24016Y30971D01*
X24669Y31101D01*
X25222Y31471D01*
X25592Y32024D01*
X25722Y32677D01*
X25675Y32913D01*
X30623Y37861D01*
X37861Y30623D01*
D02*
G37*
G36*
X46213Y22271D02*
X41758Y17817D01*
Y12249D01*
X40004Y10495D01*
X39624Y10532D01*
X39070Y10902D01*
X38418Y11032D01*
X37765Y10902D01*
X37211Y10532D01*
X36841Y9979D01*
X36712Y9326D01*
X36841Y8673D01*
X37211Y8120D01*
X37249Y7740D01*
X34242Y4733D01*
X27004Y11971D01*
X30500Y15467D01*
X30762Y15415D01*
X31415Y15545D01*
X31968Y15915D01*
X32338Y16468D01*
X32468Y17121D01*
X32416Y17383D01*
X32850Y17817D01*
Y20839D01*
X32886Y21018D01*
X32850Y21198D01*
Y23385D01*
X38974Y29509D01*
X46213Y22271D01*
D02*
G37*
%LPC*%
G36*
X-14764Y35995D02*
X-15417Y35865D01*
X-15970Y35495D01*
X-16340Y34942D01*
X-16470Y34289D01*
X-16340Y33636D01*
X-15970Y33083D01*
X-15417Y32713D01*
X-14764Y32583D01*
X-14111Y32713D01*
X-13557Y33083D01*
X-13188Y33636D01*
X-13058Y34289D01*
X-13188Y34942D01*
X-13557Y35495D01*
X-14111Y35865D01*
X-14764Y35995D01*
D02*
G37*
G36*
X-19216Y36129D02*
X-19869Y35999D01*
X-20422Y35629D01*
X-20792Y35076D01*
X-20922Y34423D01*
X-20792Y33770D01*
X-20422Y33217D01*
X-20210Y33075D01*
X-19079Y26363D01*
X-19508Y26106D01*
X-19888Y26398D01*
X-21038Y26874D01*
X-22271Y27036D01*
X-23504Y26874D01*
X-24654Y26398D01*
X-25641Y25641D01*
X-25757Y25488D01*
X-26062Y25552D01*
X-26260Y25655D01*
X-26377Y26243D01*
X-26746Y26797D01*
X-27075Y27016D01*
X-27213Y27620D01*
X-27164Y27694D01*
X-27034Y28346D01*
X-27164Y28999D01*
X-27534Y29553D01*
X-28087Y29923D01*
X-28740Y30052D01*
X-29393Y29923D01*
X-29946Y29553D01*
X-30316Y28999D01*
X-30446Y28346D01*
X-30367Y27946D01*
X-30780Y27236D01*
X-30783Y27238D01*
X-30790Y27229D01*
X-31117Y26439D01*
X-31229Y25591D01*
X-31195Y25334D01*
X-31204Y25230D01*
X-28237Y-1543D01*
X-28198Y-1666D01*
X-28150Y-2031D01*
X-27823Y-2821D01*
X-27302Y-3500D01*
X-27228Y-3556D01*
X-27210Y-3582D01*
X-24823Y-5796D01*
X-24467Y-6148D01*
X-24234Y-6549D01*
X-24216Y-6643D01*
X-24190Y-6639D01*
X-22662Y-16709D01*
X-22873Y-17025D01*
X-23003Y-17678D01*
X-22873Y-18330D01*
X-22503Y-18884D01*
X-21950Y-19254D01*
X-21297Y-19384D01*
X-20644Y-19254D01*
X-20090Y-18884D01*
X-19721Y-18330D01*
X-19684Y-18144D01*
X-19128Y-17914D01*
X-18984Y-18010D01*
X-18331Y-18140D01*
X-17679Y-18010D01*
X-17125Y-17640D01*
X-16755Y-17087D01*
X-16625Y-16434D01*
X-16755Y-15781D01*
X-17125Y-15228D01*
X-17672Y-14862D01*
X-18741Y-12244D01*
X-18412Y-11726D01*
X-18041Y-11653D01*
X-17488Y-11283D01*
X-17118Y-10729D01*
X-16988Y-10076D01*
X-17092Y-9552D01*
X-15902Y-6912D01*
X-15402Y-7021D01*
X-15405Y-7650D01*
X-15412Y-7654D01*
X-15781Y-8208D01*
X-15911Y-8861D01*
X-15781Y-9514D01*
X-15412Y-10067D01*
X-14858Y-10437D01*
X-14205Y-10567D01*
X-13553Y-10437D01*
X-12999Y-10067D01*
X-12629Y-9514D01*
X-12499Y-8861D01*
X-12629Y-8208D01*
X-12996Y-7659D01*
X-12992Y-6595D01*
X-12490Y-6242D01*
X-12121Y-6315D01*
X-11468Y-6185D01*
X-10917Y-5817D01*
X-7291Y-5829D01*
X-7291Y-5829D01*
X-6791Y-5832D01*
Y-5830D01*
X-6302Y-5830D01*
X-4257D01*
Y-6791D01*
X-4158Y-7291D01*
X-3875Y-7714D01*
X-3841Y-7737D01*
X-3758Y-8393D01*
X-5102Y-9892D01*
X-5444Y-10247D01*
X-5548Y-10338D01*
X-5534Y-10357D01*
Y-10357D01*
X-14601Y-17619D01*
X-14764Y-17586D01*
X-15417Y-17716D01*
X-15971Y-18086D01*
X-16341Y-18639D01*
X-16470Y-19292D01*
X-16341Y-19945D01*
X-15971Y-20499D01*
X-15417Y-20868D01*
X-14764Y-20998D01*
X-14112Y-20868D01*
X-13558Y-20499D01*
X-13188Y-19945D01*
X-13100Y-19502D01*
X-4028Y-12236D01*
X-3961Y-12157D01*
X-3756Y-12000D01*
X-3677Y-11897D01*
X-3637Y-11866D01*
X-810Y-8712D01*
X-747Y-8606D01*
X-459Y-8231D01*
X-358Y-7986D01*
X-274Y-7931D01*
X245Y-7836D01*
X485Y-7997D01*
X984Y-8096D01*
X1484Y-7997D01*
X1907Y-7714D01*
X2030D01*
X2454Y-7997D01*
X2953Y-8096D01*
X3024Y-8155D01*
Y-14248D01*
X2853Y-14505D01*
X2723Y-15157D01*
X2853Y-15810D01*
X3223Y-16364D01*
X3776Y-16734D01*
X4429Y-16863D01*
X5082Y-16734D01*
X5635Y-16364D01*
X6005Y-15810D01*
X6135Y-15157D01*
X6005Y-14505D01*
X5834Y-14248D01*
Y-8542D01*
X10852Y-3524D01*
X11156Y-3068D01*
X11263Y-2530D01*
Y-775D01*
X11384D01*
X11864Y-679D01*
X12271Y-408D01*
X12543Y-1D01*
X12638Y479D01*
Y3137D01*
X12543Y3617D01*
X12271Y4024D01*
X11864Y4296D01*
X11384Y4391D01*
X8333D01*
X8183Y4361D01*
X6192D01*
X5699Y4361D01*
X5693Y4360D01*
X5610Y4358D01*
X5106Y4257D01*
X4733D01*
X4384Y4383D01*
X4257Y4733D01*
Y6791D01*
X4158Y7291D01*
X3875Y7714D01*
X3452Y7997D01*
X2953Y8096D01*
X2454Y7997D01*
X2030Y7714D01*
X1747Y7291D01*
X1648Y6791D01*
Y4648D01*
X-134Y2002D01*
X-140Y1993D01*
X-144Y1987D01*
X-394Y1663D01*
Y1575D01*
X-1575Y394D01*
X-1827D01*
X-2788Y305D01*
X-2860Y394D01*
X-3150D01*
Y752D01*
X-3167Y773D01*
X-3150Y858D01*
Y1110D01*
X-3224Y1484D01*
X-3507Y1907D01*
X-3930Y2190D01*
X-4429Y2289D01*
X-6791D01*
X-7291Y2190D01*
X-7592Y1988D01*
X-8453Y1704D01*
X-8858Y1997D01*
Y2657D01*
X-8881Y2680D01*
X-8838Y2894D01*
Y4783D01*
X-8918Y5183D01*
X-9144Y5522D01*
X-9482Y5748D01*
X-9882Y5827D01*
X-11772D01*
X-12171Y5748D01*
X-12510Y5522D01*
X-12736Y5183D01*
X-12815Y4783D01*
Y4653D01*
X-13098D01*
X-13636Y4546D01*
X-14010Y4296D01*
X-14270Y4244D01*
X-14602Y4509D01*
X-14704Y4639D01*
X-14703Y4689D01*
X-14686Y4820D01*
X-14647Y4943D01*
X-12856Y21236D01*
X-12859Y21279D01*
X-12847Y21319D01*
X-12422Y25528D01*
X-12428Y25586D01*
X-12412Y25643D01*
X-12369Y26309D01*
X-12287Y26364D01*
X-11917Y26918D01*
X-11787Y27571D01*
X-11917Y28223D01*
X-12287Y28777D01*
X-12840Y29147D01*
X-13493Y29277D01*
X-14146Y29147D01*
X-14699Y28777D01*
X-15069Y28223D01*
X-15199Y27571D01*
X-15285Y27485D01*
X-15677Y27563D01*
X-16311Y27437D01*
X-16448Y27423D01*
X-16844Y27594D01*
X-17835Y33477D01*
X-17640Y33770D01*
X-17510Y34423D01*
X-17640Y35076D01*
X-18010Y35629D01*
X-18563Y35999D01*
X-19216Y36129D01*
D02*
G37*
G36*
X-46457Y15289D02*
X-47109Y15159D01*
X-47663Y14789D01*
X-48033Y14235D01*
X-48163Y13583D01*
X-48033Y12930D01*
X-47663Y12376D01*
X-47109Y12007D01*
X-46457Y11877D01*
X-45804Y12007D01*
X-45250Y12376D01*
X-44881Y12930D01*
X-44751Y13583D01*
X-44881Y14235D01*
X-45250Y14789D01*
X-45804Y15159D01*
X-46457Y15289D01*
D02*
G37*
G36*
X-2953Y8096D02*
X-3452Y7997D01*
X-3875Y7714D01*
X-4158Y7291D01*
X-4257Y6791D01*
Y4429D01*
X-4158Y3930D01*
X-3875Y3507D01*
X-3452Y3224D01*
X-3079Y3150D01*
X-2827D01*
X-2454Y3224D01*
X-2030Y3507D01*
X-1747Y3930D01*
X-1648Y4429D01*
Y6791D01*
X-1747Y7291D01*
X-2030Y7714D01*
X-2454Y7997D01*
X-2953Y8096D01*
D02*
G37*
G36*
X39740Y2750D02*
X39087Y2620D01*
X38534Y2250D01*
X38164Y1697D01*
X38034Y1044D01*
X38164Y391D01*
X38534Y-162D01*
X39087Y-532D01*
X39740Y-662D01*
X40393Y-532D01*
X40946Y-162D01*
X41316Y391D01*
X41446Y1044D01*
X41316Y1697D01*
X40946Y2250D01*
X40393Y2620D01*
X39740Y2750D01*
D02*
G37*
G36*
X36469Y-521D02*
X35816Y-651D01*
X35263Y-1021D01*
X34893Y-1574D01*
X34763Y-2227D01*
X34893Y-2880D01*
X35263Y-3433D01*
X35816Y-3803D01*
X36469Y-3933D01*
X37122Y-3803D01*
X37675Y-3433D01*
X38045Y-2880D01*
X38175Y-2227D01*
X38045Y-1574D01*
X37675Y-1021D01*
X37122Y-651D01*
X36469Y-521D01*
D02*
G37*
G36*
X19871Y-3845D02*
X19218Y-3975D01*
X18664Y-4345D01*
X18294Y-4899D01*
X18165Y-5551D01*
X18294Y-6204D01*
X18664Y-6758D01*
X19218Y-7128D01*
X19871Y-7258D01*
X20523Y-7128D01*
X21077Y-6758D01*
X21447Y-6204D01*
X21576Y-5551D01*
X21447Y-4899D01*
X21077Y-4345D01*
X20523Y-3975D01*
X19871Y-3845D01*
D02*
G37*
G36*
X40945Y-4593D02*
X40292Y-4723D01*
X39739Y-5093D01*
X39369Y-5646D01*
X39239Y-6299D01*
X39369Y-6952D01*
X39739Y-7506D01*
X40292Y-7875D01*
X40945Y-8005D01*
X41598Y-7875D01*
X42151Y-7506D01*
X42521Y-6952D01*
X42651Y-6299D01*
X42521Y-5646D01*
X42151Y-5093D01*
X41598Y-4723D01*
X40945Y-4593D01*
D02*
G37*
G36*
X26383Y-8803D02*
X25730Y-8933D01*
X25177Y-9303D01*
X24807Y-9856D01*
X24677Y-10509D01*
X24807Y-11162D01*
X25177Y-11715D01*
X25730Y-12085D01*
X26383Y-12215D01*
X27036Y-12085D01*
X27589Y-11715D01*
X27959Y-11162D01*
X28089Y-10509D01*
X27959Y-9856D01*
X27589Y-9303D01*
X27036Y-8933D01*
X26383Y-8803D01*
D02*
G37*
G36*
X38976Y-11286D02*
X38324Y-11416D01*
X37770Y-11786D01*
X37400Y-12339D01*
X37270Y-12992D01*
X37400Y-13645D01*
X37770Y-14198D01*
X38324Y-14568D01*
X38976Y-14698D01*
X39629Y-14568D01*
X40183Y-14198D01*
X40552Y-13645D01*
X40682Y-12992D01*
X40552Y-12339D01*
X40183Y-11786D01*
X39629Y-11416D01*
X38976Y-11286D01*
D02*
G37*
G36*
X8657Y-13589D02*
X8004Y-13719D01*
X7451Y-14089D01*
X7081Y-14642D01*
X6951Y-15295D01*
X7081Y-15948D01*
X7451Y-16502D01*
X8004Y-16872D01*
X8657Y-17001D01*
X9310Y-16872D01*
X9863Y-16502D01*
X10233Y-15948D01*
X10363Y-15295D01*
X10233Y-14642D01*
X9863Y-14089D01*
X9310Y-13719D01*
X8657Y-13589D01*
D02*
G37*
G36*
X492Y-14829D02*
X-161Y-14959D01*
X-714Y-15329D01*
X-1084Y-15883D01*
X-1214Y-16535D01*
X-1084Y-17188D01*
X-714Y-17742D01*
X-161Y-18112D01*
X492Y-18241D01*
X1145Y-18112D01*
X1698Y-17742D01*
X2068Y-17188D01*
X2198Y-16535D01*
X2068Y-15883D01*
X1698Y-15329D01*
X1145Y-14959D01*
X492Y-14829D01*
D02*
G37*
G36*
X-40945Y-17979D02*
X-41598Y-18109D01*
X-42151Y-18479D01*
X-42521Y-19032D01*
X-42651Y-19685D01*
X-42521Y-20338D01*
X-42151Y-20891D01*
X-41598Y-21261D01*
X-40945Y-21391D01*
X-40292Y-21261D01*
X-39739Y-20891D01*
X-39369Y-20338D01*
X-39239Y-19685D01*
X-39369Y-19032D01*
X-39739Y-18479D01*
X-40292Y-18109D01*
X-40945Y-17979D01*
D02*
G37*
G36*
X36220Y-18373D02*
X35568Y-18503D01*
X35014Y-18872D01*
X34644Y-19426D01*
X34514Y-20079D01*
X34644Y-20732D01*
X35014Y-21285D01*
X35568Y-21655D01*
X36220Y-21785D01*
X36873Y-21655D01*
X37427Y-21285D01*
X37797Y-20732D01*
X37927Y-20079D01*
X37797Y-19426D01*
X37427Y-18872D01*
X36873Y-18503D01*
X36220Y-18373D01*
D02*
G37*
G36*
X7874Y-20735D02*
X7221Y-20865D01*
X6668Y-21235D01*
X6298Y-21788D01*
X6168Y-22441D01*
X6298Y-23094D01*
X6668Y-23647D01*
X7221Y-24017D01*
X7874Y-24147D01*
X8527Y-24017D01*
X9080Y-23647D01*
X9450Y-23094D01*
X9580Y-22441D01*
X9450Y-21788D01*
X9080Y-21235D01*
X8527Y-20865D01*
X7874Y-20735D01*
D02*
G37*
G36*
X22271Y-17506D02*
X21038Y-17668D01*
X19888Y-18144D01*
X18902Y-18902D01*
X18144Y-19888D01*
X17668Y-21038D01*
X17506Y-22271D01*
X17668Y-23504D01*
X18144Y-24654D01*
X18902Y-25641D01*
X19888Y-26398D01*
X21038Y-26874D01*
X22271Y-27036D01*
X23504Y-26874D01*
X24654Y-26398D01*
X25641Y-25641D01*
X26398Y-24654D01*
X26874Y-23504D01*
X27036Y-22271D01*
X26874Y-21038D01*
X26398Y-19888D01*
X25641Y-18902D01*
X24654Y-18144D01*
X23504Y-17668D01*
X22271Y-17506D01*
D02*
G37*
G36*
X33465Y-25459D02*
X32812Y-25589D01*
X32258Y-25959D01*
X31888Y-26513D01*
X31759Y-27165D01*
X31888Y-27818D01*
X32258Y-28372D01*
X32812Y-28741D01*
X33465Y-28871D01*
X34117Y-28741D01*
X34671Y-28372D01*
X35041Y-27818D01*
X35171Y-27165D01*
X35041Y-26513D01*
X34671Y-25959D01*
X34117Y-25589D01*
X33465Y-25459D01*
D02*
G37*
G36*
X33858Y-30971D02*
X33205Y-31101D01*
X32652Y-31471D01*
X32282Y-32024D01*
X32152Y-32677D01*
X32282Y-33330D01*
X32652Y-33884D01*
X33205Y-34253D01*
X33858Y-34383D01*
X34511Y-34253D01*
X35065Y-33884D01*
X35434Y-33330D01*
X35564Y-32677D01*
X35434Y-32024D01*
X35065Y-31471D01*
X34511Y-31101D01*
X33858Y-30971D01*
D02*
G37*
G36*
X29134D02*
X28481Y-31101D01*
X27928Y-31471D01*
X27558Y-32024D01*
X27428Y-32677D01*
X27558Y-33330D01*
X27928Y-33884D01*
X28481Y-34253D01*
X29134Y-34383D01*
X29787Y-34253D01*
X30340Y-33884D01*
X30710Y-33330D01*
X30840Y-32677D01*
X30710Y-32024D01*
X30340Y-31471D01*
X29787Y-31101D01*
X29134Y-30971D01*
D02*
G37*
G36*
X24409D02*
X23757Y-31101D01*
X23203Y-31471D01*
X22833Y-32024D01*
X22704Y-32677D01*
X22833Y-33330D01*
X23203Y-33884D01*
X23757Y-34253D01*
X24409Y-34383D01*
X25062Y-34253D01*
X25616Y-33884D01*
X25986Y-33330D01*
X26116Y-32677D01*
X25986Y-32024D01*
X25616Y-31471D01*
X25062Y-31101D01*
X24409Y-30971D01*
D02*
G37*
G36*
X-41732D02*
X-42385Y-31101D01*
X-42939Y-31471D01*
X-43308Y-32024D01*
X-43438Y-32677D01*
X-43308Y-33330D01*
X-42939Y-33884D01*
X-42385Y-34253D01*
X-41732Y-34383D01*
X-41079Y-34253D01*
X-40526Y-33884D01*
X-40156Y-33330D01*
X-40026Y-32677D01*
X-40156Y-32024D01*
X-40526Y-31471D01*
X-41079Y-31101D01*
X-41732Y-30971D01*
D02*
G37*
G36*
X-40157Y-34711D02*
X-40810Y-34841D01*
X-41364Y-35211D01*
X-41734Y-35765D01*
X-41864Y-36417D01*
X-41734Y-37070D01*
X-41364Y-37624D01*
X-40810Y-37993D01*
X-40157Y-38123D01*
X-39505Y-37993D01*
X-38951Y-37624D01*
X-38581Y-37070D01*
X-38451Y-36417D01*
X-38581Y-35765D01*
X-38951Y-35211D01*
X-39505Y-34841D01*
X-40157Y-34711D01*
D02*
G37*
G36*
X33858Y-35696D02*
X33205Y-35825D01*
X32652Y-36195D01*
X32282Y-36749D01*
X32152Y-37402D01*
X32282Y-38054D01*
X32652Y-38608D01*
X33205Y-38978D01*
X33858Y-39108D01*
X34511Y-38978D01*
X35065Y-38608D01*
X35434Y-38054D01*
X35564Y-37402D01*
X35434Y-36749D01*
X35065Y-36195D01*
X34511Y-35825D01*
X33858Y-35696D01*
D02*
G37*
G36*
X29134Y-35696D02*
X28481Y-35825D01*
X27928Y-36195D01*
X27558Y-36749D01*
X27428Y-37402D01*
X27558Y-38054D01*
X27928Y-38608D01*
X28481Y-38978D01*
X29134Y-39108D01*
X29787Y-38978D01*
X30340Y-38608D01*
X30710Y-38054D01*
X30840Y-37402D01*
X30710Y-36749D01*
X30340Y-36195D01*
X29787Y-35825D01*
X29134Y-35696D01*
D02*
G37*
G36*
X24409D02*
X23757Y-35825D01*
X23203Y-36195D01*
X22833Y-36749D01*
X22704Y-37402D01*
X22833Y-38054D01*
X23203Y-38608D01*
X23757Y-38978D01*
X24409Y-39108D01*
X25062Y-38978D01*
X25616Y-38608D01*
X25986Y-38054D01*
X26116Y-37402D01*
X25986Y-36749D01*
X25616Y-36195D01*
X25062Y-35825D01*
X24409Y-35696D01*
D02*
G37*
%LPD*%
G36*
X-24654Y18144D02*
X-23504Y17668D01*
X-22271Y17506D01*
X-21038Y17668D01*
X-19940Y18123D01*
X-19624Y17963D01*
X-19493Y17872D01*
X-21802Y10082D01*
X-22186Y9826D01*
X-22556Y9272D01*
X-22685Y8619D01*
X-22556Y7967D01*
X-22186Y7413D01*
X-22137Y7380D01*
X-22332Y6909D01*
X-22441Y6931D01*
X-23094Y6801D01*
X-23225Y6713D01*
X-23689Y6900D01*
X-24462Y10446D01*
X-24436Y10452D01*
X-24447Y10506D01*
X-24547Y10997D01*
X-25637Y18269D01*
X-25173Y18542D01*
X-24654Y18144D01*
D02*
G37*
G36*
X3150Y-3150D02*
X394D01*
Y-1575D01*
X1575Y-394D01*
X3150D01*
Y-3150D01*
D02*
G37*
%LPC*%
G36*
X15172Y34277D02*
X14519Y34148D01*
X13966Y33778D01*
X13596Y33224D01*
X13466Y32571D01*
X13596Y31919D01*
X13966Y31365D01*
X14519Y30995D01*
X15172Y30865D01*
X15825Y30995D01*
X16378Y31365D01*
X16748Y31919D01*
X16878Y32571D01*
X16748Y33224D01*
X16378Y33778D01*
X15825Y34148D01*
X15172Y34277D01*
D02*
G37*
%LPD*%
D11*
X-4781Y-11297D02*
G03*
X-4533Y-11063I-1292J1613D01*
G01*
X-1707Y-7908D02*
G03*
X-1280Y-6791I-1246J1117D01*
G01*
Y-4429D02*
G03*
X-3193Y-2773I-1673J0D01*
G01*
X-14134Y-1575D02*
G03*
X-15393Y-3011I2013J-3035D01*
G01*
X-13262Y-1151D02*
G03*
X-14134Y-1575I1141J-3458D01*
G01*
X-22999Y-6458D02*
G03*
X-23637Y-5253I-2043J-310D01*
G01*
X-25663Y10324D02*
G03*
X-25639Y10190I2044J307D01*
G01*
X-20746Y-10325D02*
G03*
X-20608Y-10858I2052J248D01*
G01*
X-21237Y-6270D02*
G03*
X-21299Y-5919I-3802J-496D01*
G01*
X-21234Y-6290D02*
G03*
X-21237Y-6270I-1565J-179D01*
G01*
X-21299Y-5919D02*
G03*
X-21304Y-5900I-1535J-352D01*
G01*
X-19801Y6109D02*
G03*
X-19963Y5194I1902J-809D01*
G01*
X-15786Y20617D02*
G03*
X-15581Y22460I-6485J1654D01*
G01*
X-19548Y-2481D02*
G03*
X-19529Y-2667I2064J112D01*
G01*
X-19077Y7811D02*
G03*
X-18977Y8108I-1902J809D01*
G01*
X-13620Y25649D02*
G03*
X-13614Y25722I-2056J208D01*
G01*
X-14053Y21368D02*
G03*
X-14045Y21440I-8218J903D01*
G01*
X-15881Y4852D02*
G03*
X-15844Y5074I-2018J448D01*
G01*
X-6797Y-4626D02*
G03*
X-6791Y-4626I5J1673D01*
G01*
X-6945Y-1287D02*
G03*
X-7540Y-1456I153J-1666D01*
G01*
X-9832Y-2460D02*
G03*
X-9248Y-2311I-50J1416D01*
G01*
X-1467Y-782D02*
G03*
X-740Y-441I-108J1176D01*
G01*
X-12195Y-2544D02*
G03*
X-14188Y-4601I74J-2066D01*
G01*
X441Y740D02*
G03*
X586Y915I-835J835D01*
G01*
X-21304Y-5900D02*
G03*
X-21347Y-5730I-3739J-869D01*
G01*
X-24460Y4785D02*
G03*
X-24415Y4613I2019J440D01*
G01*
X-27040Y-1411D02*
G03*
X-26391Y-2699I2054J228D01*
G01*
X-29739Y26630D02*
G03*
X-30007Y25363I1786J-1040D01*
G01*
X-21354Y-5706D02*
G03*
X-21365Y-5669I-2274J-639D01*
G01*
X-17364Y20817D02*
G03*
X-17259Y23310I-4907J1455D01*
G01*
X-17715Y25513D02*
G03*
X-17700Y25437I2038J343D01*
G01*
X-14764Y-19292D02*
X-4781Y-11297D01*
X-4533Y-11063D02*
X-1707Y-7908D01*
X-1280Y-6791D02*
Y-4429D01*
X-6791Y984D02*
X-5610D01*
X-18694Y-10175D02*
X-16303Y-4872D01*
X-16115Y-4487D02*
X-16114Y-4487D01*
X-16499Y-4872D02*
X-16115Y-4487D01*
X-10753Y-323D02*
X-6791Y984D01*
X-16303Y-4872D02*
X-16115Y-4487D01*
X-13262Y-1151D02*
X-10753Y-323D01*
X-16115Y-4487D02*
X-15393Y-3011D01*
X-12121Y-4609D02*
X-6797Y-4626D01*
X-14205Y-8861D02*
X-14188Y-4601D01*
X-29739Y26630D02*
X-28740Y28346D01*
X-22999Y-6458D02*
X-21297Y-17678D01*
X-26391Y-2699D02*
X-23637Y-5253D01*
X-27953Y25591D02*
X-25663Y10324D01*
X-21354Y-5706D02*
X-21347Y-5730D01*
X-20608Y-10858D02*
X-18331Y-16434D01*
X-24415Y4613D02*
X-21365Y-5669D01*
X-19529Y-2667D02*
X-19046Y-5926D01*
X-18977Y8108D02*
X-15786Y20617D01*
X-15677Y25857D02*
X-15581Y22460D01*
X-19801Y6109D02*
X-19077Y7811D01*
X-19963Y5194D02*
X-19548Y-2481D01*
X-17484Y-2369D02*
X-15881Y4852D01*
X-13614Y25722D02*
X-13493Y27571D01*
X-14045Y21440D02*
X-13620Y25649D01*
X-15844Y5074D02*
X-14053Y21368D01*
X-4429Y-2953D02*
X-3193Y-2773D01*
X-6791Y-4626D02*
X-2953D01*
Y-5610D02*
Y-4626D01*
X-5610Y-2953D02*
X-4429D01*
X-9248Y-2311D02*
X-7540Y-1456D01*
X-12195Y-2544D02*
X-9832Y-2460D01*
X-6945Y-1287D02*
X-1467Y-782D01*
X2953Y4429D02*
Y5610D01*
X-740Y-441D02*
X441Y740D01*
X586Y915D02*
X2953Y4429D01*
X-21234Y-6290D02*
X-20746Y-10325D01*
X-30007Y25363D02*
X-27040Y-1411D01*
X-19216Y34423D02*
X-17715Y25513D01*
X-25639Y10190D02*
X-24461Y4785D01*
X-20979Y8619D02*
X-17364Y20817D01*
X-17700Y25437D02*
X-17259Y23310D01*
X21986Y15022D02*
X23565D01*
X14567Y22441D02*
Y24537D01*
Y22441D02*
X21986Y15022D01*
X14044Y14548D02*
X15097Y15600D01*
X19454D02*
X21410Y13644D01*
X22964D01*
X24568Y12040D01*
X15097Y15600D02*
X19454D01*
X15748Y25718D02*
Y25984D01*
X14567Y24537D02*
X15748Y25718D01*
X26569Y18025D02*
X28021D01*
X23565Y15022D02*
X26569Y18025D01*
X9420Y14548D02*
X14044D01*
X28021Y18025D02*
X31014Y21018D01*
X31179D01*
D39*
X22271Y-22271D02*
D03*
X-22271Y22271D02*
D03*
D41*
X5699Y2956D02*
G03*
X5610Y2953I5J-1181D01*
G01*
X9056Y2610D02*
G03*
X8221Y2956I-835J-835D01*
G01*
X5610Y2953D02*
X5610Y2953D01*
X9056Y2610D02*
X9858Y1808D01*
X4429Y-15157D02*
Y-7960D01*
X9858Y-2530D02*
Y1808D01*
X5699Y2956D02*
X8221D01*
X4429Y-7960D02*
X9858Y-2530D01*
X8774Y6412D02*
Y7417D01*
X8661Y6299D02*
X8774Y6412D01*
Y7417D02*
X9858Y8501D01*
X-13098Y3248D02*
X-11417D01*
X-13892Y2613D02*
X-13733D01*
X-11417Y3248D02*
X-10827Y3839D01*
X-13733Y2613D02*
X-13098Y3248D01*
D46*
X48425Y-35433D02*
D03*
X-48425Y-35433D02*
D03*
D51*
X-10827Y3839D02*
D03*
Y-98D02*
D03*
D68*
X22271Y38974D02*
D03*
X30623Y30623D02*
D03*
X38974Y22271D02*
D03*
D69*
X-18694Y-10076D02*
D03*
X-6073Y-9683D02*
D03*
X-19046Y-5926D02*
D03*
X-12121Y-4609D02*
D03*
X-16303Y-4872D02*
D03*
X1575Y-8957D02*
D03*
X8661Y6299D02*
D03*
X-5610Y4823D02*
D03*
X-15677Y25857D02*
D03*
X-17899Y5300D02*
D03*
X-13892Y2613D02*
D03*
X-17484Y-2369D02*
D03*
X-2165Y2165D02*
D03*
X2153Y-2153D02*
D03*
X8491Y-8491D02*
D03*
X-24985Y-1183D02*
D03*
X-14205Y-8861D02*
D03*
X-14764Y-19292D02*
D03*
X8657Y-15295D02*
D03*
X4429Y-15157D02*
D03*
X492Y-16535D02*
D03*
X-18331Y-16434D02*
D03*
X-14764Y34289D02*
D03*
X-19216Y34423D02*
D03*
X-27953Y25591D02*
D03*
X-23619Y10630D02*
D03*
X-20979Y8619D02*
D03*
X-467Y31471D02*
D03*
X2067Y35039D02*
D03*
X7874Y-22441D02*
D03*
X19871Y-5551D02*
D03*
X-40157Y-36417D02*
D03*
X-41732Y-32677D02*
D03*
X-46063Y-37402D02*
D03*
Y-32677D02*
D03*
X-51181D02*
D03*
Y-37402D02*
D03*
X-13493Y27571D02*
D03*
X-29134Y31102D02*
D03*
X-28740Y28346D02*
D03*
X-30807Y11220D02*
D03*
X33465Y-27165D02*
D03*
X36220Y-20079D02*
D03*
X38976Y-12992D02*
D03*
X40945Y-6299D02*
D03*
X36469Y-2227D02*
D03*
X39740Y1044D02*
D03*
X3825Y37781D02*
D03*
X18110Y22835D02*
D03*
X20079Y20866D02*
D03*
X15748Y25984D02*
D03*
X24016Y32677D02*
D03*
X8268D02*
D03*
X11024Y29921D02*
D03*
X29921Y11811D02*
D03*
X45276Y8268D02*
D03*
X45669Y4331D02*
D03*
X48819Y-7874D02*
D03*
X47244Y-4724D02*
D03*
X45276Y-11417D02*
D03*
X46850Y-14567D02*
D03*
X44094Y-21654D02*
D03*
X42520Y-18504D02*
D03*
X39764Y-25591D02*
D03*
X41339Y-28740D02*
D03*
X-9347Y-18422D02*
D03*
X-21297Y-17678D02*
D03*
X-25043Y-6768D02*
D03*
X-22441Y5225D02*
D03*
X-30553Y-1183D02*
D03*
X-24985Y-12319D02*
D03*
X-30553D02*
D03*
X-10236Y31102D02*
D03*
X-42815Y5610D02*
D03*
X-43209Y-8169D02*
D03*
X-39764Y11220D02*
D03*
X-33858Y11262D02*
D03*
X-36121Y-6751D02*
D03*
Y-12319D02*
D03*
Y-1183D02*
D03*
X-37008Y-19685D02*
D03*
X-40945D02*
D03*
X31597Y-8491D02*
D03*
X46654Y-32677D02*
D03*
X44488Y-35039D02*
D03*
X48819Y-35039D02*
D03*
X46654Y-37402D02*
D03*
X50984Y-32677D02*
D03*
Y-37402D02*
D03*
X9449Y42126D02*
D03*
X15172Y32571D02*
D03*
X-46457Y13583D02*
D03*
X-30553Y-6751D02*
D03*
X37992Y-37402D02*
D03*
X40157Y-35039D02*
D03*
X37992Y-32677D02*
D03*
X27282Y20601D02*
D03*
X26383Y-5498D02*
D03*
X27421Y15590D02*
D03*
X42323Y-37402D02*
D03*
X26383Y-10509D02*
D03*
X33858Y-37402D02*
D03*
X29134Y-37402D02*
D03*
X24409D02*
D03*
X33858Y-32677D02*
D03*
X29134D02*
D03*
X24409D02*
D03*
X42323D02*
D03*
X30901Y-5568D02*
D03*
X20670Y9674D02*
D03*
X18234Y12945D02*
D03*
X32432Y8212D02*
D03*
X30762Y17121D02*
D03*
X38418Y9326D02*
D03*
X19835Y28048D02*
D03*
X24568Y12040D02*
D03*
X31179Y21018D02*
D03*
X9420Y14548D02*
D03*
D70*
X2362Y-2362D02*
D03*
X-2362Y2362D02*
D03*
D71*
X5610Y-2953D02*
D03*
Y-984D02*
D03*
Y2953D02*
D03*
X-5610D02*
D03*
Y984D02*
D03*
Y-2953D02*
D03*
D72*
X2953Y5610D02*
D03*
X-984D02*
D03*
X-2953D02*
D03*
Y-5610D02*
D03*
X984D02*
D03*
X2953D02*
D03*
D73*
X9858Y1808D02*
D03*
Y8501D02*
D03*
M02*
