G04*
G04 #@! TF.GenerationSoftware,Altium Limited,Altium Designer,21.0.8 (223)*
G04*
G04 Layer_Physical_Order=2*
G04 Layer_Color=36540*
%FSLAX25Y25*%
%MOIN*%
G70*
G04*
G04 #@! TF.SameCoordinates,DAC18CA6-1256-4E10-BBFD-4CDD4F333C27*
G04*
G04*
G04 #@! TF.FilePolarity,Positive*
G04*
G01*
G75*
%ADD69C,0.01772*%
G36*
X-0Y52347D02*
X2057D01*
X6157Y52024D01*
X10220Y51381D01*
X14220Y50420D01*
X18132Y49149D01*
X21932Y47575D01*
X25597Y45708D01*
X29105Y43558D01*
X32432Y41141D01*
X35560Y38469D01*
X38469Y35561D01*
X41141Y32433D01*
X43558Y29105D01*
X45708Y25598D01*
X47575Y21932D01*
X49149Y18132D01*
X50420Y14220D01*
X51381Y10220D01*
X52024Y6157D01*
X52347Y2057D01*
Y-0D01*
X52347Y-38567D01*
X43307Y-38567D01*
X43000Y-38628D01*
X42739Y-38802D01*
X42565Y-39063D01*
X42504Y-39370D01*
X42504Y-44866D01*
X-42504Y-44866D01*
X-42504Y-39370D01*
X-42565Y-39063D01*
X-42739Y-38802D01*
X-43000Y-38628D01*
X-43307Y-38567D01*
X-52347D01*
X-52347Y-0D01*
X-52347Y2057D01*
X-52024Y6157D01*
X-51381Y10220D01*
X-50420Y14220D01*
X-49149Y18132D01*
X-47575Y21932D01*
X-45708Y25597D01*
X-43558Y29105D01*
X-41141Y32432D01*
X-38469Y35560D01*
X-35561Y38469D01*
X-32433Y41141D01*
X-29105Y43558D01*
X-25598Y45708D01*
X-21933Y47575D01*
X-18132Y49149D01*
X-14220Y50420D01*
X-10220Y51381D01*
X-6157Y52024D01*
X-2057Y52347D01*
X-0Y52347D01*
D02*
G37*
%LPC*%
G36*
X9449Y43832D02*
X8796Y43702D01*
X8242Y43332D01*
X7873Y42779D01*
X7743Y42126D01*
X7873Y41473D01*
X8242Y40920D01*
X8796Y40550D01*
X9449Y40420D01*
X10102Y40550D01*
X10655Y40920D01*
X11025Y41473D01*
X11155Y42126D01*
X11025Y42779D01*
X10655Y43332D01*
X10102Y43702D01*
X9449Y43832D01*
D02*
G37*
G36*
X22271Y44534D02*
X20832Y44344D01*
X19491Y43789D01*
X18340Y42905D01*
X17456Y41754D01*
X16901Y40413D01*
X16712Y38974D01*
X16901Y37535D01*
X17456Y36195D01*
X18340Y35043D01*
X19491Y34160D01*
X20832Y33604D01*
X22271Y33415D01*
X23710Y33604D01*
X25051Y34160D01*
X26202Y35043D01*
X27086Y36195D01*
X27641Y37535D01*
X27830Y38974D01*
X27641Y40413D01*
X27086Y41754D01*
X26202Y42905D01*
X25051Y43789D01*
X23710Y44344D01*
X22271Y44534D01*
D02*
G37*
G36*
X-19216Y36129D02*
X-19869Y35999D01*
X-20422Y35629D01*
X-20792Y35076D01*
X-20922Y34423D01*
X-20792Y33770D01*
X-20422Y33217D01*
X-19869Y32847D01*
X-19216Y32717D01*
X-18563Y32847D01*
X-18010Y33217D01*
X-17640Y33770D01*
X-17510Y34423D01*
X-17640Y35076D01*
X-18010Y35629D01*
X-18563Y35999D01*
X-19216Y36129D01*
D02*
G37*
G36*
X-14764Y35995D02*
X-15417Y35865D01*
X-15970Y35495D01*
X-16340Y34942D01*
X-16470Y34289D01*
X-16340Y33636D01*
X-15970Y33083D01*
X-15417Y32713D01*
X-14764Y32583D01*
X-14111Y32713D01*
X-13557Y33083D01*
X-13188Y33636D01*
X-13058Y34289D01*
X-13188Y34942D01*
X-13557Y35495D01*
X-14111Y35865D01*
X-14764Y35995D01*
D02*
G37*
G36*
X8268Y34383D02*
X7615Y34253D01*
X7061Y33884D01*
X6692Y33330D01*
X6562Y32677D01*
X6692Y32024D01*
X7061Y31471D01*
X7615Y31101D01*
X8268Y30971D01*
X8921Y31101D01*
X9474Y31471D01*
X9844Y32024D01*
X9974Y32677D01*
X9844Y33330D01*
X9474Y33884D01*
X8921Y34253D01*
X8268Y34383D01*
D02*
G37*
G36*
X15172Y34277D02*
X14519Y34148D01*
X13966Y33778D01*
X13596Y33224D01*
X13466Y32571D01*
X13596Y31919D01*
X13966Y31365D01*
X14519Y30995D01*
X15172Y30865D01*
X15825Y30995D01*
X16378Y31365D01*
X16748Y31919D01*
X16878Y32571D01*
X16748Y33224D01*
X16378Y33778D01*
X15825Y34148D01*
X15172Y34277D01*
D02*
G37*
G36*
X11024Y31627D02*
X10371Y31497D01*
X9817Y31128D01*
X9448Y30574D01*
X9318Y29921D01*
X9448Y29268D01*
X9817Y28715D01*
X10371Y28345D01*
X11024Y28215D01*
X11676Y28345D01*
X12230Y28715D01*
X12600Y29268D01*
X12730Y29921D01*
X12600Y30574D01*
X12230Y31128D01*
X11676Y31497D01*
X11024Y31627D01*
D02*
G37*
G36*
X-13493Y29277D02*
X-14146Y29147D01*
X-14699Y28777D01*
X-15069Y28223D01*
X-15199Y27571D01*
X-15285Y27485D01*
X-15677Y27563D01*
X-16330Y27433D01*
X-16883Y27063D01*
X-17253Y26510D01*
X-17383Y25857D01*
X-17253Y25204D01*
X-16883Y24651D01*
X-16330Y24281D01*
X-15677Y24151D01*
X-15024Y24281D01*
X-14470Y24651D01*
X-14100Y25204D01*
X-13971Y25857D01*
X-13885Y25943D01*
X-13493Y25865D01*
X-12840Y25995D01*
X-12287Y26364D01*
X-11917Y26918D01*
X-11787Y27571D01*
X-11917Y28223D01*
X-12287Y28777D01*
X-12840Y29147D01*
X-13493Y29277D01*
D02*
G37*
G36*
X19835Y29754D02*
X19182Y29624D01*
X18629Y29254D01*
X18259Y28701D01*
X18129Y28048D01*
X18259Y27395D01*
X18629Y26841D01*
X19182Y26472D01*
X19835Y26342D01*
X20488Y26472D01*
X21041Y26841D01*
X21411Y27395D01*
X21541Y28048D01*
X21411Y28701D01*
X21041Y29254D01*
X20488Y29624D01*
X19835Y29754D01*
D02*
G37*
G36*
X30623Y36182D02*
X29184Y35993D01*
X27843Y35437D01*
X26691Y34554D01*
X25808Y33402D01*
X25253Y32061D01*
X25063Y30623D01*
X25253Y29184D01*
X25808Y27843D01*
X26691Y26691D01*
X27843Y25808D01*
X29184Y25253D01*
X30623Y25063D01*
X32061Y25253D01*
X33402Y25808D01*
X34554Y26691D01*
X35437Y27843D01*
X35993Y29184D01*
X36182Y30623D01*
X35993Y32061D01*
X35437Y33402D01*
X34554Y34554D01*
X33402Y35437D01*
X32061Y35993D01*
X30623Y36182D01*
D02*
G37*
G36*
X15748Y27690D02*
X15095Y27560D01*
X14542Y27191D01*
X14172Y26637D01*
X14042Y25984D01*
X14172Y25331D01*
X14542Y24778D01*
X15095Y24408D01*
X15748Y24278D01*
X16401Y24408D01*
X16954Y24778D01*
X17324Y25331D01*
X17454Y25984D01*
X17324Y26637D01*
X16954Y27191D01*
X16401Y27560D01*
X15748Y27690D01*
D02*
G37*
G36*
X31179Y22724D02*
X30527Y22594D01*
X29973Y22225D01*
X29603Y21671D01*
X29474Y21018D01*
X29603Y20366D01*
X29973Y19812D01*
X30527Y19442D01*
X31179Y19312D01*
X31832Y19442D01*
X32386Y19812D01*
X32756Y20366D01*
X32886Y21018D01*
X32756Y21671D01*
X32386Y22225D01*
X31832Y22594D01*
X31179Y22724D01*
D02*
G37*
G36*
X18110Y24541D02*
X17457Y24411D01*
X16904Y24041D01*
X16534Y23487D01*
X16404Y22835D01*
X16534Y22182D01*
X16904Y21628D01*
X17457Y21259D01*
X17923Y21166D01*
X18373Y20866D01*
X18503Y20213D01*
X18872Y19660D01*
X19426Y19290D01*
X20079Y19160D01*
X20732Y19290D01*
X21285Y19660D01*
X21655Y20213D01*
X21785Y20866D01*
X21655Y21519D01*
X21285Y22072D01*
X20732Y22442D01*
X20266Y22535D01*
X19816Y22835D01*
X19686Y23487D01*
X19317Y24041D01*
X18763Y24411D01*
X18110Y24541D01*
D02*
G37*
G36*
X27282Y22307D02*
X26629Y22177D01*
X26076Y21807D01*
X25706Y21254D01*
X25576Y20601D01*
X25706Y19948D01*
X26076Y19394D01*
X26629Y19025D01*
X27282Y18895D01*
X27935Y19025D01*
X28488Y19394D01*
X28858Y19948D01*
X28988Y20601D01*
X28858Y21254D01*
X28488Y21807D01*
X27935Y22177D01*
X27282Y22307D01*
D02*
G37*
G36*
X-28740Y30052D02*
X-29393Y29923D01*
X-29946Y29553D01*
X-30316Y28999D01*
X-30446Y28346D01*
X-30316Y27694D01*
X-29946Y27140D01*
X-29393Y26770D01*
X-29310Y26571D01*
X-29529Y26243D01*
X-29659Y25591D01*
X-29529Y24938D01*
X-29159Y24384D01*
X-28606Y24014D01*
X-27953Y23885D01*
X-27300Y24014D01*
X-27167Y24103D01*
X-26763Y23772D01*
X-26874Y23504D01*
X-27036Y22271D01*
X-26874Y21038D01*
X-26398Y19888D01*
X-25641Y18902D01*
X-24654Y18144D01*
X-23504Y17668D01*
X-22271Y17506D01*
X-21038Y17668D01*
X-19888Y18144D01*
X-18902Y18902D01*
X-18144Y19888D01*
X-17668Y21038D01*
X-17506Y22271D01*
X-17668Y23504D01*
X-18144Y24654D01*
X-18902Y25641D01*
X-19888Y26398D01*
X-21038Y26874D01*
X-22271Y27036D01*
X-23504Y26874D01*
X-24654Y26398D01*
X-25641Y25641D01*
X-25757Y25488D01*
X-26062Y25552D01*
X-26260Y25655D01*
X-26377Y26243D01*
X-26746Y26797D01*
X-27075Y27016D01*
X-27213Y27620D01*
X-27164Y27694D01*
X-27034Y28346D01*
X-27164Y28999D01*
X-27534Y29553D01*
X-28087Y29923D01*
X-28740Y30052D01*
D02*
G37*
G36*
X38974Y27830D02*
X37535Y27641D01*
X36195Y27086D01*
X35043Y26202D01*
X34160Y25051D01*
X33604Y23710D01*
X33415Y22271D01*
X33604Y20832D01*
X34160Y19491D01*
X35043Y18340D01*
X36195Y17456D01*
X37535Y16901D01*
X38974Y16712D01*
X40413Y16901D01*
X41754Y17456D01*
X42905Y18340D01*
X43789Y19491D01*
X44344Y20832D01*
X44534Y22271D01*
X44344Y23710D01*
X43789Y25051D01*
X42905Y26202D01*
X41754Y27086D01*
X40413Y27641D01*
X38974Y27830D01*
D02*
G37*
G36*
X30762Y18827D02*
X30109Y18697D01*
X29556Y18327D01*
X29186Y17774D01*
X29056Y17121D01*
X29186Y16468D01*
X29556Y15915D01*
X30109Y15545D01*
X30762Y15415D01*
X31415Y15545D01*
X31968Y15915D01*
X32338Y16468D01*
X32468Y17121D01*
X32338Y17774D01*
X31968Y18327D01*
X31415Y18697D01*
X30762Y18827D01*
D02*
G37*
G36*
X9420Y16254D02*
X8767Y16124D01*
X8214Y15755D01*
X7844Y15201D01*
X7714Y14548D01*
X7844Y13895D01*
X8214Y13342D01*
X8767Y12972D01*
X9420Y12842D01*
X10073Y12972D01*
X10627Y13342D01*
X10996Y13895D01*
X11126Y14548D01*
X10996Y15201D01*
X10627Y15755D01*
X10073Y16124D01*
X9420Y16254D01*
D02*
G37*
G36*
X-46457Y15289D02*
X-47109Y15159D01*
X-47663Y14789D01*
X-48033Y14235D01*
X-48163Y13583D01*
X-48033Y12930D01*
X-47663Y12376D01*
X-47109Y12007D01*
X-46457Y11877D01*
X-45804Y12007D01*
X-45250Y12376D01*
X-44881Y12930D01*
X-44751Y13583D01*
X-44881Y14235D01*
X-45250Y14789D01*
X-45804Y15159D01*
X-46457Y15289D01*
D02*
G37*
G36*
X24568Y13746D02*
X23915Y13616D01*
X23361Y13247D01*
X22992Y12693D01*
X22862Y12040D01*
X22992Y11387D01*
X23361Y10834D01*
X23915Y10464D01*
X24568Y10334D01*
X25221Y10464D01*
X25774Y10834D01*
X26144Y11387D01*
X26274Y12040D01*
X26144Y12693D01*
X25774Y13247D01*
X25221Y13616D01*
X24568Y13746D01*
D02*
G37*
G36*
X29921Y13517D02*
X29268Y13387D01*
X28715Y13017D01*
X28345Y12464D01*
X28215Y11811D01*
X28345Y11158D01*
X28715Y10605D01*
X29268Y10235D01*
X29921Y10105D01*
X30574Y10235D01*
X31128Y10605D01*
X31497Y11158D01*
X31627Y11811D01*
X31497Y12464D01*
X31128Y13017D01*
X30574Y13387D01*
X29921Y13517D01*
D02*
G37*
G36*
X38418Y11032D02*
X37765Y10902D01*
X37211Y10532D01*
X36841Y9979D01*
X36712Y9326D01*
X36841Y8673D01*
X37211Y8120D01*
X37765Y7750D01*
X38418Y7620D01*
X39070Y7750D01*
X39624Y8120D01*
X39994Y8673D01*
X40124Y9326D01*
X39994Y9979D01*
X39624Y10532D01*
X39070Y10902D01*
X38418Y11032D01*
D02*
G37*
G36*
X-20979Y10325D02*
X-21632Y10196D01*
X-22186Y9826D01*
X-22556Y9272D01*
X-22685Y8619D01*
X-22556Y7967D01*
X-22186Y7413D01*
X-22137Y7380D01*
X-22332Y6909D01*
X-22441Y6931D01*
X-23094Y6801D01*
X-23647Y6431D01*
X-24017Y5878D01*
X-24147Y5225D01*
X-24017Y4572D01*
X-23647Y4019D01*
X-23094Y3649D01*
X-22441Y3519D01*
X-21788Y3649D01*
X-21235Y4019D01*
X-20865Y4572D01*
X-20735Y5225D01*
X-20865Y5878D01*
X-21235Y6431D01*
X-21284Y6464D01*
X-21089Y6935D01*
X-20979Y6913D01*
X-20327Y7043D01*
X-19773Y7413D01*
X-19403Y7967D01*
X-19273Y8619D01*
X-19403Y9272D01*
X-19773Y9826D01*
X-20327Y10196D01*
X-20979Y10325D01*
D02*
G37*
G36*
X32432Y9918D02*
X31779Y9789D01*
X31226Y9419D01*
X30856Y8865D01*
X30726Y8212D01*
X30856Y7560D01*
X31226Y7006D01*
X31779Y6636D01*
X32432Y6506D01*
X33085Y6636D01*
X33639Y7006D01*
X34008Y7560D01*
X34138Y8212D01*
X34008Y8865D01*
X33639Y9419D01*
X33085Y9789D01*
X32432Y9918D01*
D02*
G37*
G36*
X-13892Y4320D02*
X-14545Y4190D01*
X-15099Y3820D01*
X-15468Y3266D01*
X-15598Y2613D01*
X-15468Y1961D01*
X-15099Y1407D01*
X-14545Y1037D01*
X-13892Y907D01*
X-13239Y1037D01*
X-12686Y1407D01*
X-12316Y1961D01*
X-12186Y2613D01*
X-12316Y3266D01*
X-12686Y3820D01*
X-13239Y4190D01*
X-13892Y4320D01*
D02*
G37*
G36*
X39740Y2750D02*
X39087Y2620D01*
X38534Y2250D01*
X38164Y1697D01*
X38034Y1044D01*
X38164Y391D01*
X38534Y-162D01*
X39087Y-532D01*
X39740Y-662D01*
X40393Y-532D01*
X40946Y-162D01*
X41316Y391D01*
X41446Y1044D01*
X41316Y1697D01*
X40946Y2250D01*
X40393Y2620D01*
X39740Y2750D01*
D02*
G37*
G36*
X36469Y-521D02*
X35816Y-651D01*
X35263Y-1021D01*
X34893Y-1574D01*
X34763Y-2227D01*
X34893Y-2880D01*
X35263Y-3433D01*
X35816Y-3803D01*
X36469Y-3933D01*
X37122Y-3803D01*
X37675Y-3433D01*
X38045Y-2880D01*
X38175Y-2227D01*
X38045Y-1574D01*
X37675Y-1021D01*
X37122Y-651D01*
X36469Y-521D01*
D02*
G37*
G36*
X-17484Y-663D02*
X-18137Y-793D01*
X-18690Y-1163D01*
X-19060Y-1717D01*
X-19190Y-2369D01*
X-19060Y-3022D01*
X-18690Y-3576D01*
X-18170Y-3923D01*
X-18392Y-4348D01*
X-18414Y-4346D01*
X-19046Y-4220D01*
X-19698Y-4350D01*
X-20252Y-4720D01*
X-20622Y-5273D01*
X-20752Y-5926D01*
X-20622Y-6579D01*
X-20252Y-7132D01*
X-19698Y-7502D01*
X-19046Y-7632D01*
X-18393Y-7502D01*
X-17839Y-7132D01*
X-17469Y-6579D01*
X-17031Y-6397D01*
X-16955Y-6448D01*
X-16303Y-6578D01*
X-15650Y-6448D01*
X-15096Y-6078D01*
X-14727Y-5525D01*
X-14597Y-4872D01*
X-14727Y-4219D01*
X-15096Y-3666D01*
X-15650Y-3296D01*
X-15864Y-2805D01*
X-15778Y-2369D01*
X-15908Y-1717D01*
X-16277Y-1163D01*
X-16831Y-793D01*
X-17484Y-663D01*
D02*
G37*
G36*
X-12121Y-2903D02*
X-12774Y-3033D01*
X-13327Y-3403D01*
X-13697Y-3957D01*
X-13827Y-4609D01*
X-13697Y-5262D01*
X-13327Y-5816D01*
X-12774Y-6185D01*
X-12121Y-6315D01*
X-11468Y-6185D01*
X-10915Y-5816D01*
X-10545Y-5262D01*
X-10415Y-4609D01*
X-10545Y-3957D01*
X-10915Y-3403D01*
X-11468Y-3033D01*
X-12121Y-2903D01*
D02*
G37*
G36*
X19871Y-3845D02*
X19218Y-3975D01*
X18664Y-4345D01*
X18294Y-4899D01*
X18165Y-5551D01*
X18294Y-6204D01*
X18664Y-6758D01*
X19218Y-7128D01*
X19871Y-7258D01*
X20523Y-7128D01*
X21077Y-6758D01*
X21447Y-6204D01*
X21576Y-5551D01*
X21447Y-4899D01*
X21077Y-4345D01*
X20523Y-3975D01*
X19871Y-3845D01*
D02*
G37*
G36*
X40945Y-4593D02*
X40292Y-4723D01*
X39739Y-5093D01*
X39369Y-5646D01*
X39239Y-6299D01*
X39369Y-6952D01*
X39739Y-7506D01*
X40292Y-7875D01*
X40945Y-8005D01*
X41598Y-7875D01*
X42151Y-7506D01*
X42521Y-6952D01*
X42651Y-6299D01*
X42521Y-5646D01*
X42151Y-5093D01*
X41598Y-4723D01*
X40945Y-4593D01*
D02*
G37*
G36*
X-14205Y-7155D02*
X-14858Y-7284D01*
X-15412Y-7654D01*
X-15781Y-8208D01*
X-15911Y-8861D01*
X-15781Y-9514D01*
X-15412Y-10067D01*
X-14858Y-10437D01*
X-14205Y-10567D01*
X-13553Y-10437D01*
X-12999Y-10067D01*
X-12629Y-9514D01*
X-12499Y-8861D01*
X-12629Y-8208D01*
X-12999Y-7654D01*
X-13553Y-7284D01*
X-14205Y-7155D01*
D02*
G37*
G36*
X-18694Y-8371D02*
X-19347Y-8500D01*
X-19900Y-8870D01*
X-20270Y-9424D01*
X-20400Y-10076D01*
X-20270Y-10729D01*
X-19900Y-11283D01*
X-19347Y-11653D01*
X-18694Y-11783D01*
X-18041Y-11653D01*
X-17488Y-11283D01*
X-17118Y-10729D01*
X-16988Y-10076D01*
X-17118Y-9424D01*
X-17488Y-8870D01*
X-18041Y-8500D01*
X-18694Y-8371D01*
D02*
G37*
G36*
X26383Y-8803D02*
X25730Y-8933D01*
X25177Y-9303D01*
X24807Y-9856D01*
X24677Y-10509D01*
X24807Y-11162D01*
X25177Y-11715D01*
X25730Y-12085D01*
X26383Y-12215D01*
X27036Y-12085D01*
X27589Y-11715D01*
X27959Y-11162D01*
X28089Y-10509D01*
X27959Y-9856D01*
X27589Y-9303D01*
X27036Y-8933D01*
X26383Y-8803D01*
D02*
G37*
G36*
X38976Y-11286D02*
X38324Y-11416D01*
X37770Y-11786D01*
X37400Y-12339D01*
X37270Y-12992D01*
X37400Y-13645D01*
X37770Y-14198D01*
X38324Y-14568D01*
X38976Y-14698D01*
X39629Y-14568D01*
X40183Y-14198D01*
X40552Y-13645D01*
X40682Y-12992D01*
X40552Y-12339D01*
X40183Y-11786D01*
X39629Y-11416D01*
X38976Y-11286D01*
D02*
G37*
G36*
X-18331Y-14728D02*
X-18984Y-14858D01*
X-19538Y-15228D01*
X-19907Y-15781D01*
X-19944Y-15967D01*
X-20500Y-16198D01*
X-20644Y-16102D01*
X-21297Y-15972D01*
X-21950Y-16102D01*
X-22503Y-16471D01*
X-22873Y-17025D01*
X-23003Y-17678D01*
X-22873Y-18330D01*
X-22503Y-18884D01*
X-21950Y-19254D01*
X-21297Y-19384D01*
X-20644Y-19254D01*
X-20090Y-18884D01*
X-19721Y-18330D01*
X-19684Y-18144D01*
X-19128Y-17914D01*
X-18984Y-18010D01*
X-18331Y-18140D01*
X-17679Y-18010D01*
X-17125Y-17640D01*
X-16755Y-17087D01*
X-16625Y-16434D01*
X-16755Y-15781D01*
X-17125Y-15228D01*
X-17679Y-14858D01*
X-18331Y-14728D01*
D02*
G37*
G36*
X4429Y-13452D02*
X3776Y-13581D01*
X3223Y-13951D01*
X2853Y-14505D01*
X2723Y-15157D01*
X2853Y-15810D01*
X3223Y-16364D01*
X3776Y-16734D01*
X4429Y-16863D01*
X5082Y-16734D01*
X5635Y-16364D01*
X6005Y-15810D01*
X6135Y-15157D01*
X6005Y-14505D01*
X5635Y-13951D01*
X5082Y-13581D01*
X4429Y-13452D01*
D02*
G37*
G36*
X8657Y-13589D02*
X8004Y-13719D01*
X7451Y-14089D01*
X7081Y-14642D01*
X6951Y-15295D01*
X7081Y-15948D01*
X7451Y-16502D01*
X8004Y-16872D01*
X8657Y-17001D01*
X9310Y-16872D01*
X9863Y-16502D01*
X10233Y-15948D01*
X10363Y-15295D01*
X10233Y-14642D01*
X9863Y-14089D01*
X9310Y-13719D01*
X8657Y-13589D01*
D02*
G37*
G36*
X492Y-14829D02*
X-161Y-14959D01*
X-714Y-15329D01*
X-1084Y-15883D01*
X-1214Y-16535D01*
X-1084Y-17188D01*
X-714Y-17742D01*
X-161Y-18112D01*
X492Y-18241D01*
X1145Y-18112D01*
X1698Y-17742D01*
X2068Y-17188D01*
X2198Y-16535D01*
X2068Y-15883D01*
X1698Y-15329D01*
X1145Y-14959D01*
X492Y-14829D01*
D02*
G37*
G36*
X-14764Y-17586D02*
X-15417Y-17716D01*
X-15971Y-18086D01*
X-16341Y-18639D01*
X-16470Y-19292D01*
X-16341Y-19945D01*
X-15971Y-20499D01*
X-15417Y-20868D01*
X-14764Y-20998D01*
X-14112Y-20868D01*
X-13558Y-20499D01*
X-13188Y-19945D01*
X-13058Y-19292D01*
X-13188Y-18639D01*
X-13558Y-18086D01*
X-14112Y-17716D01*
X-14764Y-17586D01*
D02*
G37*
G36*
X-40945Y-17979D02*
X-41598Y-18109D01*
X-42151Y-18479D01*
X-42521Y-19032D01*
X-42651Y-19685D01*
X-42521Y-20338D01*
X-42151Y-20891D01*
X-41598Y-21261D01*
X-40945Y-21391D01*
X-40292Y-21261D01*
X-39739Y-20891D01*
X-39369Y-20338D01*
X-39239Y-19685D01*
X-39369Y-19032D01*
X-39739Y-18479D01*
X-40292Y-18109D01*
X-40945Y-17979D01*
D02*
G37*
G36*
X36220Y-18373D02*
X35568Y-18503D01*
X35014Y-18872D01*
X34644Y-19426D01*
X34514Y-20079D01*
X34644Y-20732D01*
X35014Y-21285D01*
X35568Y-21655D01*
X36220Y-21785D01*
X36873Y-21655D01*
X37427Y-21285D01*
X37797Y-20732D01*
X37927Y-20079D01*
X37797Y-19426D01*
X37427Y-18872D01*
X36873Y-18503D01*
X36220Y-18373D01*
D02*
G37*
G36*
X7874Y-20735D02*
X7221Y-20865D01*
X6668Y-21235D01*
X6298Y-21788D01*
X6168Y-22441D01*
X6298Y-23094D01*
X6668Y-23647D01*
X7221Y-24017D01*
X7874Y-24147D01*
X8527Y-24017D01*
X9080Y-23647D01*
X9450Y-23094D01*
X9580Y-22441D01*
X9450Y-21788D01*
X9080Y-21235D01*
X8527Y-20865D01*
X7874Y-20735D01*
D02*
G37*
G36*
X22271Y-17506D02*
X21038Y-17668D01*
X19888Y-18144D01*
X18902Y-18902D01*
X18144Y-19888D01*
X17668Y-21038D01*
X17506Y-22271D01*
X17668Y-23504D01*
X18144Y-24654D01*
X18902Y-25641D01*
X19888Y-26398D01*
X21038Y-26874D01*
X22271Y-27036D01*
X23504Y-26874D01*
X24654Y-26398D01*
X25641Y-25641D01*
X26398Y-24654D01*
X26874Y-23504D01*
X27036Y-22271D01*
X26874Y-21038D01*
X26398Y-19888D01*
X25641Y-18902D01*
X24654Y-18144D01*
X23504Y-17668D01*
X22271Y-17506D01*
D02*
G37*
G36*
X33465Y-25459D02*
X32812Y-25589D01*
X32258Y-25959D01*
X31888Y-26513D01*
X31759Y-27165D01*
X31888Y-27818D01*
X32258Y-28372D01*
X32812Y-28741D01*
X33465Y-28871D01*
X34117Y-28741D01*
X34671Y-28372D01*
X35041Y-27818D01*
X35171Y-27165D01*
X35041Y-26513D01*
X34671Y-25959D01*
X34117Y-25589D01*
X33465Y-25459D01*
D02*
G37*
G36*
X33858Y-30971D02*
X33205Y-31101D01*
X32652Y-31471D01*
X32282Y-32024D01*
X32152Y-32677D01*
X32282Y-33330D01*
X32652Y-33884D01*
X33205Y-34253D01*
X33858Y-34383D01*
X34511Y-34253D01*
X35065Y-33884D01*
X35434Y-33330D01*
X35564Y-32677D01*
X35434Y-32024D01*
X35065Y-31471D01*
X34511Y-31101D01*
X33858Y-30971D01*
D02*
G37*
G36*
X29134D02*
X28481Y-31101D01*
X27928Y-31471D01*
X27558Y-32024D01*
X27428Y-32677D01*
X27558Y-33330D01*
X27928Y-33884D01*
X28481Y-34253D01*
X29134Y-34383D01*
X29787Y-34253D01*
X30340Y-33884D01*
X30710Y-33330D01*
X30840Y-32677D01*
X30710Y-32024D01*
X30340Y-31471D01*
X29787Y-31101D01*
X29134Y-30971D01*
D02*
G37*
G36*
X24409D02*
X23757Y-31101D01*
X23203Y-31471D01*
X22833Y-32024D01*
X22704Y-32677D01*
X22833Y-33330D01*
X23203Y-33884D01*
X23757Y-34253D01*
X24409Y-34383D01*
X25062Y-34253D01*
X25616Y-33884D01*
X25986Y-33330D01*
X26116Y-32677D01*
X25986Y-32024D01*
X25616Y-31471D01*
X25062Y-31101D01*
X24409Y-30971D01*
D02*
G37*
G36*
X-41732D02*
X-42385Y-31101D01*
X-42939Y-31471D01*
X-43308Y-32024D01*
X-43438Y-32677D01*
X-43308Y-33330D01*
X-42939Y-33884D01*
X-42385Y-34253D01*
X-41732Y-34383D01*
X-41079Y-34253D01*
X-40526Y-33884D01*
X-40156Y-33330D01*
X-40026Y-32677D01*
X-40156Y-32024D01*
X-40526Y-31471D01*
X-41079Y-31101D01*
X-41732Y-30971D01*
D02*
G37*
G36*
X-40157Y-34711D02*
X-40810Y-34841D01*
X-41364Y-35211D01*
X-41734Y-35765D01*
X-41864Y-36417D01*
X-41734Y-37070D01*
X-41364Y-37624D01*
X-40810Y-37993D01*
X-40157Y-38123D01*
X-39505Y-37993D01*
X-38951Y-37624D01*
X-38581Y-37070D01*
X-38451Y-36417D01*
X-38581Y-35765D01*
X-38951Y-35211D01*
X-39505Y-34841D01*
X-40157Y-34711D01*
D02*
G37*
G36*
X33858Y-35696D02*
X33205Y-35825D01*
X32652Y-36195D01*
X32282Y-36749D01*
X32152Y-37402D01*
X32282Y-38054D01*
X32652Y-38608D01*
X33205Y-38978D01*
X33858Y-39108D01*
X34511Y-38978D01*
X35065Y-38608D01*
X35434Y-38054D01*
X35564Y-37402D01*
X35434Y-36749D01*
X35065Y-36195D01*
X34511Y-35825D01*
X33858Y-35696D01*
D02*
G37*
G36*
X29134Y-35696D02*
X28481Y-35825D01*
X27928Y-36195D01*
X27558Y-36749D01*
X27428Y-37402D01*
X27558Y-38054D01*
X27928Y-38608D01*
X28481Y-38978D01*
X29134Y-39108D01*
X29787Y-38978D01*
X30340Y-38608D01*
X30710Y-38054D01*
X30840Y-37402D01*
X30710Y-36749D01*
X30340Y-36195D01*
X29787Y-35825D01*
X29134Y-35696D01*
D02*
G37*
G36*
X24409D02*
X23757Y-35825D01*
X23203Y-36195D01*
X22833Y-36749D01*
X22704Y-37402D01*
X22833Y-38054D01*
X23203Y-38608D01*
X23757Y-38978D01*
X24409Y-39108D01*
X25062Y-38978D01*
X25616Y-38608D01*
X25986Y-38054D01*
X26116Y-37402D01*
X25986Y-36749D01*
X25616Y-36195D01*
X25062Y-35825D01*
X24409Y-35696D01*
D02*
G37*
%LPD*%
D69*
X-6073Y-9683D02*
D03*
X1575Y-8957D02*
D03*
X8661Y6299D02*
D03*
X-5610Y4823D02*
D03*
X-17899Y5300D02*
D03*
X-2165Y2165D02*
D03*
X2153Y-2153D02*
D03*
X8491Y-8491D02*
D03*
X-24985Y-1183D02*
D03*
X-23619Y10630D02*
D03*
X-467Y31471D02*
D03*
X2067Y35039D02*
D03*
X-46063Y-37402D02*
D03*
Y-32677D02*
D03*
X-51181D02*
D03*
Y-37402D02*
D03*
X-29134Y31102D02*
D03*
X-30807Y11220D02*
D03*
X3825Y37781D02*
D03*
X24016Y32677D02*
D03*
X45276Y8268D02*
D03*
X45669Y4331D02*
D03*
X48819Y-7874D02*
D03*
X47244Y-4724D02*
D03*
X45276Y-11417D02*
D03*
X46850Y-14567D02*
D03*
X44094Y-21654D02*
D03*
X42520Y-18504D02*
D03*
X39764Y-25591D02*
D03*
X41339Y-28740D02*
D03*
X-9347Y-18422D02*
D03*
X-25043Y-6768D02*
D03*
X-30553Y-1183D02*
D03*
X-24985Y-12319D02*
D03*
X-30553D02*
D03*
X-10236Y31102D02*
D03*
X-42815Y5610D02*
D03*
X-43209Y-8169D02*
D03*
X-39764Y11220D02*
D03*
X-33858Y11262D02*
D03*
X-36121Y-6751D02*
D03*
Y-12319D02*
D03*
Y-1183D02*
D03*
X-37008Y-19685D02*
D03*
X31597Y-8491D02*
D03*
X46654Y-32677D02*
D03*
X44488Y-35039D02*
D03*
X48819Y-35039D02*
D03*
X46654Y-37402D02*
D03*
X50984Y-32677D02*
D03*
Y-37402D02*
D03*
X-30553Y-6751D02*
D03*
X37992Y-37402D02*
D03*
X40157Y-35039D02*
D03*
X37992Y-32677D02*
D03*
X26383Y-5498D02*
D03*
X27421Y15590D02*
D03*
X42323Y-37402D02*
D03*
Y-32677D02*
D03*
X30901Y-5568D02*
D03*
X20670Y9674D02*
D03*
X18234Y12945D02*
D03*
M02*
