G04*
G04 #@! TF.GenerationSoftware,Altium Limited,Altium Designer,20.2.5 (213)*
G04*
G04 Layer_Physical_Order=3*
G04 Layer_Color=16440176*
%FSLAX25Y25*%
%MOIN*%
G70*
G04*
G04 #@! TF.SameCoordinates,6A220F91-A522-4A6E-AAF5-B6834703FD54*
G04*
G04*
G04 #@! TF.FilePolarity,Positive*
G04*
G01*
G75*
%ADD70C,0.01772*%
G36*
X-0Y41339D02*
Y33478D01*
X-387Y33161D01*
X-467Y33177D01*
X-1120Y33048D01*
X-1674Y32678D01*
X-2043Y32124D01*
X-2173Y31471D01*
X-2043Y30819D01*
X-1674Y30265D01*
X-1120Y29895D01*
X-467Y29765D01*
X-387Y29781D01*
X-0Y29464D01*
Y27559D01*
X15748Y11811D01*
X15748Y-39370D01*
X-42504Y-39370D01*
X-42565Y-39063D01*
X-42739Y-38802D01*
X-43000Y-38628D01*
X-43307Y-38567D01*
X-44299D01*
X-44535Y-38126D01*
X-44487Y-38054D01*
X-44357Y-37402D01*
X-44487Y-36749D01*
X-44857Y-36195D01*
X-45410Y-35825D01*
X-46063Y-35696D01*
X-46716Y-35825D01*
X-47269Y-36195D01*
X-47639Y-36749D01*
X-47769Y-37402D01*
X-47639Y-38054D01*
X-47591Y-38126D01*
X-47827Y-38567D01*
X-49417D01*
X-49653Y-38126D01*
X-49605Y-38054D01*
X-49475Y-37402D01*
X-49605Y-36749D01*
X-49975Y-36195D01*
X-50528Y-35825D01*
X-51181Y-35696D01*
X-51834Y-35825D01*
X-51906Y-35873D01*
X-52347Y-35638D01*
Y-34441D01*
X-51906Y-34205D01*
X-51834Y-34253D01*
X-51181Y-34383D01*
X-50528Y-34253D01*
X-49975Y-33884D01*
X-49605Y-33330D01*
X-49475Y-32677D01*
X-49605Y-32024D01*
X-49975Y-31471D01*
X-50528Y-31101D01*
X-51181Y-30971D01*
X-51834Y-31101D01*
X-51906Y-31149D01*
X-52347Y-30913D01*
X-52347Y-0D01*
X-52347Y2057D01*
X-52024Y6157D01*
X-51381Y10220D01*
X-50420Y14220D01*
X-49149Y18132D01*
X-47575Y21932D01*
X-45708Y25597D01*
X-43558Y29105D01*
X-41141Y32432D01*
X-38469Y35560D01*
X-35561Y38469D01*
X-32433Y41141D01*
X-29105Y43558D01*
X-25598Y45708D01*
X-21933Y47575D01*
X-18132Y49149D01*
X-14220Y50420D01*
X-10370Y51345D01*
X-0Y41339D01*
D02*
G37*
G36*
X15354Y43701D02*
X17411Y41644D01*
X16901Y40413D01*
X16712Y38974D01*
X16901Y37535D01*
X17456Y36195D01*
X18340Y35043D01*
X19491Y34160D01*
X20832Y33604D01*
X21967Y33455D01*
X22347Y32986D01*
X22358Y32922D01*
X22310Y32677D01*
X22440Y32024D01*
X22809Y31471D01*
X23363Y31101D01*
X24016Y30971D01*
X24621Y31091D01*
X24794Y31023D01*
X25092Y30838D01*
X25063Y30623D01*
X25253Y29184D01*
X25808Y27843D01*
X26691Y26691D01*
X27843Y25808D01*
X29184Y25253D01*
X30623Y25063D01*
X32061Y25253D01*
X33292Y25763D01*
X34114Y24941D01*
X33604Y23710D01*
X33415Y22271D01*
X33604Y20832D01*
X34160Y19491D01*
X35043Y18340D01*
X36195Y17456D01*
X37535Y16901D01*
X38974Y16712D01*
X40413Y16901D01*
X41644Y17411D01*
X43307Y15748D01*
Y-16462D01*
X42807Y-16855D01*
X42520Y-16798D01*
X41867Y-16928D01*
X41313Y-17298D01*
X40944Y-17851D01*
X40814Y-18504D01*
X40944Y-19157D01*
X41313Y-19710D01*
X41867Y-20080D01*
X42454Y-20197D01*
X42622Y-20433D01*
X42735Y-20677D01*
X42518Y-21001D01*
X42388Y-21654D01*
X42518Y-22306D01*
X42888Y-22860D01*
X43307Y-23140D01*
Y-27775D01*
X42807Y-27926D01*
X42545Y-27534D01*
X41991Y-27164D01*
X41404Y-27047D01*
X41236Y-26812D01*
X41124Y-26567D01*
X41340Y-26243D01*
X41470Y-25591D01*
X41340Y-24938D01*
X40970Y-24384D01*
X40417Y-24014D01*
X39764Y-23885D01*
X39111Y-24014D01*
X38557Y-24384D01*
X38188Y-24938D01*
X38058Y-25591D01*
X38188Y-26243D01*
X38557Y-26797D01*
X39111Y-27167D01*
X39698Y-27283D01*
X39866Y-27519D01*
X39979Y-27764D01*
X39762Y-28087D01*
X39633Y-28740D01*
X39762Y-29393D01*
X40132Y-29947D01*
X40686Y-30316D01*
X41339Y-30446D01*
X41991Y-30316D01*
X42545Y-29947D01*
X42807Y-29554D01*
X43307Y-29706D01*
Y-30767D01*
X42807Y-31067D01*
X42323Y-30971D01*
X41670Y-31101D01*
X41116Y-31471D01*
X40747Y-32024D01*
X40617Y-32677D01*
X40666Y-32925D01*
X40241Y-33350D01*
X40157Y-33333D01*
X40074Y-33350D01*
X39649Y-32925D01*
X39698Y-32677D01*
X39568Y-32024D01*
X39198Y-31471D01*
X38645Y-31101D01*
X37992Y-30971D01*
X37339Y-31101D01*
X36786Y-31471D01*
X36416Y-32024D01*
X36286Y-32677D01*
X36416Y-33330D01*
X36786Y-33884D01*
X37339Y-34253D01*
X37992Y-34383D01*
X38076Y-34367D01*
X38497Y-34788D01*
Y-34809D01*
X38451Y-35039D01*
X38497Y-35270D01*
Y-35290D01*
X38076Y-35712D01*
X37992Y-35696D01*
X37339Y-35825D01*
X36786Y-36195D01*
X36416Y-36749D01*
X36286Y-37402D01*
X36416Y-38054D01*
X36786Y-38608D01*
X37178Y-38870D01*
X37027Y-39370D01*
X18504D01*
Y-25876D01*
X19004Y-25719D01*
X19888Y-26398D01*
X21038Y-26874D01*
X22271Y-27036D01*
X23504Y-26874D01*
X24654Y-26398D01*
X25641Y-25641D01*
X26398Y-24654D01*
X26874Y-23504D01*
X27036Y-22271D01*
X26874Y-21038D01*
X26398Y-19888D01*
X25641Y-18902D01*
X24654Y-18144D01*
X23504Y-17668D01*
X22271Y-17506D01*
X21038Y-17668D01*
X19888Y-18144D01*
X19004Y-18823D01*
X18504Y-18666D01*
X18504Y9426D01*
X19004Y9475D01*
X19020Y9395D01*
X19094Y9021D01*
X19464Y8468D01*
X20017Y8098D01*
X20670Y7968D01*
X21323Y8098D01*
X21877Y8468D01*
X22246Y9021D01*
X22376Y9674D01*
X22246Y10327D01*
X21877Y10880D01*
X21323Y11250D01*
X20670Y11380D01*
X20017Y11250D01*
X19464Y10880D01*
X19094Y10327D01*
X19020Y9953D01*
X19004Y9873D01*
X18504Y9923D01*
Y11293D01*
X18887Y11369D01*
X19441Y11739D01*
X19811Y12292D01*
X19940Y12945D01*
X19811Y13598D01*
X19441Y14152D01*
X18887Y14521D01*
X18466Y14605D01*
X6693Y26378D01*
X6693Y31191D01*
X7193Y31383D01*
X7615Y31101D01*
X8268Y30971D01*
X8921Y31101D01*
X9474Y31471D01*
X9844Y32024D01*
X9974Y32677D01*
X9844Y33330D01*
X9474Y33884D01*
X8921Y34253D01*
X8268Y34383D01*
X7615Y34253D01*
X7193Y33971D01*
X6693Y34163D01*
X6693Y42126D01*
X8268Y43701D01*
X15354Y43701D01*
D02*
G37*
%LPC*%
G36*
X-19216Y36129D02*
X-19869Y35999D01*
X-20422Y35629D01*
X-20792Y35076D01*
X-20922Y34423D01*
X-20792Y33770D01*
X-20422Y33217D01*
X-19869Y32847D01*
X-19216Y32717D01*
X-18563Y32847D01*
X-18010Y33217D01*
X-17640Y33770D01*
X-17510Y34423D01*
X-17640Y35076D01*
X-18010Y35629D01*
X-18563Y35999D01*
X-19216Y36129D01*
D02*
G37*
G36*
X-10236Y32808D02*
X-10889Y32678D01*
X-11443Y32309D01*
X-11812Y31755D01*
X-11942Y31102D01*
X-11812Y30450D01*
X-11443Y29896D01*
X-10889Y29526D01*
X-10236Y29396D01*
X-9583Y29526D01*
X-9030Y29896D01*
X-8660Y30450D01*
X-8530Y31102D01*
X-8660Y31755D01*
X-9030Y32309D01*
X-9583Y32678D01*
X-10236Y32808D01*
D02*
G37*
G36*
X-13493Y29277D02*
X-14146Y29147D01*
X-14699Y28777D01*
X-15069Y28223D01*
X-15199Y27571D01*
X-15285Y27485D01*
X-15677Y27563D01*
X-16330Y27433D01*
X-16883Y27063D01*
X-17253Y26510D01*
X-17383Y25857D01*
X-17253Y25204D01*
X-16883Y24651D01*
X-16330Y24281D01*
X-15677Y24151D01*
X-15024Y24281D01*
X-14470Y24651D01*
X-14100Y25204D01*
X-13971Y25857D01*
X-13885Y25943D01*
X-13493Y25865D01*
X-12840Y25995D01*
X-12287Y26364D01*
X-11917Y26918D01*
X-11787Y27571D01*
X-11917Y28223D01*
X-12287Y28777D01*
X-12840Y29147D01*
X-13493Y29277D01*
D02*
G37*
G36*
X-29134Y32808D02*
X-29787Y32678D01*
X-30340Y32309D01*
X-30710Y31755D01*
X-30840Y31102D01*
X-30710Y30450D01*
X-30340Y29896D01*
X-30302Y29871D01*
X-30187Y29193D01*
X-30316Y28999D01*
X-30446Y28346D01*
X-30316Y27694D01*
X-29946Y27140D01*
X-29393Y26770D01*
X-29310Y26571D01*
X-29529Y26243D01*
X-29659Y25591D01*
X-29529Y24938D01*
X-29159Y24384D01*
X-28606Y24014D01*
X-27953Y23885D01*
X-27300Y24014D01*
X-27167Y24103D01*
X-26763Y23772D01*
X-26874Y23504D01*
X-27036Y22271D01*
X-26874Y21038D01*
X-26398Y19888D01*
X-25641Y18902D01*
X-24654Y18144D01*
X-23504Y17668D01*
X-22271Y17506D01*
X-21038Y17668D01*
X-19888Y18144D01*
X-18902Y18902D01*
X-18144Y19888D01*
X-17668Y21038D01*
X-17506Y22271D01*
X-17668Y23504D01*
X-18144Y24654D01*
X-18902Y25641D01*
X-19888Y26398D01*
X-21038Y26874D01*
X-22271Y27036D01*
X-23504Y26874D01*
X-24654Y26398D01*
X-25641Y25641D01*
X-25757Y25488D01*
X-26062Y25552D01*
X-26260Y25655D01*
X-26377Y26243D01*
X-26746Y26797D01*
X-27075Y27016D01*
X-27213Y27620D01*
X-27164Y27694D01*
X-27034Y28346D01*
X-27164Y28999D01*
X-27534Y29553D01*
X-27572Y29578D01*
X-27687Y30256D01*
X-27558Y30450D01*
X-27428Y31102D01*
X-27558Y31755D01*
X-27928Y32309D01*
X-28481Y32678D01*
X-29134Y32808D01*
D02*
G37*
G36*
X9420Y16254D02*
X8767Y16124D01*
X8214Y15755D01*
X7844Y15201D01*
X7714Y14548D01*
X7844Y13895D01*
X8214Y13342D01*
X8767Y12972D01*
X9420Y12842D01*
X10073Y12972D01*
X10627Y13342D01*
X10996Y13895D01*
X11126Y14548D01*
X10996Y15201D01*
X10627Y15755D01*
X10073Y16124D01*
X9420Y16254D01*
D02*
G37*
G36*
X-33858Y12968D02*
X-34511Y12838D01*
X-35065Y12468D01*
X-35434Y11914D01*
X-35564Y11262D01*
X-35434Y10609D01*
X-35065Y10055D01*
X-34511Y9685D01*
X-33858Y9556D01*
X-33205Y9685D01*
X-32652Y10055D01*
X-32596Y10138D01*
X-32096D01*
X-32013Y10014D01*
X-31460Y9644D01*
X-30807Y9515D01*
X-30154Y9644D01*
X-29601Y10014D01*
X-29231Y10568D01*
X-29101Y11220D01*
X-29231Y11873D01*
X-29601Y12427D01*
X-30154Y12797D01*
X-30807Y12926D01*
X-31460Y12797D01*
X-32013Y12427D01*
X-32069Y12344D01*
X-32569D01*
X-32652Y12468D01*
X-33205Y12838D01*
X-33858Y12968D01*
D02*
G37*
G36*
X-39764Y12926D02*
X-40417Y12797D01*
X-40970Y12427D01*
X-41340Y11873D01*
X-41470Y11220D01*
X-41340Y10568D01*
X-40970Y10014D01*
X-40417Y9644D01*
X-39764Y9515D01*
X-39111Y9644D01*
X-38557Y10014D01*
X-38188Y10568D01*
X-38058Y11220D01*
X-38188Y11873D01*
X-38557Y12427D01*
X-39111Y12797D01*
X-39764Y12926D01*
D02*
G37*
G36*
X-23619Y12336D02*
X-24272Y12206D01*
X-24826Y11836D01*
X-25196Y11283D01*
X-25325Y10630D01*
X-25196Y9977D01*
X-24826Y9424D01*
X-24272Y9054D01*
X-23619Y8924D01*
X-23115Y9025D01*
X-22767Y8768D01*
X-22681Y8644D01*
X-22685Y8619D01*
X-22556Y7967D01*
X-22186Y7413D01*
X-21632Y7043D01*
X-20979Y6913D01*
X-20327Y7043D01*
X-19773Y7413D01*
X-19403Y7967D01*
X-19273Y8619D01*
X-19403Y9272D01*
X-19773Y9826D01*
X-20327Y10196D01*
X-20979Y10325D01*
X-21484Y10225D01*
X-21831Y10481D01*
X-21918Y10606D01*
X-21913Y10630D01*
X-22043Y11283D01*
X-22413Y11836D01*
X-22966Y12206D01*
X-23619Y12336D01*
D02*
G37*
G36*
X8213Y7413D02*
X7560Y7283D01*
X7006Y6913D01*
X6636Y6360D01*
X6506Y5707D01*
X6636Y5054D01*
X7006Y4501D01*
X7560Y4131D01*
X8213Y4001D01*
X8865Y4131D01*
X9419Y4501D01*
X9789Y5054D01*
X9918Y5707D01*
X9789Y6360D01*
X9419Y6913D01*
X8865Y7283D01*
X8213Y7413D01*
D02*
G37*
G36*
X-42815Y7316D02*
X-43468Y7186D01*
X-44021Y6817D01*
X-44391Y6263D01*
X-44521Y5610D01*
X-44391Y4957D01*
X-44021Y4404D01*
X-43468Y4034D01*
X-42815Y3904D01*
X-42162Y4034D01*
X-41609Y4404D01*
X-41239Y4957D01*
X-41109Y5610D01*
X-41239Y6263D01*
X-41609Y6817D01*
X-42162Y7186D01*
X-42815Y7316D01*
D02*
G37*
G36*
X-5429Y7135D02*
X-6081Y7005D01*
X-6635Y6635D01*
X-7005Y6081D01*
X-7135Y5429D01*
X-7005Y4776D01*
X-6635Y4222D01*
X-6081Y3852D01*
X-5429Y3723D01*
X-4776Y3852D01*
X-4222Y4222D01*
X-3852Y4776D01*
X-3723Y5429D01*
X-3852Y6081D01*
X-4222Y6635D01*
X-4776Y7005D01*
X-5429Y7135D01*
D02*
G37*
G36*
X-17895Y7002D02*
X-18548Y6872D01*
X-19101Y6503D01*
X-19471Y5949D01*
X-19601Y5296D01*
X-19471Y4643D01*
X-19101Y4090D01*
X-18548Y3720D01*
X-17895Y3590D01*
X-17242Y3720D01*
X-16688Y4090D01*
X-16319Y4643D01*
X-16189Y5296D01*
X-16319Y5949D01*
X-16688Y6503D01*
X-17242Y6872D01*
X-17895Y7002D01*
D02*
G37*
G36*
X1531Y6856D02*
X878Y6726D01*
X325Y6357D01*
X-45Y5803D01*
X-175Y5150D01*
X-45Y4497D01*
X325Y3944D01*
X878Y3574D01*
X1531Y3444D01*
X2184Y3574D01*
X2737Y3944D01*
X3107Y4497D01*
X3237Y5150D01*
X3107Y5803D01*
X2737Y6357D01*
X2184Y6726D01*
X1531Y6856D01*
D02*
G37*
G36*
X5150Y3794D02*
X4497Y3664D01*
X3944Y3294D01*
X3574Y2741D01*
X3444Y2088D01*
X3574Y1435D01*
X3944Y882D01*
X4497Y512D01*
X5150Y382D01*
X5803Y512D01*
X6357Y882D01*
X6726Y1435D01*
X6856Y2088D01*
X6726Y2741D01*
X6357Y3294D01*
X5803Y3664D01*
X5150Y3794D01*
D02*
G37*
G36*
X-2088D02*
X-2741Y3664D01*
X-3294Y3294D01*
X-3664Y2741D01*
X-3794Y2088D01*
X-3664Y1435D01*
X-3294Y882D01*
X-2741Y512D01*
X-2088Y382D01*
X-1435Y512D01*
X-882Y882D01*
X-512Y1435D01*
X-382Y2088D01*
X-512Y2741D01*
X-882Y3294D01*
X-1435Y3664D01*
X-2088Y3794D01*
D02*
G37*
G36*
X-30553Y523D02*
X-31206Y393D01*
X-31760Y23D01*
X-32129Y-530D01*
X-32259Y-1183D01*
X-32129Y-1836D01*
X-31760Y-2389D01*
X-31206Y-2759D01*
X-30553Y-2889D01*
X-29900Y-2759D01*
X-29347Y-2389D01*
X-28977Y-1836D01*
X-28847Y-1183D01*
X-28977Y-530D01*
X-29347Y23D01*
X-29900Y393D01*
X-30553Y523D01*
D02*
G37*
G36*
X-36121D02*
X-36774Y393D01*
X-37327Y23D01*
X-37697Y-530D01*
X-37827Y-1183D01*
X-37697Y-1836D01*
X-37327Y-2389D01*
X-36774Y-2759D01*
X-36121Y-2889D01*
X-35468Y-2759D01*
X-34915Y-2389D01*
X-34545Y-1836D01*
X-34415Y-1183D01*
X-34545Y-530D01*
X-34915Y23D01*
X-35468Y393D01*
X-36121Y523D01*
D02*
G37*
G36*
X-24985Y523D02*
X-25638Y393D01*
X-26192Y23D01*
X-26561Y-530D01*
X-26691Y-1183D01*
X-26561Y-1836D01*
X-26192Y-2389D01*
X-25638Y-2759D01*
X-24985Y-2889D01*
X-24332Y-2759D01*
X-23779Y-2389D01*
X-23409Y-1836D01*
X-23279Y-1183D01*
X-23409Y-530D01*
X-23779Y23D01*
X-24332Y393D01*
X-24985Y523D01*
D02*
G37*
G36*
X9326Y175D02*
X8673Y45D01*
X8120Y-325D01*
X7750Y-878D01*
X7620Y-1531D01*
X7750Y-2184D01*
X8120Y-2737D01*
X8673Y-3107D01*
X9326Y-3237D01*
X9979Y-3107D01*
X10532Y-2737D01*
X10902Y-2184D01*
X11032Y-1531D01*
X10902Y-878D01*
X10532Y-325D01*
X9979Y45D01*
X9326Y175D01*
D02*
G37*
G36*
X1531D02*
X878Y45D01*
X325Y-325D01*
X-45Y-878D01*
X-175Y-1531D01*
X-45Y-2184D01*
X325Y-2737D01*
X878Y-3107D01*
X1531Y-3237D01*
X2184Y-3107D01*
X2737Y-2737D01*
X3107Y-2184D01*
X3237Y-1531D01*
X3107Y-878D01*
X2737Y-325D01*
X2184Y45D01*
X1531Y175D01*
D02*
G37*
G36*
X-6264D02*
X-6917Y45D01*
X-7470Y-325D01*
X-7840Y-878D01*
X-7970Y-1531D01*
X-7840Y-2184D01*
X-7470Y-2737D01*
X-6917Y-3107D01*
X-6264Y-3237D01*
X-5611Y-3107D01*
X-5057Y-2737D01*
X-4688Y-2184D01*
X-4558Y-1531D01*
X-4688Y-878D01*
X-5057Y-325D01*
X-5611Y45D01*
X-6264Y175D01*
D02*
G37*
G36*
X-17178Y-606D02*
X-17831Y-736D01*
X-18384Y-1106D01*
X-18754Y-1659D01*
X-18884Y-2312D01*
X-18754Y-2965D01*
X-18384Y-3519D01*
X-18079Y-3722D01*
X-18274Y-4193D01*
X-18701Y-4109D01*
X-19354Y-4238D01*
X-19907Y-4608D01*
X-20277Y-5162D01*
X-20407Y-5815D01*
X-20277Y-6467D01*
X-19907Y-7021D01*
X-19354Y-7391D01*
X-18701Y-7520D01*
X-18048Y-7391D01*
X-17494Y-7021D01*
X-17250Y-6655D01*
X-16660Y-6448D01*
X-16007Y-6578D01*
X-15355Y-6448D01*
X-15102Y-6279D01*
X-14458Y-6397D01*
X-14458Y-6397D01*
X-13905Y-6767D01*
X-13252Y-6897D01*
X-12599Y-6767D01*
X-12045Y-6397D01*
X-11676Y-5843D01*
X-11546Y-5190D01*
X-11676Y-4538D01*
X-12045Y-3984D01*
X-12599Y-3614D01*
X-13252Y-3484D01*
X-13905Y-3614D01*
X-14157Y-3783D01*
X-14801Y-3666D01*
X-14801Y-3666D01*
X-15262Y-3357D01*
X-15383Y-3217D01*
X-15558Y-2745D01*
X-15472Y-2312D01*
X-15602Y-1659D01*
X-15972Y-1106D01*
X-16525Y-736D01*
X-17178Y-606D01*
D02*
G37*
G36*
X5150Y-3444D02*
X4497Y-3574D01*
X3944Y-3944D01*
X3574Y-4497D01*
X3444Y-5150D01*
X3574Y-5803D01*
X3944Y-6357D01*
X4497Y-6726D01*
X5150Y-6856D01*
X5803Y-6726D01*
X6357Y-6357D01*
X6726Y-5803D01*
X6856Y-5150D01*
X6726Y-4497D01*
X6357Y-3944D01*
X5803Y-3574D01*
X5150Y-3444D01*
D02*
G37*
G36*
X-2088D02*
X-2741Y-3574D01*
X-3294Y-3944D01*
X-3664Y-4497D01*
X-3794Y-5150D01*
X-3664Y-5803D01*
X-3294Y-6357D01*
X-2741Y-6726D01*
X-2088Y-6856D01*
X-1435Y-6726D01*
X-882Y-6357D01*
X-512Y-5803D01*
X-382Y-5150D01*
X-512Y-4497D01*
X-882Y-3944D01*
X-1435Y-3574D01*
X-2088Y-3444D01*
D02*
G37*
G36*
X-30553Y-5045D02*
X-31206Y-5175D01*
X-31760Y-5545D01*
X-32129Y-6098D01*
X-32259Y-6751D01*
X-32129Y-7404D01*
X-31760Y-7957D01*
X-31206Y-8327D01*
X-30553Y-8457D01*
X-29900Y-8327D01*
X-29347Y-7957D01*
X-28977Y-7404D01*
X-28847Y-6751D01*
X-28977Y-6098D01*
X-29347Y-5545D01*
X-29900Y-5175D01*
X-30553Y-5045D01*
D02*
G37*
G36*
X-36121D02*
X-36774Y-5175D01*
X-37327Y-5545D01*
X-37697Y-6098D01*
X-37827Y-6751D01*
X-37697Y-7404D01*
X-37327Y-7957D01*
X-36774Y-8327D01*
X-36121Y-8457D01*
X-35468Y-8327D01*
X-34915Y-7957D01*
X-34545Y-7404D01*
X-34415Y-6751D01*
X-34545Y-6098D01*
X-34915Y-5545D01*
X-35468Y-5175D01*
X-36121Y-5045D01*
D02*
G37*
G36*
X-25043Y-5062D02*
X-25696Y-5192D01*
X-26249Y-5562D01*
X-26619Y-6115D01*
X-26749Y-6768D01*
X-26619Y-7421D01*
X-26249Y-7975D01*
X-25696Y-8344D01*
X-25043Y-8474D01*
X-24390Y-8344D01*
X-23836Y-7975D01*
X-23467Y-7421D01*
X-23337Y-6768D01*
X-23467Y-6115D01*
X-23836Y-5562D01*
X-24390Y-5192D01*
X-25043Y-5062D01*
D02*
G37*
G36*
X-43209Y-6463D02*
X-43861Y-6593D01*
X-44415Y-6963D01*
X-44785Y-7516D01*
X-44915Y-8169D01*
X-44785Y-8822D01*
X-44415Y-9376D01*
X-43861Y-9745D01*
X-43209Y-9875D01*
X-42556Y-9745D01*
X-42002Y-9376D01*
X-41633Y-8822D01*
X-41503Y-8169D01*
X-41633Y-7516D01*
X-42002Y-6963D01*
X-42556Y-6593D01*
X-43209Y-6463D01*
D02*
G37*
G36*
X1531Y-6506D02*
X878Y-6636D01*
X325Y-7006D01*
X-45Y-7560D01*
X-175Y-8213D01*
X-45Y-8865D01*
X325Y-9419D01*
X878Y-9789D01*
X1531Y-9918D01*
X2184Y-9789D01*
X2737Y-9419D01*
X3107Y-8865D01*
X3237Y-8213D01*
X3107Y-7560D01*
X2737Y-7006D01*
X2184Y-6636D01*
X1531Y-6506D01*
D02*
G37*
G36*
X8491Y-6785D02*
X7838Y-6915D01*
X7284Y-7284D01*
X6915Y-7838D01*
X6785Y-8491D01*
X6915Y-9144D01*
X7284Y-9697D01*
X7838Y-10067D01*
X8491Y-10197D01*
X9144Y-10067D01*
X9697Y-9697D01*
X10067Y-9144D01*
X10197Y-8491D01*
X10067Y-7838D01*
X9697Y-7284D01*
X9144Y-6915D01*
X8491Y-6785D01*
D02*
G37*
G36*
X-5429D02*
X-6081Y-6915D01*
X-6635Y-7284D01*
X-7005Y-7838D01*
X-7135Y-8491D01*
X-7005Y-9144D01*
X-6635Y-9697D01*
X-6081Y-10067D01*
X-5429Y-10197D01*
X-4776Y-10067D01*
X-4222Y-9697D01*
X-3852Y-9144D01*
X-3723Y-8491D01*
X-3852Y-7838D01*
X-4222Y-7284D01*
X-4776Y-6915D01*
X-5429Y-6785D01*
D02*
G37*
G36*
X-17947Y-8605D02*
X-18600Y-8735D01*
X-19153Y-9105D01*
X-19523Y-9658D01*
X-19653Y-10311D01*
X-19523Y-10964D01*
X-19153Y-11517D01*
X-18600Y-11887D01*
X-17947Y-12017D01*
X-17294Y-11887D01*
X-17071Y-11738D01*
X-16536Y-11864D01*
X-16166Y-12418D01*
X-15613Y-12788D01*
X-14960Y-12918D01*
X-14307Y-12788D01*
X-13754Y-12418D01*
X-13384Y-11864D01*
X-13254Y-11212D01*
X-13384Y-10559D01*
X-13754Y-10005D01*
X-14307Y-9635D01*
X-14960Y-9506D01*
X-15613Y-9635D01*
X-15836Y-9784D01*
X-16371Y-9658D01*
X-16740Y-9105D01*
X-17294Y-8735D01*
X-17947Y-8605D01*
D02*
G37*
G36*
X-24985Y-10613D02*
X-25638Y-10742D01*
X-26192Y-11112D01*
X-26561Y-11666D01*
X-26691Y-12319D01*
X-26561Y-12971D01*
X-26192Y-13525D01*
X-25638Y-13895D01*
X-24985Y-14025D01*
X-24332Y-13895D01*
X-23779Y-13525D01*
X-23409Y-12971D01*
X-23279Y-12319D01*
X-23409Y-11666D01*
X-23779Y-11112D01*
X-24332Y-10742D01*
X-24985Y-10613D01*
D02*
G37*
G36*
X-30553D02*
X-31206Y-10742D01*
X-31760Y-11112D01*
X-32129Y-11666D01*
X-32259Y-12319D01*
X-32129Y-12971D01*
X-31760Y-13525D01*
X-31206Y-13895D01*
X-30553Y-14025D01*
X-29900Y-13895D01*
X-29347Y-13525D01*
X-28977Y-12971D01*
X-28847Y-12319D01*
X-28977Y-11666D01*
X-29347Y-11112D01*
X-29900Y-10742D01*
X-30553Y-10613D01*
D02*
G37*
G36*
X-36121D02*
X-36774Y-10742D01*
X-37327Y-11112D01*
X-37697Y-11666D01*
X-37827Y-12319D01*
X-37697Y-12971D01*
X-37327Y-13525D01*
X-36774Y-13895D01*
X-36121Y-14025D01*
X-35468Y-13895D01*
X-34915Y-13525D01*
X-34545Y-12971D01*
X-34415Y-12319D01*
X-34545Y-11666D01*
X-34915Y-11112D01*
X-35468Y-10742D01*
X-36121Y-10613D01*
D02*
G37*
G36*
X-18331Y-14728D02*
X-18984Y-14858D01*
X-19538Y-15228D01*
X-19907Y-15781D01*
X-19944Y-15967D01*
X-20500Y-16198D01*
X-20644Y-16102D01*
X-21297Y-15972D01*
X-21950Y-16102D01*
X-22503Y-16471D01*
X-22873Y-17025D01*
X-23003Y-17678D01*
X-22873Y-18330D01*
X-22503Y-18884D01*
X-21950Y-19254D01*
X-21297Y-19384D01*
X-20644Y-19254D01*
X-20090Y-18884D01*
X-19721Y-18330D01*
X-19684Y-18144D01*
X-19128Y-17914D01*
X-18984Y-18010D01*
X-18331Y-18140D01*
X-17679Y-18010D01*
X-17125Y-17640D01*
X-16755Y-17087D01*
X-16625Y-16434D01*
X-16755Y-15781D01*
X-17125Y-15228D01*
X-17679Y-14858D01*
X-18331Y-14728D01*
D02*
G37*
G36*
X8049Y-14330D02*
X7396Y-14459D01*
X6843Y-14829D01*
X6473Y-15383D01*
X6343Y-16036D01*
X6473Y-16689D01*
X6843Y-17242D01*
X7396Y-17612D01*
X8049Y-17742D01*
X8702Y-17612D01*
X9256Y-17242D01*
X9625Y-16689D01*
X9755Y-16036D01*
X9625Y-15383D01*
X9256Y-14829D01*
X8702Y-14459D01*
X8049Y-14330D01*
D02*
G37*
G36*
X-9347Y-16716D02*
X-10000Y-16846D01*
X-10554Y-17216D01*
X-10924Y-17770D01*
X-11054Y-18422D01*
X-10924Y-19075D01*
X-10554Y-19629D01*
X-10000Y-19998D01*
X-9347Y-20128D01*
X-8695Y-19998D01*
X-8141Y-19629D01*
X-7771Y-19075D01*
X-7642Y-18422D01*
X-7771Y-17770D01*
X-8141Y-17216D01*
X-8695Y-16846D01*
X-9347Y-16716D01*
D02*
G37*
G36*
X-14568Y-17586D02*
X-15221Y-17716D01*
X-15774Y-18086D01*
X-16144Y-18639D01*
X-16274Y-19292D01*
X-16144Y-19945D01*
X-15774Y-20499D01*
X-15221Y-20868D01*
X-14568Y-20998D01*
X-13915Y-20868D01*
X-13361Y-20499D01*
X-12991Y-19945D01*
X-12862Y-19292D01*
X-12991Y-18639D01*
X-13361Y-18086D01*
X-13915Y-17716D01*
X-14568Y-17586D01*
D02*
G37*
G36*
X-37008Y-17979D02*
X-37661Y-18109D01*
X-38214Y-18479D01*
X-38584Y-19032D01*
X-38714Y-19685D01*
X-38584Y-20338D01*
X-38214Y-20891D01*
X-37661Y-21261D01*
X-37008Y-21391D01*
X-36355Y-21261D01*
X-35802Y-20891D01*
X-35432Y-20338D01*
X-35302Y-19685D01*
X-35432Y-19032D01*
X-35802Y-18479D01*
X-36355Y-18109D01*
X-37008Y-17979D01*
D02*
G37*
G36*
X-46063Y-30971D02*
X-46716Y-31101D01*
X-47269Y-31471D01*
X-47639Y-32024D01*
X-47769Y-32677D01*
X-47639Y-33330D01*
X-47269Y-33884D01*
X-46716Y-34253D01*
X-46063Y-34383D01*
X-45410Y-34253D01*
X-44857Y-33884D01*
X-44487Y-33330D01*
X-44357Y-32677D01*
X-44487Y-32024D01*
X-44857Y-31471D01*
X-45410Y-31101D01*
X-46063Y-30971D01*
D02*
G37*
G36*
X11024Y31627D02*
X10371Y31497D01*
X9817Y31128D01*
X9448Y30574D01*
X9318Y29921D01*
X9448Y29268D01*
X9817Y28715D01*
X10371Y28345D01*
X11024Y28215D01*
X11676Y28345D01*
X12230Y28715D01*
X12600Y29268D01*
X12730Y29921D01*
X12600Y30574D01*
X12230Y31128D01*
X11676Y31497D01*
X11024Y31627D01*
D02*
G37*
G36*
X15748Y27690D02*
X15095Y27560D01*
X14542Y27191D01*
X14172Y26637D01*
X14042Y25984D01*
X14172Y25331D01*
X14542Y24778D01*
X15095Y24408D01*
X15748Y24278D01*
X16401Y24408D01*
X16954Y24778D01*
X17324Y25331D01*
X17454Y25984D01*
X17324Y26637D01*
X16954Y27191D01*
X16401Y27560D01*
X15748Y27690D01*
D02*
G37*
G36*
X31179Y22724D02*
X30527Y22594D01*
X29973Y22225D01*
X29603Y21671D01*
X29474Y21018D01*
X29603Y20366D01*
X29973Y19812D01*
X30527Y19442D01*
X31179Y19312D01*
X31832Y19442D01*
X32386Y19812D01*
X32756Y20366D01*
X32886Y21018D01*
X32756Y21671D01*
X32386Y22225D01*
X31832Y22594D01*
X31179Y22724D01*
D02*
G37*
G36*
X18110Y24541D02*
X17457Y24411D01*
X16904Y24041D01*
X16534Y23487D01*
X16404Y22835D01*
X16534Y22182D01*
X16904Y21628D01*
X17457Y21259D01*
X17923Y21166D01*
X18373Y20866D01*
X18503Y20213D01*
X18872Y19660D01*
X19426Y19290D01*
X20079Y19160D01*
X20732Y19290D01*
X21285Y19660D01*
X21655Y20213D01*
X21785Y20866D01*
X21655Y21519D01*
X21285Y22072D01*
X20732Y22442D01*
X20266Y22535D01*
X19816Y22835D01*
X19686Y23487D01*
X19317Y24041D01*
X18763Y24411D01*
X18110Y24541D01*
D02*
G37*
G36*
X27421Y17296D02*
X26768Y17166D01*
X26215Y16796D01*
X25845Y16243D01*
X25715Y15590D01*
X25845Y14937D01*
X26215Y14383D01*
X26768Y14014D01*
X27421Y13884D01*
X28074Y14014D01*
X28628Y14383D01*
X28997Y14937D01*
X29127Y15590D01*
X28997Y16243D01*
X28628Y16796D01*
X28074Y17166D01*
X27421Y17296D01*
D02*
G37*
G36*
X24568Y13746D02*
X23915Y13616D01*
X23361Y13247D01*
X22992Y12693D01*
X22862Y12040D01*
X22992Y11387D01*
X23361Y10834D01*
X23915Y10464D01*
X24568Y10334D01*
X25221Y10464D01*
X25774Y10834D01*
X26144Y11387D01*
X26274Y12040D01*
X26144Y12693D01*
X25774Y13247D01*
X25221Y13616D01*
X24568Y13746D01*
D02*
G37*
G36*
X29921Y13517D02*
X29268Y13387D01*
X28715Y13017D01*
X28345Y12464D01*
X28215Y11811D01*
X28345Y11158D01*
X28715Y10605D01*
X29268Y10235D01*
X29921Y10105D01*
X30574Y10235D01*
X31128Y10605D01*
X31497Y11158D01*
X31627Y11811D01*
X31497Y12464D01*
X31128Y13017D01*
X30574Y13387D01*
X29921Y13517D01*
D02*
G37*
G36*
X32432Y9918D02*
X31779Y9789D01*
X31226Y9419D01*
X30856Y8865D01*
X30726Y8212D01*
X30856Y7560D01*
X31226Y7006D01*
X31779Y6636D01*
X32432Y6506D01*
X33085Y6636D01*
X33639Y7006D01*
X34008Y7560D01*
X34138Y8212D01*
X34008Y8865D01*
X33639Y9419D01*
X33085Y9789D01*
X32432Y9918D01*
D02*
G37*
G36*
X26383Y-3792D02*
X25730Y-3922D01*
X25177Y-4292D01*
X24807Y-4845D01*
X24677Y-5498D01*
X24807Y-6151D01*
X25177Y-6704D01*
X25730Y-7074D01*
X26383Y-7204D01*
X27036Y-7074D01*
X27589Y-6704D01*
X27959Y-6151D01*
X28089Y-5498D01*
X27959Y-4845D01*
X27589Y-4292D01*
X27036Y-3922D01*
X26383Y-3792D01*
D02*
G37*
G36*
X30901Y-3862D02*
X30248Y-3992D01*
X29695Y-4361D01*
X29325Y-4915D01*
X29195Y-5568D01*
X29325Y-6221D01*
X29695Y-6774D01*
X30028Y-6996D01*
X30244Y-7168D01*
X30156Y-7635D01*
X30021Y-7838D01*
X29891Y-8491D01*
X30021Y-9144D01*
X30391Y-9697D01*
X30944Y-10067D01*
X31597Y-10197D01*
X32250Y-10067D01*
X32803Y-9697D01*
X33173Y-9144D01*
X33303Y-8491D01*
X33173Y-7838D01*
X32803Y-7284D01*
X32471Y-7062D01*
X32254Y-6891D01*
X32342Y-6423D01*
X32477Y-6221D01*
X32607Y-5568D01*
X32477Y-4915D01*
X32107Y-4361D01*
X31554Y-3992D01*
X30901Y-3862D01*
D02*
G37*
%LPD*%
D70*
X-14764Y34289D02*
D03*
X7874Y-22441D02*
D03*
X19871Y-5551D02*
D03*
X-40157Y-36220D02*
D03*
X-41732Y-32677D02*
D03*
X33465Y-27165D02*
D03*
X36220Y-20079D02*
D03*
X38976Y-12992D02*
D03*
X40945Y-6299D02*
D03*
X36469Y-2227D02*
D03*
X39740Y1044D02*
D03*
X-22441Y5225D02*
D03*
X-40945Y-19685D02*
D03*
X9449Y42126D02*
D03*
X15172Y32571D02*
D03*
X-46457Y13583D02*
D03*
X-13900Y2227D02*
D03*
X27282Y20601D02*
D03*
X26383Y-10509D02*
D03*
X33858Y-37402D02*
D03*
X29134Y-37402D02*
D03*
X24409D02*
D03*
X33858Y-32677D02*
D03*
X29134D02*
D03*
X24409D02*
D03*
X30762Y17121D02*
D03*
X38418Y9326D02*
D03*
X19835Y28048D02*
D03*
M02*
