G04*
G04 #@! TF.GenerationSoftware,Altium Limited,Altium Designer,21.0.8 (223)*
G04*
G04 Layer_Color=65535*
%FSLAX25Y25*%
%MOIN*%
G70*
G04*
G04 #@! TF.SameCoordinates,DAC18CA6-1256-4E10-BBFD-4CDD4F333C27*
G04*
G04*
G04 #@! TF.FilePolarity,Positive*
G04*
G01*
G75*
%ADD10C,0.00500*%
%ADD11C,0.00787*%
%ADD12C,0.01000*%
D10*
X413Y28328D02*
X1261Y27480D01*
X2676Y30591D02*
X3524Y29743D01*
X-49114Y4921D02*
X-48327Y4134D01*
X-49114Y4921D02*
Y8465D01*
X-48425Y4232D02*
X-47835Y3642D01*
X-45079D01*
X-49114Y12008D02*
Y16339D01*
X-48327Y4134D02*
X-44587Y4134D01*
X-45079Y3642D02*
X-44390Y4331D01*
X-44587Y4134D02*
X-43799Y4921D01*
Y8465D01*
X-49114Y16339D02*
X-43799Y16339D01*
Y12008D02*
Y16339D01*
X43899Y-8863D02*
Y-3735D01*
X45077Y-8863D02*
Y-3735D01*
X-7272Y-20576D02*
Y-16826D01*
X-8672Y-20576D02*
Y-16826D01*
X12099Y-15594D02*
X14750Y-18246D01*
X13089Y-14604D02*
X15740Y-17256D01*
X22336Y-12384D02*
Y-8634D01*
X23737Y-12384D02*
Y-8634D01*
Y-7373D02*
Y-3623D01*
X22336Y-7373D02*
Y-3623D01*
X31734Y-3336D02*
X35360Y-6962D01*
X32567Y-2503D02*
X36193Y-6129D01*
X40849Y5779D02*
X44475Y2153D01*
X40016Y4946D02*
X43642Y1320D01*
X37597Y-29729D02*
Y-24602D01*
X36419D02*
X36419Y-29729D01*
X43109Y-15556D02*
X43109Y-10428D01*
X41931Y-15556D02*
Y-10428D01*
X40353Y-22643D02*
Y-17515D01*
X39175Y-22643D02*
Y-17515D01*
X16714Y17006D02*
X17563Y16158D01*
X14452Y14743D02*
X15300Y13895D01*
X22038Y7158D02*
X22886Y6309D01*
X24300Y9420D02*
X25149Y8572D01*
D11*
X19348Y34938D02*
X20462Y33824D01*
X19348Y32711D02*
X20462Y33824D01*
X41828Y10231D02*
X42941Y11344D01*
X41828Y12458D02*
X42941Y11344D01*
X30762Y21297D02*
X31876Y22410D01*
X30762Y23524D02*
X31876Y22410D01*
D12*
X-21498Y3092D02*
Y4666D01*
X13342Y-12555D02*
X15311Y-12555D01*
M02*
