G04*
G04 #@! TF.GenerationSoftware,Altium Limited,Altium Designer,20.2.5 (213)*
G04*
G04 Layer_Physical_Order=1*
G04 Layer_Color=255*
%FSLAX25Y25*%
%MOIN*%
G70*
G04*
G04 #@! TF.SameCoordinates,6A220F91-A522-4A6E-AAF5-B6834703FD54*
G04*
G04*
G04 #@! TF.FilePolarity,Positive*
G04*
G01*
G75*
%ADD11C,0.00787*%
%ADD39C,0.07874*%
%ADD41C,0.01181*%
%ADD42C,0.01181*%
%ADD43C,0.00787*%
%ADD44R,0.03937X0.07874*%
G04:AMPARAMS|DCode=45|XSize=39.37mil|YSize=35.43mil|CornerRadius=4.43mil|HoleSize=0mil|Usage=FLASHONLY|Rotation=225.000|XOffset=0mil|YOffset=0mil|HoleType=Round|Shape=RoundedRectangle|*
%AMROUNDEDRECTD45*
21,1,0.03937,0.02657,0,0,225.0*
21,1,0.03051,0.03543,0,0,225.0*
1,1,0.00886,-0.02018,-0.00139*
1,1,0.00886,0.00139,0.02018*
1,1,0.00886,0.02018,0.00139*
1,1,0.00886,-0.00139,-0.02018*
%
%ADD45ROUNDEDRECTD45*%
G04:AMPARAMS|DCode=46|XSize=19.68mil|YSize=23.62mil|CornerRadius=1.97mil|HoleSize=0mil|Usage=FLASHONLY|Rotation=270.000|XOffset=0mil|YOffset=0mil|HoleType=Round|Shape=RoundedRectangle|*
%AMROUNDEDRECTD46*
21,1,0.01968,0.01968,0,0,270.0*
21,1,0.01575,0.02362,0,0,270.0*
1,1,0.00394,-0.00984,-0.00787*
1,1,0.00394,-0.00984,0.00787*
1,1,0.00394,0.00984,0.00787*
1,1,0.00394,0.00984,-0.00787*
%
%ADD46ROUNDEDRECTD46*%
G04:AMPARAMS|DCode=47|XSize=39.37mil|YSize=35.43mil|CornerRadius=4.43mil|HoleSize=0mil|Usage=FLASHONLY|Rotation=270.000|XOffset=0mil|YOffset=0mil|HoleType=Round|Shape=RoundedRectangle|*
%AMROUNDEDRECTD47*
21,1,0.03937,0.02657,0,0,270.0*
21,1,0.03051,0.03543,0,0,270.0*
1,1,0.00886,-0.01329,-0.01526*
1,1,0.00886,-0.01329,0.01526*
1,1,0.00886,0.01329,0.01526*
1,1,0.00886,0.01329,-0.01526*
%
%ADD47ROUNDEDRECTD47*%
%ADD48R,0.07874X0.07874*%
%ADD49R,0.01181X0.03150*%
%ADD50R,0.01575X0.03150*%
G04:AMPARAMS|DCode=51|XSize=19.68mil|YSize=23.62mil|CornerRadius=1.97mil|HoleSize=0mil|Usage=FLASHONLY|Rotation=180.000|XOffset=0mil|YOffset=0mil|HoleType=Round|Shape=RoundedRectangle|*
%AMROUNDEDRECTD51*
21,1,0.01968,0.01968,0,0,180.0*
21,1,0.01575,0.02362,0,0,180.0*
1,1,0.00394,-0.00787,0.00984*
1,1,0.00394,0.00787,0.00984*
1,1,0.00394,0.00787,-0.00984*
1,1,0.00394,-0.00787,-0.00984*
%
%ADD51ROUNDEDRECTD51*%
G04:AMPARAMS|DCode=52|XSize=31.5mil|YSize=31.5mil|CornerRadius=3.94mil|HoleSize=0mil|Usage=FLASHONLY|Rotation=270.000|XOffset=0mil|YOffset=0mil|HoleType=Round|Shape=RoundedRectangle|*
%AMROUNDEDRECTD52*
21,1,0.03150,0.02362,0,0,270.0*
21,1,0.02362,0.03150,0,0,270.0*
1,1,0.00787,-0.01181,-0.01181*
1,1,0.00787,-0.01181,0.01181*
1,1,0.00787,0.01181,0.01181*
1,1,0.00787,0.01181,-0.01181*
%
%ADD52ROUNDEDRECTD52*%
G04:AMPARAMS|DCode=53|XSize=23.62mil|YSize=23.62mil|CornerRadius=2.36mil|HoleSize=0mil|Usage=FLASHONLY|Rotation=0.000|XOffset=0mil|YOffset=0mil|HoleType=Round|Shape=RoundedRectangle|*
%AMROUNDEDRECTD53*
21,1,0.02362,0.01890,0,0,0.0*
21,1,0.01890,0.02362,0,0,0.0*
1,1,0.00472,0.00945,-0.00945*
1,1,0.00472,-0.00945,-0.00945*
1,1,0.00472,-0.00945,0.00945*
1,1,0.00472,0.00945,0.00945*
%
%ADD53ROUNDEDRECTD53*%
G04:AMPARAMS|DCode=54|XSize=19.68mil|YSize=23.62mil|CornerRadius=1.97mil|HoleSize=0mil|Usage=FLASHONLY|Rotation=135.000|XOffset=0mil|YOffset=0mil|HoleType=Round|Shape=RoundedRectangle|*
%AMROUNDEDRECTD54*
21,1,0.01968,0.01968,0,0,135.0*
21,1,0.01575,0.02362,0,0,135.0*
1,1,0.00394,0.00139,0.01253*
1,1,0.00394,0.01253,0.00139*
1,1,0.00394,-0.00139,-0.01253*
1,1,0.00394,-0.01253,-0.00139*
%
%ADD54ROUNDEDRECTD54*%
%ADD55P,0.02506X4X180.0*%
G04:AMPARAMS|DCode=56|XSize=100.39mil|YSize=22.28mil|CornerRadius=0mil|HoleSize=0mil|Usage=FLASHONLY|Rotation=135.000|XOffset=0mil|YOffset=0mil|HoleType=Round|Shape=Rectangle|*
%AMROTATEDRECTD56*
4,1,4,0.04337,-0.02762,0.02762,-0.04337,-0.04337,0.02762,-0.02762,0.04337,0.04337,-0.02762,0.0*
%
%ADD56ROTATEDRECTD56*%

G04:AMPARAMS|DCode=57|XSize=100.39mil|YSize=41.1mil|CornerRadius=0mil|HoleSize=0mil|Usage=FLASHONLY|Rotation=135.000|XOffset=0mil|YOffset=0mil|HoleType=Round|Shape=Rectangle|*
%AMROTATEDRECTD57*
4,1,4,0.05003,-0.02096,0.02096,-0.05003,-0.05003,0.02096,-0.02096,0.05003,0.05003,-0.02096,0.0*
%
%ADD57ROTATEDRECTD57*%

G04:AMPARAMS|DCode=58|XSize=55.12mil|YSize=39.37mil|CornerRadius=4.92mil|HoleSize=0mil|Usage=FLASHONLY|Rotation=90.000|XOffset=0mil|YOffset=0mil|HoleType=Round|Shape=RoundedRectangle|*
%AMROUNDEDRECTD58*
21,1,0.05512,0.02953,0,0,90.0*
21,1,0.04528,0.03937,0,0,90.0*
1,1,0.00984,0.01476,0.02264*
1,1,0.00984,0.01476,-0.02264*
1,1,0.00984,-0.01476,-0.02264*
1,1,0.00984,-0.01476,0.02264*
%
%ADD58ROUNDEDRECTD58*%
G04:AMPARAMS|DCode=59|XSize=11.81mil|YSize=23.62mil|CornerRadius=1.18mil|HoleSize=0mil|Usage=FLASHONLY|Rotation=0.000|XOffset=0mil|YOffset=0mil|HoleType=Round|Shape=RoundedRectangle|*
%AMROUNDEDRECTD59*
21,1,0.01181,0.02126,0,0,0.0*
21,1,0.00945,0.02362,0,0,0.0*
1,1,0.00236,0.00472,-0.01063*
1,1,0.00236,-0.00472,-0.01063*
1,1,0.00236,-0.00472,0.01063*
1,1,0.00236,0.00472,0.01063*
%
%ADD59ROUNDEDRECTD59*%
G04:AMPARAMS|DCode=60|XSize=11.81mil|YSize=23.62mil|CornerRadius=1.18mil|HoleSize=0mil|Usage=FLASHONLY|Rotation=270.000|XOffset=0mil|YOffset=0mil|HoleType=Round|Shape=RoundedRectangle|*
%AMROUNDEDRECTD60*
21,1,0.01181,0.02126,0,0,270.0*
21,1,0.00945,0.02362,0,0,270.0*
1,1,0.00236,-0.01063,-0.00472*
1,1,0.00236,-0.01063,0.00472*
1,1,0.00236,0.01063,0.00472*
1,1,0.00236,0.01063,-0.00472*
%
%ADD60ROUNDEDRECTD60*%
%ADD61R,0.13583X0.13583*%
%ADD62R,0.15748X0.07874*%
%ADD63R,0.11811X0.07874*%
G04:AMPARAMS|DCode=64|XSize=19.68mil|YSize=23.62mil|CornerRadius=1.97mil|HoleSize=0mil|Usage=FLASHONLY|Rotation=45.000|XOffset=0mil|YOffset=0mil|HoleType=Round|Shape=RoundedRectangle|*
%AMROUNDEDRECTD64*
21,1,0.01968,0.01968,0,0,45.0*
21,1,0.01575,0.02362,0,0,45.0*
1,1,0.00394,0.01253,-0.00139*
1,1,0.00394,0.00139,-0.01253*
1,1,0.00394,-0.01253,0.00139*
1,1,0.00394,-0.00139,0.01253*
%
%ADD64ROUNDEDRECTD64*%
G04:AMPARAMS|DCode=65|XSize=39.37mil|YSize=35.43mil|CornerRadius=4.43mil|HoleSize=0mil|Usage=FLASHONLY|Rotation=315.000|XOffset=0mil|YOffset=0mil|HoleType=Round|Shape=RoundedRectangle|*
%AMROUNDEDRECTD65*
21,1,0.03937,0.02657,0,0,315.0*
21,1,0.03051,0.03543,0,0,315.0*
1,1,0.00886,0.00139,-0.02018*
1,1,0.00886,-0.02018,0.00139*
1,1,0.00886,-0.00139,0.02018*
1,1,0.00886,0.02018,-0.00139*
%
%ADD65ROUNDEDRECTD65*%
G04:AMPARAMS|DCode=66|XSize=55.12mil|YSize=39.37mil|CornerRadius=4.92mil|HoleSize=0mil|Usage=FLASHONLY|Rotation=315.000|XOffset=0mil|YOffset=0mil|HoleType=Round|Shape=RoundedRectangle|*
%AMROUNDEDRECTD66*
21,1,0.05512,0.02953,0,0,315.0*
21,1,0.04528,0.03937,0,0,315.0*
1,1,0.00984,0.00557,-0.02645*
1,1,0.00984,-0.02645,0.00557*
1,1,0.00984,-0.00557,0.02645*
1,1,0.00984,0.02645,-0.00557*
%
%ADD66ROUNDEDRECTD66*%
G04:AMPARAMS|DCode=67|XSize=23.62mil|YSize=23.62mil|CornerRadius=2.36mil|HoleSize=0mil|Usage=FLASHONLY|Rotation=90.000|XOffset=0mil|YOffset=0mil|HoleType=Round|Shape=RoundedRectangle|*
%AMROUNDEDRECTD67*
21,1,0.02362,0.01890,0,0,90.0*
21,1,0.01890,0.02362,0,0,90.0*
1,1,0.00472,0.00945,0.00945*
1,1,0.00472,0.00945,-0.00945*
1,1,0.00472,-0.00945,-0.00945*
1,1,0.00472,-0.00945,0.00945*
%
%ADD67ROUNDEDRECTD67*%
%ADD68R,0.16339X0.16339*%
%ADD69C,0.09449*%
%ADD70C,0.01772*%
G36*
X6077Y37825D02*
X6077Y37117D01*
X3396Y34437D01*
Y34437D01*
X3232Y33895D01*
X2287Y32950D01*
X2206Y32828D01*
X1810Y32432D01*
X2052Y32190D01*
Y31644D01*
X1571Y31496D01*
X-787D01*
Y30476D01*
X-953Y30443D01*
X-1344Y30182D01*
X-1605Y29792D01*
X-1696Y29331D01*
Y26266D01*
X-8037Y19926D01*
X-8298Y19535D01*
X-8389Y19075D01*
X-8389Y19075D01*
Y15866D01*
X-9547D01*
X-9931Y15789D01*
X-10257Y15572D01*
X-10474Y15246D01*
X-10551Y14862D01*
Y13287D01*
X-10474Y12903D01*
X-10257Y12578D01*
X-9931Y12360D01*
X-9547Y12284D01*
X-8531D01*
Y11484D01*
X-8653Y11303D01*
X-8723Y10949D01*
Y9213D01*
X-8806Y8806D01*
X-9213Y8723D01*
X-10949D01*
X-11303Y8653D01*
X-11602Y8452D01*
X-11802Y8153D01*
X-11810Y8115D01*
X-12358Y7924D01*
X-17707Y12459D01*
X-17800Y12511D01*
X-17869Y12592D01*
X-21545Y15473D01*
X-21655Y15529D01*
X-22029Y15816D01*
X-23035Y16232D01*
X-24114Y16374D01*
Y16362D01*
X-25689D01*
Y16374D01*
X-26310Y16293D01*
X-26432Y16295D01*
X-35006Y14746D01*
X-35084Y14715D01*
X-35215Y14698D01*
X-35838Y14440D01*
X-36372Y14030D01*
X-36761Y13523D01*
X-36780Y13502D01*
X-36950Y13209D01*
X-37657D01*
X-38057Y13130D01*
X-38396Y12903D01*
X-38622Y12565D01*
X-38701Y12165D01*
Y10276D01*
X-38659Y10062D01*
X-38681Y10039D01*
Y9514D01*
X-38976Y9271D01*
X-40422D01*
X-40826Y9571D01*
Y10492D01*
X-40906Y10892D01*
X-41060Y11122D01*
X-40906Y11353D01*
X-40826Y11752D01*
Y13642D01*
X-40869Y13856D01*
X-40846Y13878D01*
Y15453D01*
X-40869Y15475D01*
X-40826Y15689D01*
Y17278D01*
X-29981Y31738D01*
X-29961Y31723D01*
X-29709Y31960D01*
X-29318Y32255D01*
X-26285Y34290D01*
X-26282Y34290D01*
X-26268Y34269D01*
X-26050Y34414D01*
X-26054Y34421D01*
X-26053Y34424D01*
X-20557Y37138D01*
X-20548Y37120D01*
X-19999Y37347D01*
X-19216Y37450D01*
X-19120Y37437D01*
X-19119Y37448D01*
X-19117Y37449D01*
X-14681Y37316D01*
X-14678Y37314D01*
X-14679Y37305D01*
X-14555Y37289D01*
X-14554Y37308D01*
X-14551Y37310D01*
X-10134Y37012D01*
X-9806Y36990D01*
X-9646Y36962D01*
Y36985D01*
X-8071D01*
Y36962D01*
X-7629Y37026D01*
X-7591Y37033D01*
X3929Y39204D01*
X3932Y39203D01*
X3936Y39181D01*
X3955Y39189D01*
X3954Y39206D01*
X3956Y39208D01*
X4654Y39247D01*
X6077Y37825D01*
D02*
G37*
G36*
X17090Y36856D02*
X14894Y34659D01*
X16413Y33141D01*
X16422Y33126D01*
X16893Y32655D01*
X15056Y30817D01*
X7416Y38457D01*
X6998Y38039D01*
X5052Y39985D01*
X5052Y40485D01*
X9256Y44689D01*
X17090Y36856D01*
D02*
G37*
G36*
X25600Y28346D02*
X25808Y27843D01*
X26691Y26691D01*
X27843Y25808D01*
X28069Y25714D01*
X28200Y25138D01*
X26308Y23246D01*
X28674Y20879D01*
X29006Y21211D01*
X29542Y20675D01*
X29603Y20366D01*
X29973Y19812D01*
X30527Y19442D01*
X31179Y19312D01*
X31832Y19442D01*
X32386Y19812D01*
X32756Y20366D01*
X32775Y20463D01*
X33318Y20628D01*
X33951Y19995D01*
X34160Y19491D01*
X35043Y18340D01*
X36195Y17456D01*
X36698Y17248D01*
X39570Y14376D01*
X37374Y12179D01*
X39600Y9953D01*
Y8871D01*
X38575Y7846D01*
X38109Y7764D01*
X29896Y15977D01*
X29478Y15559D01*
X29048Y15989D01*
X28997Y16243D01*
X28628Y16796D01*
X28074Y17166D01*
X27821Y17216D01*
X26625Y18412D01*
X27043Y18830D01*
X18830Y27043D01*
X18412Y26625D01*
X16341Y28696D01*
X18624Y30979D01*
X18847Y30957D01*
X19961Y29844D01*
X20286Y29626D01*
X20670Y29550D01*
X21054Y29626D01*
X21380Y29844D01*
X22741Y31205D01*
X25600Y28346D01*
D02*
G37*
G36*
X9025Y28808D02*
X7480Y27264D01*
X4232Y24016D01*
X2820Y25428D01*
X3081Y25690D01*
X3343Y26080D01*
X3434Y26541D01*
X3343Y27002D01*
X3081Y27393D01*
X2866Y27536D01*
X2854Y27657D01*
Y31437D01*
X2875Y31541D01*
X2854Y31644D01*
Y32382D01*
X4153Y33680D01*
X9025Y28808D01*
D02*
G37*
G36*
X17753Y20075D02*
X17768Y20065D01*
X20309Y17525D01*
X19209Y16425D01*
X14457D01*
X14353Y16580D01*
X13963Y16842D01*
X13502Y16933D01*
X13041Y16842D01*
X12650Y16580D01*
X12511Y16441D01*
X11152Y17801D01*
X15590Y22239D01*
X17753Y20075D01*
D02*
G37*
G36*
X31131Y6702D02*
X31141Y6687D01*
X31511Y6317D01*
X29866Y4672D01*
X28105D01*
X27644Y4580D01*
X27254Y4319D01*
X27254Y4319D01*
X25973Y3039D01*
X25603D01*
X24736Y3906D01*
X24670Y4463D01*
X24931Y4854D01*
X25023Y5315D01*
X24931Y5776D01*
X24670Y6166D01*
X24409Y6341D01*
Y9376D01*
X26433Y11400D01*
X31131Y6702D01*
D02*
G37*
G36*
X-14464Y4487D02*
X-14636Y4018D01*
X-14884D01*
X-15268Y3942D01*
X-15594Y3724D01*
X-15811Y3399D01*
X-15887Y3015D01*
Y1576D01*
X-16247Y1100D01*
X-16936Y1147D01*
X-17001Y1139D01*
X-17178Y1162D01*
X-18077Y1044D01*
X-18915Y697D01*
X-19635Y145D01*
X-19635Y145D01*
Y135D01*
X-20156Y-386D01*
X-20186Y-386D01*
X-20667Y-431D01*
X-20708Y-434D01*
X-22364D01*
X-22717Y-504D01*
X-23017Y-704D01*
X-23217Y-1004D01*
X-23287Y-1357D01*
Y-2302D01*
X-23217Y-2655D01*
X-23111Y-2814D01*
X-23217Y-2972D01*
X-23287Y-3326D01*
Y-4271D01*
X-23217Y-4624D01*
X-23111Y-4782D01*
X-23217Y-4941D01*
X-23287Y-5294D01*
Y-6239D01*
X-23217Y-6592D01*
X-23111Y-6751D01*
X-23217Y-6909D01*
X-23287Y-7263D01*
Y-8208D01*
X-23217Y-8561D01*
X-23111Y-8719D01*
X-23217Y-8878D01*
X-23287Y-9231D01*
Y-10176D01*
X-23217Y-10529D01*
X-23111Y-10688D01*
X-23217Y-10846D01*
X-23287Y-11200D01*
Y-12145D01*
X-23217Y-12498D01*
X-23111Y-12656D01*
X-23217Y-12815D01*
X-23287Y-13168D01*
Y-14017D01*
X-24136D01*
X-24489Y-14087D01*
X-24648Y-14193D01*
X-24806Y-14087D01*
X-25159Y-14017D01*
X-26104D01*
X-26458Y-14087D01*
X-26616Y-14193D01*
X-26775Y-14087D01*
X-27128Y-14017D01*
X-28073D01*
X-28426Y-14087D01*
X-28585Y-14193D01*
X-28743Y-14087D01*
X-29096Y-14017D01*
X-30041D01*
X-30395Y-14087D01*
X-30553Y-14193D01*
X-30712Y-14087D01*
X-31065Y-14017D01*
X-32010D01*
X-32363Y-14087D01*
X-32522Y-14193D01*
X-32680Y-14087D01*
X-33033Y-14017D01*
X-33978D01*
X-34332Y-14087D01*
X-34490Y-14193D01*
X-34649Y-14087D01*
X-35002Y-14017D01*
X-35947D01*
X-36300Y-14087D01*
X-36459Y-14193D01*
X-36617Y-14087D01*
X-36970Y-14017D01*
X-37915D01*
X-38269Y-14087D01*
X-38568Y-14287D01*
X-38768Y-14586D01*
X-38839Y-14940D01*
Y-15474D01*
X-39027Y-15600D01*
X-40839Y-17412D01*
X-41339Y-17205D01*
Y-16535D01*
X-41361Y-16513D01*
X-41319Y-16299D01*
Y-14410D01*
X-41398Y-14010D01*
X-41624Y-13671D01*
X-41648Y-13656D01*
X-41592Y-13573D01*
X-41516Y-13189D01*
Y-13077D01*
X-39805D01*
X-39759Y-13068D01*
X-38742D01*
X-38389Y-12998D01*
X-38089Y-12797D01*
X-37889Y-12498D01*
X-37819Y-12145D01*
Y-11200D01*
X-37889Y-10846D01*
X-38089Y-10547D01*
X-38389Y-10347D01*
X-38742Y-10277D01*
X-39759D01*
X-39805Y-10267D01*
X-42267D01*
X-42520Y-10217D01*
X-43849D01*
X-44338Y-9818D01*
X-44276Y-7544D01*
X-44106Y-7133D01*
X-44099Y-7126D01*
X-44099Y-7118D01*
X-44096Y-7110D01*
X-42203Y-7049D01*
X-41791Y-7536D01*
Y-8208D01*
X-41721Y-8561D01*
X-41521Y-8860D01*
X-41221Y-9061D01*
X-40868Y-9131D01*
X-38742D01*
X-38389Y-9061D01*
X-38089Y-8860D01*
X-37889Y-8561D01*
X-37819Y-8208D01*
Y-7263D01*
X-37889Y-6909D01*
X-37995Y-6751D01*
X-37889Y-6592D01*
X-37819Y-6239D01*
Y-5294D01*
X-37889Y-4941D01*
X-37995Y-4782D01*
X-37889Y-4624D01*
X-37819Y-4271D01*
Y-3326D01*
X-37889Y-2972D01*
X-37995Y-2814D01*
X-37889Y-2655D01*
X-37819Y-2302D01*
Y-1357D01*
X-37889Y-1004D01*
X-37995Y-845D01*
X-37889Y-687D01*
X-37819Y-334D01*
Y515D01*
X-36970D01*
X-36617Y585D01*
X-36459Y691D01*
X-36300Y585D01*
X-35947Y515D01*
X-35002D01*
X-34649Y585D01*
X-34490Y691D01*
X-34332Y585D01*
X-33978Y515D01*
X-33033D01*
X-32680Y585D01*
X-32522Y691D01*
X-32363Y585D01*
X-32010Y515D01*
X-31065D01*
X-30712Y585D01*
X-30553Y691D01*
X-30395Y585D01*
X-30041Y515D01*
X-29096D01*
X-28743Y585D01*
X-28585Y691D01*
X-28426Y585D01*
X-28073Y515D01*
X-27128D01*
X-26775Y585D01*
X-26616Y691D01*
X-26458Y585D01*
X-26104Y515D01*
X-25159D01*
X-24806Y585D01*
X-24648Y691D01*
X-24489Y585D01*
X-24136Y515D01*
X-23191D01*
X-22838Y585D01*
X-22538Y785D01*
X-22338Y1085D01*
X-22268Y1438D01*
Y2073D01*
X-21333Y3524D01*
X-20866D01*
X-20482Y3600D01*
X-20156Y3818D01*
X-19939Y4143D01*
X-19863Y4528D01*
Y6102D01*
X-19939Y6486D01*
X-20156Y6812D01*
X-19965Y7285D01*
X-19773Y7413D01*
X-19403Y7967D01*
X-19379Y8089D01*
X-18907Y8254D01*
X-14464Y4487D01*
D02*
G37*
G36*
X28083Y-3649D02*
X28083Y-3649D01*
X28179Y-4129D01*
X28187Y-4149D01*
X28224Y-4337D01*
X28398Y-4598D01*
X28659Y-4772D01*
X28659Y-4772D01*
X29121Y-4963D01*
X29121Y-4963D01*
X29428Y-5024D01*
X29735Y-4963D01*
X29996Y-4789D01*
X30490Y-4295D01*
X30715Y-4144D01*
X30901Y-4107D01*
X31087Y-4144D01*
X31312Y-4295D01*
X34402Y-7384D01*
X34552Y-7609D01*
X34589Y-7795D01*
X34552Y-7981D01*
X34402Y-8206D01*
X32425Y-10182D01*
X32201Y-10332D01*
X32015Y-10369D01*
X31829Y-10332D01*
X31604Y-10182D01*
X28926Y-7504D01*
X28860Y-7460D01*
X28804Y-7404D01*
X28731Y-7373D01*
X28666Y-7330D01*
X28588Y-7314D01*
X28515Y-7284D01*
X28436D01*
X28358Y-7269D01*
X28281Y-7284D01*
X28202D01*
X28129Y-7314D01*
X28051Y-7330D01*
X27985Y-7374D01*
X27912Y-7404D01*
X27878Y-7426D01*
X27633Y-7475D01*
X25133D01*
X24888Y-7426D01*
X24746Y-7332D01*
X24652Y-7190D01*
X24603Y-6945D01*
Y-4027D01*
X24605Y-4018D01*
X24635Y-3924D01*
X24681Y-3857D01*
X24852Y-3649D01*
X25039Y-3553D01*
X27987D01*
X28083Y-3649D01*
D02*
G37*
G36*
X40879Y6117D02*
X40923Y6080D01*
X41184Y5689D01*
X43307Y3566D01*
X43307Y-9009D01*
X35433Y-31084D01*
X35433Y-39370D01*
X21654D01*
Y-31496D01*
X22441Y-30709D01*
Y-27014D01*
X23504Y-26874D01*
X24654Y-26398D01*
X25641Y-25641D01*
X26398Y-24654D01*
X26874Y-23504D01*
X27036Y-22271D01*
X26874Y-21038D01*
X26398Y-19888D01*
X25641Y-18902D01*
X24654Y-18144D01*
X23504Y-17668D01*
X22441Y-17528D01*
Y-12500D01*
X22224Y-12283D01*
X22273Y-12035D01*
Y-8984D01*
X22178Y-8503D01*
X21906Y-8096D01*
X21499Y-7825D01*
X21019Y-7729D01*
X18524D01*
X18509Y-7726D01*
X18429D01*
X16162Y-5459D01*
X15706Y-5154D01*
X15168Y-5047D01*
X12948D01*
X12902Y-5057D01*
X11885D01*
X11811Y-4996D01*
Y-3972D01*
X11885Y-3911D01*
X14011D01*
X14365Y-3841D01*
X14664Y-3641D01*
X14723Y-3553D01*
X23489D01*
X23807Y-3939D01*
X23800Y-3972D01*
Y-7024D01*
X23895Y-7504D01*
X24167Y-7911D01*
X24574Y-8183D01*
X25054Y-8278D01*
X27712D01*
X28192Y-8183D01*
X28358Y-8071D01*
X31092Y-10805D01*
X31515Y-11088D01*
X32015Y-11187D01*
X32514Y-11088D01*
X32937Y-10805D01*
X35025Y-8717D01*
X35308Y-8294D01*
X35407Y-7795D01*
X35308Y-7296D01*
X35025Y-6872D01*
X31824Y-3671D01*
X31400Y-3388D01*
X30901Y-3289D01*
X30402Y-3388D01*
X29979Y-3671D01*
X29428Y-4222D01*
X28966Y-4030D01*
Y-3972D01*
X28871Y-3492D01*
X28916Y-3263D01*
X29011Y-3200D01*
X29545Y-2666D01*
X32084D01*
X32545Y-2574D01*
X32936Y-2313D01*
X33197Y-1922D01*
X33288Y-1462D01*
X33197Y-1001D01*
X33181Y-977D01*
X33180Y-961D01*
X33422Y-437D01*
X33605Y-400D01*
X33996Y-140D01*
X40367Y6232D01*
X40879Y6117D01*
D02*
G37*
G36*
X-36315Y-18034D02*
X-36040Y-18444D01*
X-35981Y-18568D01*
X-32438Y-23292D01*
X-32425Y-23304D01*
X-31480Y-24410D01*
X-30450Y-25289D01*
X-30711Y-25725D01*
X-40384Y-21967D01*
X-40292Y-21476D01*
X-39961D01*
X-39577Y-21400D01*
X-39251Y-21182D01*
X-39033Y-20856D01*
X-38957Y-20472D01*
Y-19504D01*
X-37451Y-17998D01*
X-37443D01*
X-37396Y-17989D01*
X-36970D01*
X-36828Y-17961D01*
X-36315Y-18034D01*
D02*
G37*
G36*
X-0Y52347D02*
X2057D01*
X6157Y52024D01*
X10220Y51381D01*
X14220Y50420D01*
X18132Y49149D01*
X21932Y47575D01*
X25597Y45708D01*
X29105Y43558D01*
X32432Y41141D01*
X35560Y38469D01*
X38469Y35561D01*
X41141Y32433D01*
X43558Y29105D01*
X45708Y25598D01*
X47575Y21932D01*
X49149Y18132D01*
X50420Y14220D01*
X51381Y10220D01*
X52024Y6157D01*
X52347Y2057D01*
Y-0D01*
X52347Y-38567D01*
X43307Y-38567D01*
X43000Y-38628D01*
X42739Y-38802D01*
X42565Y-39063D01*
X42504Y-39370D01*
X42504Y-44866D01*
X-42504Y-44866D01*
X-42504Y-40157D01*
X-38189D01*
Y-40157D01*
X-37689Y-40157D01*
X-32677D01*
Y-40157D01*
X-32677Y-40157D01*
X-32177Y-40157D01*
X-21654D01*
Y-40157D01*
X-21154Y-40157D01*
X-16142D01*
Y-30709D01*
X-20149D01*
X-20355Y-30340D01*
X-20438Y-30241D01*
X-20738Y-29793D01*
X-21171Y-29503D01*
X-21519Y-29271D01*
X-21582Y-29258D01*
X-22048Y-29090D01*
X-25185Y-27871D01*
X-25073Y-27378D01*
X-24142Y-27452D01*
X-24142Y-27443D01*
X-21302Y-27445D01*
X-21302Y-27468D01*
X-21297Y-27469D01*
X-20714Y-27411D01*
X-20631Y-27422D01*
X-2595Y-26190D01*
X-2475Y-26158D01*
X-1835Y-26095D01*
X-712Y-25754D01*
X322Y-25201D01*
X1229Y-24457D01*
X1973Y-23551D01*
X2048Y-23410D01*
X2076Y-23380D01*
X7080Y-15337D01*
X7114Y-15246D01*
X7293Y-14979D01*
X7595Y-14864D01*
X7948Y-14935D01*
X8893D01*
X9247Y-14864D01*
X9546Y-14664D01*
X9746Y-14365D01*
X9816Y-14011D01*
Y-11885D01*
X9746Y-11532D01*
X9546Y-11233D01*
X9247Y-11033D01*
X8893Y-10962D01*
X7948D01*
X7595Y-11033D01*
X7437Y-11138D01*
X7278Y-11033D01*
X6925Y-10962D01*
X5980D01*
X5627Y-11033D01*
X5468Y-11138D01*
X5310Y-11033D01*
X4956Y-10962D01*
X4011D01*
X3658Y-11033D01*
X3500Y-11138D01*
X3341Y-11033D01*
X2988Y-10962D01*
X2043D01*
X1690Y-11033D01*
X1531Y-11138D01*
X1373Y-11033D01*
X1019Y-10962D01*
X74D01*
X-279Y-11033D01*
X-437Y-11138D01*
X-596Y-11033D01*
X-949Y-10962D01*
X-1894D01*
X-2247Y-11033D01*
X-2406Y-11138D01*
X-2564Y-11033D01*
X-2918Y-10962D01*
X-3863D01*
X-4216Y-11033D01*
X-4515Y-11233D01*
X-4716Y-11532D01*
X-4786Y-11885D01*
Y-12902D01*
X-4795Y-12948D01*
Y-15921D01*
X-5660D01*
X-6140Y-16016D01*
X-6547Y-16288D01*
X-6818Y-16695D01*
X-6914Y-17175D01*
Y-20226D01*
X-6877Y-20411D01*
X-7221Y-20935D01*
X-14024Y-21400D01*
X-14090Y-20903D01*
X-13915Y-20868D01*
X-13361Y-20499D01*
X-12991Y-19945D01*
X-12862Y-19292D01*
X-12991Y-18639D01*
X-13361Y-18086D01*
X-13826Y-17775D01*
X-13970Y-17234D01*
X-11137Y-14708D01*
X-11027Y-14563D01*
X-10905Y-14429D01*
X-10844Y-14326D01*
X-10844Y-14326D01*
X-9319Y-11785D01*
X-9213D01*
X-8806Y-11868D01*
X-8723Y-12275D01*
Y-14011D01*
X-8653Y-14365D01*
X-8452Y-14664D01*
X-8153Y-14864D01*
X-7800Y-14935D01*
X-6855D01*
X-6501Y-14864D01*
X-6202Y-14664D01*
X-6002Y-14365D01*
X-5931Y-14011D01*
Y-11885D01*
X-6002Y-11532D01*
X-6202Y-11233D01*
X-6501Y-11033D01*
X-6855Y-10962D01*
X-7410D01*
X-7817Y-10879D01*
X-7900Y-10472D01*
Y-9917D01*
X-7970Y-9564D01*
X-8076Y-9405D01*
X-7970Y-9247D01*
X-7900Y-8893D01*
Y-7948D01*
X-7970Y-7595D01*
X-8076Y-7437D01*
X-7970Y-7278D01*
X-7900Y-6925D01*
Y-5980D01*
X-7970Y-5627D01*
X-8076Y-5468D01*
X-7970Y-5310D01*
X-7900Y-4956D01*
Y-4011D01*
X-7970Y-3658D01*
X-8076Y-3500D01*
X-7970Y-3341D01*
X-7900Y-2988D01*
Y-2043D01*
X-7970Y-1690D01*
X-8076Y-1531D01*
X-7970Y-1373D01*
X-7900Y-1019D01*
Y-74D01*
X-7970Y279D01*
X-8076Y437D01*
X-7970Y596D01*
X-7900Y949D01*
Y1894D01*
X-7970Y2247D01*
X-8076Y2406D01*
X-7970Y2564D01*
X-7900Y2918D01*
Y3863D01*
X-7970Y4216D01*
X-8076Y4374D01*
X-7970Y4533D01*
X-7900Y4886D01*
Y5831D01*
X-7970Y6184D01*
X-8076Y6343D01*
X-7970Y6501D01*
X-7900Y6855D01*
Y7410D01*
X-7817Y7817D01*
X-7410Y7900D01*
X-6855D01*
X-6501Y7970D01*
X-6343Y8076D01*
X-6184Y7970D01*
X-5831Y7900D01*
X-4886D01*
X-4533Y7970D01*
X-4374Y8076D01*
X-4216Y7970D01*
X-3863Y7900D01*
X-2918D01*
X-2564Y7970D01*
X-2406Y8076D01*
X-2247Y7970D01*
X-1894Y7900D01*
X-949D01*
X-596Y7970D01*
X-437Y8076D01*
X-279Y7970D01*
X74Y7900D01*
X1019D01*
X1373Y7970D01*
X1531Y8076D01*
X1690Y7970D01*
X2043Y7900D01*
X2988D01*
X3341Y7970D01*
X3500Y8076D01*
X3658Y7970D01*
X4011Y7900D01*
X4956D01*
X5310Y7970D01*
X5468Y8076D01*
X5627Y7970D01*
X5980Y7900D01*
X6925D01*
X7278Y7970D01*
X7437Y8076D01*
X7595Y7970D01*
X7948Y7900D01*
X8893D01*
X9247Y7970D01*
X9405Y8076D01*
X9564Y7970D01*
X9917Y7900D01*
X10472D01*
X10879Y7817D01*
X10962Y7410D01*
Y6855D01*
X11033Y6501D01*
X11138Y6343D01*
X11033Y6184D01*
X10962Y5831D01*
Y4886D01*
X11033Y4533D01*
X11138Y4374D01*
X11033Y4216D01*
X10962Y3863D01*
Y2918D01*
X11033Y2564D01*
X11138Y2406D01*
X11033Y2247D01*
X10962Y1894D01*
Y949D01*
X11033Y596D01*
X11138Y437D01*
X11033Y279D01*
X10962Y-74D01*
Y-1019D01*
X11033Y-1373D01*
X11138Y-1531D01*
X11033Y-1690D01*
X10962Y-2043D01*
Y-2988D01*
X11033Y-3341D01*
X11138Y-3500D01*
X11033Y-3658D01*
X10962Y-4011D01*
Y-4956D01*
X11033Y-5310D01*
X11138Y-5468D01*
X11033Y-5627D01*
X10962Y-5980D01*
Y-6925D01*
X11033Y-7278D01*
X11138Y-7437D01*
X11033Y-7595D01*
X10962Y-7948D01*
Y-8893D01*
X11033Y-9247D01*
X11138Y-9405D01*
X11033Y-9564D01*
X10962Y-9917D01*
Y-10343D01*
X10953Y-10389D01*
Y-11081D01*
X10953Y-11081D01*
Y-15494D01*
X10628Y-15818D01*
X10527Y-15886D01*
X8648Y-17765D01*
X8376Y-18172D01*
X8280Y-18652D01*
X8376Y-19132D01*
X8648Y-19539D01*
X10805Y-21697D01*
X11212Y-21969D01*
X11692Y-22064D01*
X12172Y-21969D01*
X12579Y-21697D01*
X14458Y-19817D01*
X14730Y-19410D01*
X14826Y-18930D01*
X14730Y-18450D01*
X14458Y-18043D01*
X13404Y-16989D01*
X13656Y-16613D01*
X13763Y-16075D01*
Y-15842D01*
X14225Y-15651D01*
X15538Y-16964D01*
X15945Y-17236D01*
X16425Y-17331D01*
X16905Y-17236D01*
X17312Y-16964D01*
X19191Y-15085D01*
X19463Y-14678D01*
X19558Y-14198D01*
X19477Y-13789D01*
X19555Y-13592D01*
X19778Y-13289D01*
X21019D01*
X21138Y-13265D01*
X21638Y-13656D01*
Y-17528D01*
X21590Y-17596D01*
X21038Y-17668D01*
X19888Y-18144D01*
X18902Y-18902D01*
X18144Y-19888D01*
X17668Y-21038D01*
X17506Y-22271D01*
X17668Y-23504D01*
X18144Y-24654D01*
X18902Y-25641D01*
X19888Y-26398D01*
X21038Y-26874D01*
X21590Y-26947D01*
X21638Y-27014D01*
Y-30376D01*
X21086Y-30928D01*
X20912Y-31189D01*
X20851Y-31496D01*
Y-39370D01*
X20912Y-39677D01*
X21086Y-39938D01*
X21346Y-40112D01*
X21654Y-40173D01*
X35433D01*
X35511Y-40157D01*
X35827D01*
Y-40054D01*
X36001Y-39938D01*
X36175Y-39677D01*
X36236Y-39370D01*
X36236Y-31223D01*
X44063Y-9278D01*
X44083Y-9143D01*
X44110Y-9009D01*
X44110Y3566D01*
X44110Y3566D01*
X44049Y3873D01*
X43875Y4134D01*
X43875Y4134D01*
X41807Y6201D01*
X41590Y6526D01*
X41513Y6604D01*
X41445Y6690D01*
X41384Y7066D01*
X41412Y7261D01*
X41424Y7288D01*
X41656Y7520D01*
X41917Y7911D01*
X42009Y8372D01*
X42009Y8372D01*
Y10973D01*
X41917Y11434D01*
X41694Y11767D01*
X42106Y12179D01*
X40274Y14012D01*
X40312Y14069D01*
X40373Y14376D01*
X40312Y14683D01*
X40138Y14943D01*
X38802Y16280D01*
X39065Y16724D01*
X40413Y16901D01*
X41754Y17456D01*
X42905Y18340D01*
X43789Y19491D01*
X44344Y20832D01*
X44534Y22271D01*
X44344Y23710D01*
X43789Y25051D01*
X42905Y26202D01*
X41754Y27086D01*
X40413Y27641D01*
X38974Y27830D01*
X37535Y27641D01*
X36195Y27086D01*
X35043Y26202D01*
X34160Y25051D01*
X33604Y23710D01*
X33415Y22271D01*
X33454Y21973D01*
X33333Y21835D01*
X32957Y21644D01*
X32717Y21728D01*
X32386Y22225D01*
X31832Y22594D01*
X31218Y22717D01*
X31123Y22866D01*
X30992Y23197D01*
X31040Y23246D01*
X29591Y24695D01*
X29825Y25168D01*
X30623Y25063D01*
X32061Y25253D01*
X33402Y25808D01*
X34554Y26691D01*
X35437Y27843D01*
X35993Y29184D01*
X36182Y30623D01*
X35993Y32061D01*
X35437Y33402D01*
X34554Y34554D01*
X33402Y35437D01*
X32061Y35993D01*
X30623Y36182D01*
X29184Y35993D01*
X27843Y35437D01*
X26691Y34554D01*
X25808Y33402D01*
X25253Y32061D01*
X25075Y30713D01*
X24631Y30450D01*
X23309Y31772D01*
X23048Y31946D01*
X22741Y32008D01*
X22434Y31946D01*
X22173Y31772D01*
X22173Y31772D01*
X20942Y30541D01*
X20399Y30541D01*
X19415Y31525D01*
X19317Y31590D01*
X19226Y31665D01*
X19214Y31697D01*
X19220Y31705D01*
X19311Y32166D01*
X19311Y32166D01*
Y33144D01*
X19311Y33144D01*
X19220Y33605D01*
X19038Y33877D01*
X19408Y34224D01*
X19491Y34160D01*
X20832Y33604D01*
X22271Y33415D01*
X23710Y33604D01*
X25051Y34160D01*
X26202Y35043D01*
X27086Y36195D01*
X27641Y37535D01*
X27830Y38974D01*
X27641Y40413D01*
X27086Y41754D01*
X26202Y42905D01*
X25051Y43789D01*
X23710Y44344D01*
X22271Y44534D01*
X20832Y44344D01*
X19491Y43789D01*
X18340Y42905D01*
X17456Y41754D01*
X16901Y40413D01*
X16724Y39065D01*
X16280Y38801D01*
X9824Y45257D01*
X9563Y45431D01*
X9256Y45492D01*
X8949Y45431D01*
X8689Y45257D01*
X5118Y41686D01*
X3818Y41612D01*
X3692Y41579D01*
X3619Y41570D01*
X3483Y41571D01*
X-7584Y39485D01*
X-7595Y39483D01*
X-7597Y39483D01*
X-8071Y39424D01*
X-8080Y39420D01*
X-8558Y39393D01*
X-9145D01*
X-9642Y39423D01*
X-9646Y39424D01*
X-10145Y39427D01*
X-14119Y39694D01*
X-14610Y39729D01*
D01*
X-15108Y39738D01*
X-18544Y39842D01*
X-19043Y39860D01*
X-19216Y39883D01*
X-19529Y39842D01*
X-20629Y39697D01*
X-21539Y39320D01*
X-21623Y39298D01*
X-27119Y36584D01*
X-27162Y36551D01*
X-27381Y36460D01*
X-27574Y36312D01*
X-27627Y36290D01*
X-31066Y33982D01*
X-31152Y33896D01*
X-31591Y33559D01*
X-31816Y33266D01*
X-31908Y33183D01*
X-42829Y18622D01*
X-43760D01*
X-44159Y18543D01*
X-44498Y18317D01*
X-44724Y17978D01*
X-44804Y17579D01*
Y16384D01*
X-45276Y15968D01*
X-47638D01*
X-48099Y15876D01*
X-48489Y15615D01*
X-48750Y15225D01*
X-48842Y14764D01*
Y12402D01*
X-48750Y11941D01*
X-48489Y11550D01*
X-48425Y11507D01*
Y8965D01*
X-48489Y8922D01*
X-48750Y8532D01*
X-48842Y8071D01*
Y5907D01*
X-48891Y5659D01*
X-48891Y5659D01*
Y4014D01*
X-49081Y3976D01*
X-49419Y3750D01*
X-49645Y3411D01*
X-49725Y3012D01*
Y1122D01*
X-49645Y723D01*
X-49419Y384D01*
X-49081Y158D01*
X-48681Y78D01*
X-46791D01*
X-46767Y40D01*
X-46868Y-404D01*
X-46974Y-564D01*
X-48160Y-1198D01*
X-49270Y-2108D01*
X-50180Y-3217D01*
X-50856Y-4483D01*
X-51273Y-5856D01*
X-51389Y-7043D01*
X-51398Y-7082D01*
X-51587Y-13914D01*
X-51595Y-14207D01*
X-51610Y-14410D01*
X-51598D01*
X-51598Y-20247D01*
X-51600Y-20249D01*
X-51609Y-20249D01*
X-51469Y-21672D01*
X-51050Y-23052D01*
X-50370Y-24324D01*
X-49455Y-25439D01*
X-48340Y-26354D01*
X-47876Y-26602D01*
X-47793Y-26673D01*
X-41380Y-30200D01*
X-41504Y-30685D01*
X-42470D01*
X-42592Y-30709D01*
X-43701D01*
Y-31818D01*
X-43725Y-31939D01*
Y-34990D01*
X-43701Y-35111D01*
Y-38567D01*
X-52347D01*
X-52347Y-0D01*
X-52347Y2057D01*
X-52024Y6157D01*
X-51381Y10220D01*
X-50420Y14220D01*
X-49149Y18132D01*
X-47575Y21932D01*
X-45708Y25597D01*
X-43558Y29105D01*
X-41141Y32432D01*
X-38469Y35560D01*
X-35561Y38469D01*
X-32433Y41141D01*
X-29105Y43558D01*
X-25598Y45708D01*
X-21933Y47575D01*
X-18132Y49149D01*
X-14220Y50420D01*
X-10220Y51381D01*
X-6157Y52024D01*
X-2057Y52347D01*
X-0Y52347D01*
D02*
G37*
%LPC*%
G36*
X-19216Y36129D02*
X-19869Y35999D01*
X-20422Y35629D01*
X-20792Y35076D01*
X-20842Y34824D01*
X-20988Y34384D01*
X-20994Y34380D01*
X-21517Y33599D01*
X-21543Y33465D01*
X-23228D01*
Y33465D01*
X-25984D01*
Y29722D01*
X-26002Y29574D01*
X-26022Y29566D01*
X-26029Y29551D01*
X-27532D01*
X-27534Y29553D01*
X-28087Y29923D01*
X-28740Y30052D01*
X-29393Y29923D01*
X-29946Y29553D01*
X-30316Y28999D01*
X-30446Y28346D01*
X-30316Y27694D01*
X-29946Y27140D01*
X-29393Y26770D01*
X-29310Y26571D01*
X-29529Y26243D01*
X-29659Y25591D01*
X-29529Y24938D01*
X-29159Y24384D01*
X-28606Y24014D01*
X-27953Y23885D01*
X-27300Y24014D01*
X-27167Y24103D01*
X-26763Y23772D01*
X-26874Y23504D01*
X-27036Y22271D01*
X-26874Y21038D01*
X-26398Y19888D01*
X-25641Y18902D01*
X-24654Y18144D01*
X-23504Y17668D01*
X-22271Y17506D01*
X-21038Y17668D01*
X-19888Y18144D01*
X-18902Y18902D01*
X-18144Y19888D01*
X-17668Y21038D01*
X-17506Y22271D01*
X-17668Y23504D01*
X-18144Y24654D01*
X-18902Y25641D01*
X-19888Y26398D01*
X-21038Y26874D01*
X-22271Y27036D01*
X-22278Y27035D01*
X-22552Y27504D01*
X-22107Y28096D01*
X-22048Y28221D01*
X-21791Y28606D01*
X-21764Y28740D01*
X-19575D01*
X-19548Y28606D01*
X-19291Y28221D01*
X-19231Y28096D01*
X-18522Y27151D01*
X-18430Y27068D01*
X-18245Y26827D01*
X-18232Y26807D01*
X-17374Y25899D01*
X-17383Y25857D01*
X-17253Y25204D01*
X-16883Y24651D01*
X-16330Y24281D01*
X-15677Y24151D01*
X-15024Y24281D01*
X-14470Y24651D01*
X-14100Y25204D01*
X-13971Y25857D01*
X-13885Y25943D01*
X-13493Y25865D01*
X-12840Y25995D01*
X-12287Y26364D01*
X-11917Y26918D01*
X-11787Y27571D01*
X-11917Y28223D01*
X-12287Y28777D01*
X-12840Y29147D01*
X-13386Y29255D01*
Y30967D01*
X-13359Y31102D01*
Y33380D01*
X-13188Y33636D01*
X-13058Y34289D01*
X-13188Y34942D01*
X-13557Y35495D01*
X-14111Y35865D01*
X-14764Y35995D01*
X-15417Y35865D01*
X-15970Y35495D01*
X-16340Y34942D01*
X-16470Y34289D01*
X-16405Y33965D01*
X-16755Y33499D01*
X-17255Y33474D01*
X-17383Y33572D01*
X-17601Y33965D01*
X-17510Y34423D01*
X-17640Y35076D01*
X-18010Y35629D01*
X-18563Y35999D01*
X-19216Y36129D01*
D02*
G37*
G36*
X7874Y-20735D02*
X7221Y-20865D01*
X6668Y-21235D01*
X6298Y-21788D01*
X6168Y-22441D01*
X6298Y-23094D01*
X6668Y-23647D01*
X7221Y-24017D01*
X7874Y-24147D01*
X8527Y-24017D01*
X9080Y-23647D01*
X9450Y-23094D01*
X9580Y-22441D01*
X9450Y-21788D01*
X9080Y-21235D01*
X8527Y-20865D01*
X7874Y-20735D01*
D02*
G37*
%LPD*%
D11*
X-20124Y33515D02*
G03*
X-20464Y32818I833J-838D01*
G01*
X-23191Y-18365D02*
G03*
X-22917Y-18336I-0J1299D01*
G01*
X-24834Y27023D02*
G03*
X-23779Y27874I-1150J2504D01*
G01*
X-19081Y38653D02*
G03*
X-21090Y38218I-135J-4230D01*
G01*
X-14470Y38511D02*
G03*
X-14644Y38520I-294J-4222D01*
G01*
X-26586Y35504D02*
G03*
X-26956Y35290I1389J-2827D01*
G01*
X3887Y40410D02*
G03*
X3706Y40388I77J-1376D01*
G01*
X-30395Y32982D02*
G03*
X-30945Y32461I1261J-1880D01*
G01*
X-9725Y38192D02*
G03*
X-9646Y38189I79J1178D01*
G01*
X-8071D02*
G03*
X-7852Y38209I0J1181D01*
G01*
X-50394Y-20247D02*
G03*
X-47212Y-25617I6142J11D01*
G01*
X-37942Y-30926D02*
G03*
X-38410Y-30460I-1034J-570D01*
G01*
X-48819Y-20246D02*
G03*
X-46153Y-24389I4567J10D01*
G01*
X-32430Y-30926D02*
G03*
X-32976Y-30421I-1034J-570D01*
G01*
X-47244Y-20244D02*
G03*
X-45396Y-23001I2992J8D01*
G01*
X-26919Y-30926D02*
G03*
X-27503Y-30404I-1034J-570D01*
G01*
X-45669Y-20236D02*
G03*
X-44765Y-21557I1417J0D01*
G01*
X-21407Y-30926D02*
G03*
X-22018Y-30393I-1034J-570D01*
G01*
X-41081Y-75D02*
G03*
X-41227Y-109I213J-1282D01*
G01*
X-50391Y-14240D02*
G03*
X-50394Y-14409I6139J-170D01*
G01*
X-44135Y-5906D02*
G03*
X-45472Y-7245I40J-1377D01*
G01*
X-41081Y-2044D02*
G03*
X-41131Y-2053I213J-1282D01*
G01*
X-23071Y28819D02*
G03*
X-22843Y29390I-945J709D01*
G01*
X-16527Y29387D02*
G03*
X-15768Y28421I1173J140D01*
G01*
X-26842Y4923D02*
G03*
X-25626Y5737I-67J1416D01*
G01*
X-28132Y4862D02*
G03*
X-29354Y3779I60J-1298D01*
G01*
X-17559Y27874D02*
G03*
X-17357Y27634I2205J1654D01*
G01*
X-18496Y29387D02*
G03*
X-18268Y28819I1173J140D01*
G01*
X-25984Y28346D02*
G03*
X-24811Y29391I0J1181D01*
G01*
X-31474Y-22570D02*
G03*
X-24141Y-26239I7339J5504D01*
G01*
X-21302Y-26241D02*
G03*
X-20713Y-26221I5J8563D01*
G01*
X-35260Y-17281D02*
G03*
X-35018Y-17845I1281J215D01*
G01*
X6058Y-14701D02*
G03*
X6238Y-14223I-1101J689D01*
G01*
X-2677Y-24989D02*
G03*
X1054Y-22744I-325J4763D01*
G01*
X-21301Y-24666D02*
G03*
X-20821Y-24650I4J6988D01*
G01*
X-33291Y-17281D02*
G03*
X-33049Y-17845I1281J215D01*
G01*
X-30215Y-21625D02*
G03*
X-24140Y-24664I6079J4559D01*
G01*
X-2784Y-23418D02*
G03*
X40Y-21217I-218J3191D01*
G01*
X2253Y-14418D02*
G03*
X2301Y-14224I-1234J406D01*
G01*
X-1378Y-17175D02*
G03*
X-1378Y-17155I-1624J0D01*
G01*
X-31323Y-17281D02*
G03*
X-31081Y-17845I1281J215D01*
G01*
X-28954Y-20680D02*
G03*
X-24144Y-23089I4819J3614D01*
G01*
X-21300Y-23091D02*
G03*
X-20928Y-23078I3J5413D01*
G01*
X-2891Y-21847D02*
G03*
X-1378Y-20226I-111J1620D01*
G01*
X-25417Y-17281D02*
G03*
X-24136Y-18365I1281J215D01*
G01*
X-38909Y5674D02*
G03*
X-37762Y4925I1252J665D01*
G01*
X-35689Y3776D02*
G03*
X-36878Y4860I-1282J-212D01*
G01*
X-25689Y15157D02*
G03*
X-26218Y15110I0J-2953D01*
G01*
X-34792Y13561D02*
G03*
X-35739Y12897I245J-1356D01*
G01*
X-11729Y3847D02*
G03*
X-11164Y3605I780J1039D01*
G01*
X-22288Y14525D02*
G03*
X-24114Y15157I-1826J-2321D01*
G01*
X-18485Y11540D02*
G03*
X-18612Y11644I-2490J-2922D01*
G01*
X-11789Y5864D02*
G03*
X-11164Y5573I840J991D01*
G01*
X-23260Y13286D02*
G03*
X-24114Y13583I-854J-1081D01*
G01*
X-25689D02*
G03*
X-26880Y12897I0J-1378D01*
G01*
X-19508Y10343D02*
G03*
X-19581Y10402I-1467J-1724D01*
G01*
X-12808Y4662D02*
G03*
X-12673Y4555I1859J2192D01*
G01*
X-45005Y-2848D02*
G03*
X-48620Y-7158I910J-4435D01*
G01*
X-48817Y-14283D02*
G03*
X-48819Y-14410I4565J-126D01*
G01*
X-47243Y-14327D02*
G03*
X-47244Y-14410I2991J-83D01*
G01*
X-44439Y-4351D02*
G03*
X-47046Y-7202I344J-2933D01*
G01*
X-45669Y-14370D02*
G03*
X-45669Y-14410I1417J-39D01*
G01*
X-45777Y-1418D02*
G03*
X-50195Y-7115I1683J-5866D01*
G01*
X-27694Y-19737D02*
G03*
X-27687Y-19746I3005J2255D01*
G01*
X-27687D02*
G03*
X-24148Y-21515I3551J2680D01*
G01*
X-11162Y-8635D02*
G03*
X-12208Y-9596I213J-1282D01*
G01*
X-14432Y-13413D02*
G03*
X-12866Y-12072I-528J2201D01*
G01*
X-18582Y-14097D02*
G03*
X-17048Y-14043I635J3786D01*
G01*
X-12866Y-12072D02*
G03*
X-12766Y-11771I-2094J860D01*
G01*
X-18911Y-12359D02*
G03*
X-16909Y-12323I964J2048D01*
G01*
X-12603Y-7566D02*
G03*
X-13502Y-8596I1654J-2350D01*
G01*
X-11984Y-7130D02*
G03*
X-11877Y-7039I-454J643D01*
G01*
X-20450Y-15578D02*
G03*
X-21926Y-15503I-847J-2099D01*
G01*
X-21298Y-19941D02*
G03*
X-20448Y-19776I1J2264D01*
G01*
X-21299Y-21516D02*
G03*
X-19887Y-21248I2J3839D01*
G01*
X-29354Y-17281D02*
G03*
X-29112Y-17845I1281J215D01*
G01*
X-27386Y-17281D02*
G03*
X-27144Y-17845I1281J215D01*
G01*
X-26435Y-18790D02*
G03*
X-24137Y-19940I2299J1724D01*
G01*
X-20023Y-1615D02*
G03*
X-19320Y-1252I-215J1281D01*
G01*
X-17019Y-54D02*
G03*
X-18779Y-711I-159J-2258D01*
G01*
X-11025Y-4683D02*
G03*
X-11253Y-4717I76J-1297D01*
G01*
X-11023Y-4683D02*
G03*
X-11025Y-4683I74J-1297D01*
G01*
X-10948Y-4681D02*
G03*
X-11023Y-4683I-1J-1299D01*
G01*
X-10950Y-4681D02*
G03*
X-11023Y-4683I1J-1299D01*
G01*
X-13510Y-2942D02*
G03*
X-14940Y-3682I259J-2249D01*
G01*
X-15256Y-7007D02*
G03*
X-14322Y-6384I-751J2135D01*
G01*
X-19680Y-11995D02*
G03*
X-20026Y-11886I-559J-1173D01*
G01*
X-19874Y-9953D02*
G03*
X-20026Y-9918I-364J-1247D01*
G01*
X-19874Y-9953D02*
G03*
X-20026Y-9918I-364J-1247D01*
G01*
X-10950Y-6649D02*
G03*
X-11868Y-7030I1J-1299D01*
G01*
X-10948Y-6649D02*
G03*
X-10950Y-6649I-1J-1299D01*
G01*
X-18375Y-8071D02*
G03*
X-18045Y-7983I-416J2225D01*
G01*
X-20023Y-3583D02*
G03*
X-19691Y-3480I-215J1281D01*
G01*
X-10948Y-4681D02*
G03*
X-10950Y-4681I-1J-1299D01*
G01*
X-19151Y-8081D02*
G03*
X-18375Y-8071I360J2235D01*
G01*
X-20669Y31102D02*
X-20464Y32818D01*
X-20124Y33515D02*
X-19216Y34423D01*
X-24136Y-18365D02*
X-23191D01*
X-22917Y-18336D02*
X-21233Y-17972D01*
X-28740Y28346D02*
X-25984D01*
X-27953Y25591D02*
X-24834Y27023D01*
X-26586Y35504D02*
X-21090Y38218D01*
X-19081Y38653D02*
X-14644Y38520D01*
X-14470Y38511D02*
X-9725Y38192D01*
X-9646Y38189D02*
X-8071D01*
X-30395Y32982D02*
X-26956Y35290D01*
X-42815Y16634D02*
X-30945Y32461D01*
X3887Y40410D02*
X6609Y40565D01*
X-7852Y38209D02*
X3706Y40388D01*
X-24902Y7283D02*
X-20979Y8619D01*
X20670Y9674D02*
X20769Y9575D01*
Y8467D02*
Y9575D01*
X19979Y7677D02*
X20769Y8467D01*
X19587Y7677D02*
X19979D01*
X22244Y5315D02*
X23819D01*
X18012D02*
X22244D01*
X17421Y4724D02*
X18012Y5315D01*
X17421Y4528D02*
Y4724D01*
X12948Y5359D02*
X16787D01*
X17421Y4724D01*
Y8268D02*
Y8465D01*
X16831Y7677D02*
X17421Y8268D01*
X16634Y7677D02*
X16831D01*
X16284Y7327D02*
X16634Y7677D01*
X9604Y25800D02*
Y27004D01*
X-2209Y12491D02*
Y13986D01*
X9604Y25800D01*
X-4823Y14075D02*
X-4768D01*
X-5359Y9886D02*
Y13484D01*
X-4768Y14075D01*
X-4626D01*
X-8563D02*
X-8366D01*
X-7776Y13484D01*
Y13287D02*
Y13484D01*
Y13287D02*
X-7327Y12839D01*
Y9886D02*
Y12839D01*
X-5807Y15059D02*
X-4823Y14075D01*
X-5807Y15059D02*
Y18504D01*
X-8366Y14075D02*
X-7185Y15256D01*
Y19075D01*
X-492Y25768D01*
X-5807Y18504D02*
X1116Y25427D01*
X-492Y25768D02*
Y27756D01*
X1116Y25427D02*
X2230Y26541D01*
X-492Y27756D02*
Y29331D01*
X-47212Y-25617D02*
X-38410Y-30460D01*
X-50394Y-14410D02*
Y-14409D01*
Y-14410D02*
X-50394Y-20247D01*
Y-20247D02*
Y-20247D01*
X-37942Y-30926D02*
X-35433Y-35433D01*
X-46153Y-24389D02*
X-32976Y-30421D01*
X-48819Y-14410D02*
Y-14410D01*
Y-14410D02*
X-48819Y-20246D01*
Y-20246D02*
Y-20246D01*
X-32430Y-30926D02*
X-29921Y-35433D01*
X-45396Y-23001D02*
X-27503Y-30404D01*
X-47244Y-20244D02*
Y-14410D01*
X-26919Y-30926D02*
X-24409Y-35433D01*
X-44765Y-21557D02*
X-22018Y-30393D01*
X-45669Y-20236D02*
Y-14410D01*
X-21407Y-30926D02*
X-18898Y-35433D01*
X-41081Y-2044D02*
X-39805Y-1830D01*
X-41081Y-75D02*
X-39805Y139D01*
X-45777Y-1418D02*
X-41227Y-109D01*
X-45005Y-2848D02*
X-41131Y-2053D01*
X-23779Y27874D02*
X-23071Y28819D01*
X-22843Y29390D02*
X-22638Y31102D01*
X-15768Y28421D02*
X-13493Y27571D01*
X-17357Y27634D02*
X-15677Y25857D01*
X-25626Y5737D02*
X-24902Y7283D01*
X-28132Y4862D02*
X-26842Y4923D01*
X-29569Y2501D02*
X-29354Y3779D01*
X9079Y12269D02*
X10803D01*
X8421Y9886D02*
X8618Y10083D01*
X10803Y12269D02*
X12421Y13887D01*
X8618Y10083D02*
Y11807D01*
X9079Y12269D01*
X11177Y10674D02*
X11430Y10927D01*
X15381D01*
X10586Y10674D02*
X11177D01*
X10389Y10477D02*
X10586Y10674D01*
X10389Y9886D02*
Y10477D01*
X12948Y7327D02*
X16284D01*
X-43799Y2067D02*
X-37443Y2501D01*
X-47687Y5659D02*
X-46457Y6890D01*
X-47687Y2116D02*
Y5659D01*
X-47736Y2067D02*
X-47687Y2116D01*
X17274Y33977D02*
X18107Y33144D01*
Y32166D02*
Y33144D01*
X13484Y27543D02*
X18107Y32166D01*
X13484Y25782D02*
Y27543D01*
X1137Y13435D02*
X13484Y25782D01*
X1137Y12839D02*
Y13435D01*
X547Y12248D02*
X1137Y12839D01*
X547Y9886D02*
Y12248D01*
X18605Y20926D02*
X20926D01*
X15694Y26038D02*
X15728Y26072D01*
X2515Y12859D02*
X15694Y26038D01*
X15748Y25984D02*
Y26200D01*
X12038Y26285D02*
Y27576D01*
X-831Y13415D02*
X12038Y26285D01*
X-831Y11920D02*
Y13415D01*
X8677Y30937D02*
X12038Y27576D01*
X-18701Y31102D02*
X-18496Y29387D01*
X-18268Y28819D02*
X-17559Y27874D01*
X-16732Y31102D02*
X-16527Y29387D01*
X-24811Y29391D02*
X-24606Y31102D01*
X-20713Y-26221D02*
X-2677Y-24989D01*
X-24141Y-26239D02*
X-21302Y-26241D01*
X-35474Y-16003D02*
X-35260Y-17281D01*
X-35018Y-17845D02*
X-31474Y-22570D01*
X6238Y-14223D02*
X6452Y-12948D01*
X1054Y-22744D02*
X6058Y-14701D01*
X40Y-21217D02*
X2253Y-14418D01*
X-20821Y-24650D02*
X-2784Y-23418D01*
X-24140Y-24664D02*
X-21301Y-24666D01*
X-33506Y-16003D02*
X-33291Y-17281D01*
X-33049Y-17845D02*
X-30215Y-21625D01*
X2301Y-14224D02*
X2515Y-12948D01*
X-1378Y-20226D02*
Y-17175D01*
X-20928Y-23078D02*
X-2891Y-21847D01*
X-31537Y-16003D02*
X-31323Y-17281D01*
X-31081Y-17845D02*
X-28954Y-20680D01*
X-24144Y-23089D02*
X-21300Y-23091D01*
X-1422Y-12948D02*
X-1378Y-17155D01*
X-18528Y-16323D02*
X-18331Y-16434D01*
X-15039Y-19334D02*
X-14568Y-19292D01*
X-19887Y-21248D02*
X-15039Y-19334D01*
X-21301Y-5767D02*
X-18701Y-5815D01*
X-25632Y-16003D02*
X-25417Y-17281D01*
X-36713Y11220D02*
X-35739Y12897D01*
X-25689Y13583D02*
X-24114D01*
X-34792Y13561D02*
X-26218Y15110D01*
X-27854Y11220D02*
X-26880Y12897D01*
X-25689Y15157D02*
X-24114D01*
X-12673Y4555D02*
X-12085Y4114D01*
X-19508Y10343D02*
X-12808Y4662D01*
X-11164Y5573D02*
X-9886Y5359D01*
X-12085Y4114D02*
X-11729Y3847D01*
X-23260Y13286D02*
X-19581Y10402D01*
X-18485Y11540D02*
X-11789Y5864D01*
X-11164Y3605D02*
X-9886Y3390D01*
X-22288Y14525D02*
X-18612Y11644D01*
X-42815Y9547D02*
Y12697D01*
Y9547D02*
X-39764Y7283D01*
X-50391Y-14240D02*
X-50195Y-7115D01*
X-48817Y-14283D02*
X-48620Y-7158D01*
X-47243Y-14327D02*
X-47046Y-7202D01*
X-44439Y-4351D02*
X-39805Y-3798D01*
X-45669Y-14370D02*
X-45472Y-7245D01*
X-44135Y-5906D02*
X-39805Y-5767D01*
X-31537Y2501D02*
X-30807Y7283D01*
X-27854D01*
X-36713D02*
X-33760D01*
X-33506Y2501D01*
X-35689Y3776D02*
X-35474Y2501D01*
X-37762Y4925D02*
X-36878Y4860D01*
X-39764Y7283D02*
X-38909Y5674D01*
X-24148Y-21515D02*
X-24138Y-21515D01*
X-24138Y-21515D02*
X-21299Y-21516D01*
X-29112Y-17845D02*
X-27694Y-19737D01*
X-12766Y-11771D02*
X-12208Y-9596D01*
X-21301Y-13641D02*
X-18582Y-14097D01*
X-17048Y-14043D02*
X-14432Y-13413D01*
X-11162Y-8635D02*
X-9886Y-8421D01*
X-14894Y-11275D02*
X-13502Y-8596D01*
X-16909Y-12323D02*
X-16897Y-12317D01*
X-18921Y-12354D02*
X-18911Y-12359D01*
X-15238Y-11454D02*
X-14960Y-11212D01*
X-16897Y-12317D02*
X-15238Y-11454D01*
X-11877Y-7039D02*
X-11875Y-7037D01*
X-11868Y-7030D01*
X-20450Y-15578D02*
X-18528Y-16323D01*
X-19678Y-11996D02*
X-18921Y-12354D01*
X-17123Y-18431D02*
X-11938Y-13809D01*
X-20448Y-19776D02*
X-17250Y-18483D01*
X-17123Y-18431D01*
X-11876Y-13706D02*
X-9886Y-10389D01*
X-11938Y-13809D02*
X-11876Y-13706D01*
X-23663Y-16003D02*
X-21926Y-15503D01*
X-1422Y9886D02*
X-1225Y10083D01*
Y11526D01*
X-831Y11920D01*
X-3193Y11507D02*
X-2209Y12491D01*
X-3193Y10083D02*
Y11507D01*
X8677Y30937D02*
Y31505D01*
X17274Y33977D02*
Y34464D01*
X17365Y34555D01*
X-3390Y9886D02*
X-3193Y10083D01*
X-24137Y-19940D02*
X-21298Y-19941D01*
X-29569Y-16003D02*
X-29354Y-17281D01*
X-27600Y-16003D02*
X-27386Y-17281D01*
X-27144Y-17845D02*
X-26435Y-18790D01*
X-21301Y-1830D02*
X-20023Y-1615D01*
X-19320Y-1252D02*
X-18779Y-711D01*
X-17019Y-54D02*
X-9886Y-547D01*
X-14322Y-6384D02*
X-13252Y-5190D01*
X-11025Y-4683D02*
X-11023Y-4683D01*
X-13510Y-2942D02*
X-9886Y-2515D01*
X-16007Y-4872D02*
X-14940Y-3682D01*
X-13252Y-5190D02*
X-11253Y-4717D01*
X-18045Y-7983D02*
X-15256Y-7007D01*
X-17444Y-2436D02*
X-17178Y-2312D01*
X-21301Y-11672D02*
X-20121Y-11871D01*
X-20026Y-11886D01*
X-19680Y-11995D02*
X-19678Y-11996D01*
X-19556Y-10044D02*
X-18000Y-10494D01*
X-19874Y-9953D02*
X-18000Y-10494D01*
X-17706Y-10579D01*
X-21301Y-9704D02*
X-20026Y-9918D01*
X-17706Y-10579D02*
X-17668Y-10589D01*
X-12603Y-7566D02*
X-11984Y-7130D01*
X-21301Y-9704D02*
X-20130Y-9900D01*
X-20026Y-9918D01*
X-19874Y-9953D02*
X-19556Y-10044D01*
X-10948Y-6649D02*
X-10083Y-6649D01*
X-18531Y-2941D02*
X-17444Y-2436D01*
X-19691Y-3480D02*
X-18531Y-2941D01*
X-21301Y-3798D02*
X-20023Y-3583D01*
X-10948Y-4681D02*
X-10083Y-4681D01*
X-19627Y-8004D02*
X-19151Y-8081D01*
X-21301Y-7735D02*
X-20078Y-7932D01*
X-19627Y-8004D01*
X15728Y26072D02*
Y26189D01*
X2515Y9886D02*
Y12859D01*
X33144Y712D02*
X40804Y8372D01*
X39740Y12037D02*
Y12179D01*
Y12037D02*
X40804Y10973D01*
Y8372D02*
Y10973D01*
X21020Y15588D02*
X24568Y12040D01*
X21020Y15588D02*
Y15590D01*
X21018D02*
X21020D01*
X28674Y23246D02*
X30713Y21207D01*
X30991D01*
X31179Y21018D01*
X29046Y-1462D02*
X32084D01*
X28159Y-2348D02*
X29046Y-1462D01*
X32084D02*
X33659D01*
X9368Y14548D02*
X9420D01*
X6552Y11732D02*
X9368Y14548D01*
X6552Y9985D02*
Y11732D01*
X6452Y9886D02*
X6552Y9985D01*
X4484Y9886D02*
X4484D01*
Y12836D02*
X15100Y23452D01*
X4484Y9886D02*
Y12836D01*
X13505Y3193D02*
X14573D01*
X15932Y1835D02*
X26472D01*
X14573Y3193D02*
X15932Y1835D01*
X13505Y1225D02*
X14550D01*
X15317Y457D01*
X27043D02*
X28676Y2090D01*
X15317Y457D02*
X27043D01*
X14776Y-970D02*
X27564D01*
X14550Y-744D02*
X14776Y-970D01*
X13145Y-744D02*
X14550D01*
X13115Y-2348D02*
X28159D01*
X12948Y-2515D02*
X13115Y-2348D01*
X27564Y-970D02*
X29247Y712D01*
X12948Y-547D02*
X13145Y-744D01*
X26472Y1835D02*
X28105Y3468D01*
X31028D01*
X28676Y2090D02*
X32574D01*
X29247Y712D02*
X33144D01*
X32574Y2090D02*
X34518Y4035D01*
Y5013D01*
X31993Y7539D02*
X34518Y5013D01*
X31028Y3468D02*
X31597Y4037D01*
X31993Y7539D02*
Y9860D01*
X15100Y23452D02*
X16079D01*
X18605Y20926D01*
X12388Y14615D02*
X13502Y15729D01*
X15248Y11828D02*
X16361Y12941D01*
X18012Y7677D02*
X19587Y7677D01*
D39*
X22271Y-22271D02*
D03*
X-22271Y22271D02*
D03*
D41*
X-25804Y33914D02*
G03*
X-26097Y33721I607J-1237D01*
G01*
X-19136Y36882D02*
G03*
X-20305Y36629I-80J-2459D01*
G01*
X-12598Y35457D02*
G03*
X-14696Y36749I-2166J-1168D01*
G01*
X-27666Y32368D02*
X-26097Y33721D01*
X-29134Y31102D02*
X-27666Y32368D01*
X-25804Y33914D02*
X-20305Y36629D01*
X-25804Y33914D02*
X-25804Y33914D01*
X-19136Y36882D02*
X-14696Y36749D01*
X-14764Y31102D02*
Y34289D01*
X19744Y-5551D02*
X19871D01*
X18676Y-4484D02*
X19744Y-5551D01*
X-12598Y35457D02*
X-10236Y31102D01*
X-43307Y-15354D02*
Y-12205D01*
X-42913Y-11672D02*
X-39805D01*
X-43307Y-12066D02*
X-42913Y-11672D01*
X-43307Y-12205D02*
Y-12066D01*
X12358Y-16075D02*
Y-11081D01*
X11433Y-18671D02*
X11553Y-18791D01*
X12358Y-10389D02*
X12948D01*
X12358Y-11081D02*
X12358Y-11081D01*
X11433Y-17001D02*
X12358Y-16075D01*
X12358Y-11081D02*
Y-10389D01*
X11433Y-18671D02*
Y-17001D01*
X-22064Y4983D02*
X-21850Y5315D01*
X-23663Y2501D02*
X-22064Y4983D01*
X-3390Y-17760D02*
Y-12948D01*
X-4331Y-18701D02*
X-3390Y-17760D01*
X-43307Y-19291D02*
X-40731D01*
X-38033Y-16593D02*
X-37443D01*
X-40731Y-19291D02*
X-38033Y-16593D01*
X-37443D02*
Y-16003D01*
X-13703Y2227D02*
X-12897Y1422D01*
X-9886D01*
X-13900Y2227D02*
X-13703D01*
X17847Y-9131D02*
X18509D01*
X12948Y-6452D02*
X15168D01*
X17847Y-9131D01*
X19690Y-10509D02*
Y-10312D01*
X18509Y-9131D02*
X19690Y-10312D01*
X12948Y-4484D02*
X18676D01*
X12948Y-8421D02*
X14631D01*
X16147Y-9936D01*
Y-13919D02*
Y-9936D01*
Y-13919D02*
X16286Y-14059D01*
D42*
X-25804Y33914D02*
D03*
D43*
X23819Y5315D02*
D03*
X22244D02*
D03*
X2230Y26541D02*
D03*
X1116Y25427D02*
D03*
X-492Y29331D02*
D03*
Y27756D02*
D03*
X13502Y15729D02*
D03*
X12388Y14615D02*
D03*
X16361Y12941D02*
D03*
X15248Y11828D02*
D03*
X32084Y-1462D02*
D03*
X33659D02*
D03*
X19587Y7677D02*
D03*
X18012Y7677D02*
D03*
D44*
X-40945Y-35433D02*
D03*
X-35433D02*
D03*
X-29921D02*
D03*
X-24409D02*
D03*
X-18898D02*
D03*
D45*
X4335Y26669D02*
D03*
X-398Y31402D02*
D03*
X13641Y17817D02*
D03*
X18374Y13084D02*
D03*
X25960Y5498D02*
D03*
X21227Y10231D02*
D03*
D46*
X-4626Y14075D02*
D03*
X-8563D02*
D03*
X-40945Y-19685D02*
D03*
X-37008D02*
D03*
X-21850Y5315D02*
D03*
X-17913D02*
D03*
X-17837Y2227D02*
D03*
X-13900D02*
D03*
D47*
X-41142Y-33465D02*
D03*
X-47835Y-33465D02*
D03*
X-11024Y-18701D02*
D03*
X-4331D02*
D03*
X26383Y-10509D02*
D03*
X19690D02*
D03*
Y-5498D02*
D03*
X26383D02*
D03*
D48*
X-48425Y-35433D02*
D03*
D49*
X-26575Y31102D02*
D03*
X-22638Y31102D02*
D03*
X-24606Y31102D02*
D03*
X-20669Y31102D02*
D03*
X-12795D02*
D03*
X-16732D02*
D03*
X-18701Y31102D02*
D03*
X-14764D02*
D03*
D50*
X-30512Y40945D02*
D03*
X-8858D02*
D03*
D51*
X-30807Y7283D02*
D03*
Y11220D02*
D03*
X-43307Y-8268D02*
D03*
Y-12205D02*
D03*
X-24902Y11220D02*
D03*
Y7283D02*
D03*
X-33760D02*
D03*
Y11220D02*
D03*
X-39764D02*
D03*
Y7283D02*
D03*
X17421Y8465D02*
D03*
Y4528D02*
D03*
D52*
X-46457Y6890D02*
D03*
X-46457Y13583D02*
D03*
D53*
X-43307Y-15354D02*
D03*
Y-19291D02*
D03*
X-42815Y12697D02*
D03*
Y16634D02*
D03*
X-27854Y11220D02*
D03*
Y7283D02*
D03*
X-36713Y11220D02*
D03*
Y7283D02*
D03*
X-42815Y5610D02*
D03*
Y9547D02*
D03*
D54*
X3825Y37781D02*
D03*
X6609Y40565D02*
D03*
X18026Y29022D02*
D03*
X20809Y31806D02*
D03*
X29300Y18165D02*
D03*
X26517Y15381D02*
D03*
D55*
X15451Y36469D02*
D03*
X17260Y34659D02*
D03*
X11832Y40088D02*
D03*
X13641Y38278D02*
D03*
X5985Y30623D02*
D03*
X7795Y28813D02*
D03*
X4176Y32432D02*
D03*
X9604Y27004D02*
D03*
X39740Y12179D02*
D03*
X37931Y13989D02*
D03*
X36121Y15799D02*
D03*
X34312Y17608D02*
D03*
X26656Y9952D02*
D03*
X28465Y8143D02*
D03*
X30275Y6333D02*
D03*
X32084Y4524D02*
D03*
X28674Y23246D02*
D03*
X26864Y25055D02*
D03*
X25055Y26864D02*
D03*
X23246Y28674D02*
D03*
X15590Y21018D02*
D03*
X17399Y19209D02*
D03*
X19209Y17399D02*
D03*
X21018Y15590D02*
D03*
D56*
X12589Y35417D02*
D03*
X35069Y12937D02*
D03*
X24003Y24003D02*
D03*
D57*
X9513Y32340D02*
D03*
X31993Y9860D02*
D03*
X20926Y20926D02*
D03*
D58*
X40945Y-6299D02*
D03*
X48031D02*
D03*
X40551Y-27165D02*
D03*
X33465D02*
D03*
X46063Y-12992D02*
D03*
X38976Y-12992D02*
D03*
X43307Y-20079D02*
D03*
X36220D02*
D03*
D59*
X-23663Y2501D02*
D03*
X-31537D02*
D03*
X-25632Y2501D02*
D03*
X-27600Y2501D02*
D03*
X-29569D02*
D03*
X-33506D02*
D03*
X-35474D02*
D03*
X-37443D02*
D03*
X-23663Y-16003D02*
D03*
X-31537D02*
D03*
X-29569D02*
D03*
X-27600D02*
D03*
X-25632D02*
D03*
X-37443D02*
D03*
X-35474D02*
D03*
X-33506D02*
D03*
X547Y-12948D02*
D03*
X2515D02*
D03*
X-5359D02*
D03*
X-1422D02*
D03*
X-3390D02*
D03*
X6452Y-12948D02*
D03*
X8421D02*
D03*
X4484Y-12948D02*
D03*
X-7327D02*
D03*
X10389Y-12948D02*
D03*
X-1422Y9886D02*
D03*
X547D02*
D03*
X-7327Y9886D02*
D03*
X-3390Y9886D02*
D03*
X-5359D02*
D03*
X8421D02*
D03*
X10389D02*
D03*
X2515D02*
D03*
X6452D02*
D03*
X4484D02*
D03*
D60*
X-39805Y-5767D02*
D03*
X-39805Y-13641D02*
D03*
X-21301D02*
D03*
Y-5767D02*
D03*
X-39805Y-7735D02*
D03*
X-39805Y-9704D02*
D03*
X-39805Y-11672D02*
D03*
X-39805Y139D02*
D03*
Y-1830D02*
D03*
Y-3798D02*
D03*
X-21301Y-11672D02*
D03*
Y-9704D02*
D03*
Y-7735D02*
D03*
Y-3798D02*
D03*
Y-1830D02*
D03*
Y139D02*
D03*
X-9886Y-10389D02*
D03*
Y-8421D02*
D03*
Y-6452D02*
D03*
Y-4484D02*
D03*
Y-2515D02*
D03*
Y-547D02*
D03*
Y1422D02*
D03*
X-9886Y3390D02*
D03*
Y5359D02*
D03*
X-9886Y7327D02*
D03*
X12948Y-10389D02*
D03*
Y-8421D02*
D03*
Y-6452D02*
D03*
Y-4484D02*
D03*
Y-2515D02*
D03*
Y-547D02*
D03*
Y1422D02*
D03*
Y3390D02*
D03*
Y5359D02*
D03*
Y7327D02*
D03*
D61*
X-30553Y-6751D02*
D03*
D62*
X44488Y-35433D02*
D03*
D63*
X29134Y-35433D02*
D03*
D64*
X15381Y10927D02*
D03*
X12597Y13711D02*
D03*
D65*
X16286Y-14059D02*
D03*
X11553Y-18791D02*
D03*
D66*
X31458Y-7238D02*
D03*
X36469Y-2227D02*
D03*
X44751Y6055D02*
D03*
X39740Y1044D02*
D03*
D67*
X-47736Y2067D02*
D03*
X-43799D02*
D03*
D68*
X1531Y-1531D02*
D03*
D69*
X22271Y38974D02*
D03*
X30623Y30623D02*
D03*
X38974Y22271D02*
D03*
D70*
X-14764Y34289D02*
D03*
X-19216Y34423D02*
D03*
X-27953Y25591D02*
D03*
X-23619Y10630D02*
D03*
X-20979Y8619D02*
D03*
X-24985Y-1183D02*
D03*
X-467Y31471D02*
D03*
X2067Y35039D02*
D03*
X8049Y-16036D02*
D03*
X7874Y-22441D02*
D03*
X19871Y-5551D02*
D03*
X-40157Y-36220D02*
D03*
X-41732Y-32677D02*
D03*
X-46063Y-37402D02*
D03*
Y-32677D02*
D03*
X-51181D02*
D03*
Y-37402D02*
D03*
X-15677Y25857D02*
D03*
X-13493Y27571D02*
D03*
X-17895Y5296D02*
D03*
X-29134Y31102D02*
D03*
X-28740Y28346D02*
D03*
X-30807Y11220D02*
D03*
X33465Y-27165D02*
D03*
X36220Y-20079D02*
D03*
X38976Y-12992D02*
D03*
X40945Y-6299D02*
D03*
X36469Y-2227D02*
D03*
X39740Y1044D02*
D03*
X3825Y37781D02*
D03*
X18110Y22835D02*
D03*
X20079Y20866D02*
D03*
X15748Y25984D02*
D03*
X24016Y32677D02*
D03*
X8268D02*
D03*
X11024Y29921D02*
D03*
X29921Y11811D02*
D03*
X45276Y8268D02*
D03*
X45669Y4331D02*
D03*
X48819Y-7874D02*
D03*
X47244Y-4724D02*
D03*
X45276Y-11417D02*
D03*
X46850Y-14567D02*
D03*
X44094Y-21654D02*
D03*
X42520Y-18504D02*
D03*
X39764Y-25591D02*
D03*
X41339Y-28740D02*
D03*
X-9347Y-18422D02*
D03*
X-21297Y-17678D02*
D03*
X-25043Y-6768D02*
D03*
X-18331Y-16434D02*
D03*
X-17947Y-10311D02*
D03*
X-14568Y-19292D02*
D03*
X-22441Y5225D02*
D03*
X-18701Y-5815D02*
D03*
X-30553Y-1183D02*
D03*
X-24985Y-12319D02*
D03*
X-30553D02*
D03*
X-10236Y31102D02*
D03*
X-42815Y5610D02*
D03*
X-43209Y-8169D02*
D03*
X-39764Y11220D02*
D03*
X-33858Y11262D02*
D03*
X-36121Y-6751D02*
D03*
Y-12319D02*
D03*
Y-1183D02*
D03*
X-37008Y-19685D02*
D03*
X-40945D02*
D03*
X-14960Y-11212D02*
D03*
X31597Y-8491D02*
D03*
X46654Y-32677D02*
D03*
X44488Y-35039D02*
D03*
X48819Y-35039D02*
D03*
X46654Y-37402D02*
D03*
X50984Y-32677D02*
D03*
Y-37402D02*
D03*
X9449Y42126D02*
D03*
X15172Y32571D02*
D03*
X-46457Y13583D02*
D03*
X-2088Y-5150D02*
D03*
X5150D02*
D03*
Y2088D02*
D03*
X8491Y-8491D02*
D03*
X-5429Y5429D02*
D03*
X9326Y-1531D02*
D03*
X-6264D02*
D03*
X8213Y5707D02*
D03*
X-5429Y-8491D02*
D03*
X1531Y5150D02*
D03*
Y-8213D02*
D03*
X-2088Y2088D02*
D03*
X1531Y-1531D02*
D03*
X-30553Y-6751D02*
D03*
X-13900Y2227D02*
D03*
X-13252Y-5190D02*
D03*
X-17178Y-2312D02*
D03*
X-16007Y-4872D02*
D03*
X37992Y-37402D02*
D03*
X40157Y-35039D02*
D03*
X37992Y-32677D02*
D03*
X27282Y20601D02*
D03*
X26383Y-5498D02*
D03*
X27421Y15590D02*
D03*
X42323Y-37402D02*
D03*
X26383Y-10509D02*
D03*
X33858Y-37402D02*
D03*
X29134Y-37402D02*
D03*
X24409D02*
D03*
X33858Y-32677D02*
D03*
X29134D02*
D03*
X24409D02*
D03*
X42323D02*
D03*
X30901Y-5568D02*
D03*
X20670Y9674D02*
D03*
X18234Y12945D02*
D03*
X32432Y8212D02*
D03*
X30762Y17121D02*
D03*
X38418Y9326D02*
D03*
X19835Y28048D02*
D03*
X24568Y12040D02*
D03*
X31179Y21018D02*
D03*
X9420Y14548D02*
D03*
M02*
