G04*
G04 #@! TF.GenerationSoftware,Altium Limited,Altium Designer,21.0.8 (223)*
G04*
G04 Layer_Color=16711935*
%FSLAX25Y25*%
%MOIN*%
G70*
G04*
G04 #@! TF.SameCoordinates,DAC18CA6-1256-4E10-BBFD-4CDD4F333C27*
G04*
G04*
G04 #@! TF.FilePolarity,Negative*
G04*
G01*
G75*
%ADD17R,0.08661X0.08661*%
G04:AMPARAMS|DCode=22|XSize=31.5mil|YSize=31.5mil|CornerRadius=6.3mil|HoleSize=0mil|Usage=FLASHONLY|Rotation=0.000|XOffset=0mil|YOffset=0mil|HoleType=Round|Shape=RoundedRectangle|*
%AMROUNDEDRECTD22*
21,1,0.03150,0.01890,0,0,0.0*
21,1,0.01890,0.03150,0,0,0.0*
1,1,0.01260,0.00945,-0.00945*
1,1,0.01260,-0.00945,-0.00945*
1,1,0.01260,-0.00945,0.00945*
1,1,0.01260,0.00945,0.00945*
%
%ADD22ROUNDEDRECTD22*%
%ADD39C,0.07874*%
%ADD40C,0.10249*%
%ADD70R,0.01575X0.01575*%
%ADD74O,0.04134X0.01772*%
%ADD75O,0.01772X0.04134*%
G04:AMPARAMS|DCode=76|XSize=47.24mil|YSize=43.31mil|CornerRadius=8.37mil|HoleSize=0mil|Usage=FLASHONLY|Rotation=0.000|XOffset=0mil|YOffset=0mil|HoleType=Round|Shape=RoundedRectangle|*
%AMROUNDEDRECTD76*
21,1,0.04724,0.02657,0,0,0.0*
21,1,0.03051,0.04331,0,0,0.0*
1,1,0.01673,0.01526,-0.01329*
1,1,0.01673,-0.01526,-0.01329*
1,1,0.01673,-0.01526,0.01329*
1,1,0.01673,0.01526,0.01329*
%
%ADD76ROUNDEDRECTD76*%
G36*
X-342Y3541D02*
X-292Y3531D01*
X-243Y3514D01*
X-196Y3491D01*
X-154Y3463D01*
X-115Y3429D01*
X-81Y3390D01*
X-52Y3347D01*
X-29Y3301D01*
X-13Y3252D01*
X-2Y3201D01*
X1Y3150D01*
Y1575D01*
X-2Y1523D01*
X-13Y1473D01*
X-29Y1424D01*
X-52Y1378D01*
X-81Y1335D01*
X-115Y1296D01*
X-1296Y115D01*
X-1335Y81D01*
X-1378Y52D01*
X-1424Y29D01*
X-1473Y13D01*
X-1523Y2D01*
X-1575Y-1D01*
X-3150D01*
X-3201Y2D01*
X-3252Y13D01*
X-3301Y29D01*
X-3347Y52D01*
X-3390Y81D01*
X-3429Y115D01*
X-3463Y154D01*
X-3491Y196D01*
X-3514Y243D01*
X-3531Y292D01*
X-3541Y342D01*
X-3544Y394D01*
Y3150D01*
X-3541Y3201D01*
X-3531Y3252D01*
X-3514Y3301D01*
X-3491Y3347D01*
X-3463Y3390D01*
X-3429Y3429D01*
X-3390Y3463D01*
X-3347Y3491D01*
X-3301Y3514D01*
X-3252Y3531D01*
X-3201Y3541D01*
X-3150Y3544D01*
X-394D01*
X-342Y3541D01*
D02*
G37*
G36*
X3201Y-2D02*
X3252Y-13D01*
X3301Y-29D01*
X3347Y-52D01*
X3390Y-81D01*
X3429Y-115D01*
X3463Y-154D01*
X3491Y-196D01*
X3514Y-243D01*
X3531Y-292D01*
X3541Y-342D01*
X3544Y-394D01*
Y-3150D01*
X3541Y-3201D01*
X3531Y-3252D01*
X3514Y-3301D01*
X3491Y-3347D01*
X3463Y-3390D01*
X3429Y-3429D01*
X3390Y-3463D01*
X3347Y-3491D01*
X3301Y-3514D01*
X3252Y-3531D01*
X3201Y-3541D01*
X3150Y-3544D01*
X394D01*
X342Y-3541D01*
X292Y-3531D01*
X243Y-3514D01*
X196Y-3491D01*
X154Y-3463D01*
X115Y-3429D01*
X81Y-3390D01*
X52Y-3347D01*
X29Y-3301D01*
X13Y-3252D01*
X2Y-3201D01*
X-1Y-3150D01*
Y-1575D01*
X2Y-1523D01*
X13Y-1473D01*
X29Y-1424D01*
X52Y-1378D01*
X81Y-1335D01*
X115Y-1296D01*
X1296Y-115D01*
X1335Y-81D01*
X1378Y-52D01*
X1424Y-29D01*
X1473Y-13D01*
X1523Y-2D01*
X1575Y1D01*
X3150D01*
X3201Y-2D01*
D02*
G37*
D17*
X48425Y-35433D02*
D03*
X-48425Y-35433D02*
D03*
D22*
X-10827Y3839D02*
D03*
Y-98D02*
D03*
D39*
X22271Y-22271D02*
D03*
X-22271Y22271D02*
D03*
D40*
X22271Y38974D02*
D03*
X30623Y30623D02*
D03*
X38974Y22271D02*
D03*
D70*
X2362Y-2362D02*
D03*
X-2362Y2362D02*
D03*
D74*
X5610Y-2953D02*
D03*
Y-984D02*
D03*
Y2953D02*
D03*
X-5610D02*
D03*
Y984D02*
D03*
Y-2953D02*
D03*
D75*
X2953Y5610D02*
D03*
X-984D02*
D03*
X-2953D02*
D03*
Y-5610D02*
D03*
X984D02*
D03*
X2953D02*
D03*
D76*
X9858Y1808D02*
D03*
Y8501D02*
D03*
M02*
