G04*
G04 #@! TF.GenerationSoftware,Altium Limited,Altium Designer,20.2.5 (213)*
G04*
G04 Layer_Physical_Order=4*
G04 Layer_Color=16711680*
%FSLAX25Y25*%
%MOIN*%
G70*
G04*
G04 #@! TF.SameCoordinates,6A220F91-A522-4A6E-AAF5-B6834703FD54*
G04*
G04*
G04 #@! TF.FilePolarity,Positive*
G04*
G01*
G75*
%ADD11C,0.00787*%
%ADD39C,0.07874*%
%ADD41C,0.01181*%
%ADD48R,0.07874X0.07874*%
%ADD69C,0.09449*%
%ADD70C,0.01772*%
G04:AMPARAMS|DCode=71|XSize=19.68mil|YSize=23.62mil|CornerRadius=1.97mil|HoleSize=0mil|Usage=FLASHONLY|Rotation=200.000|XOffset=0mil|YOffset=0mil|HoleType=Round|Shape=RoundedRectangle|*
%AMROUNDEDRECTD71*
21,1,0.01968,0.01968,0,0,200.0*
21,1,0.01575,0.02362,0,0,200.0*
1,1,0.00394,-0.01077,0.00656*
1,1,0.00394,0.00403,0.01194*
1,1,0.00394,0.01077,-0.00656*
1,1,0.00394,-0.00403,-0.01194*
%
%ADD71ROUNDEDRECTD71*%
G04:AMPARAMS|DCode=72|XSize=17.72mil|YSize=31.5mil|CornerRadius=0mil|HoleSize=0mil|Usage=FLASHONLY|Rotation=290.000|XOffset=0mil|YOffset=0mil|HoleType=Round|Shape=Round|*
%AMOVALD72*
21,1,0.01378,0.01772,0.00000,0.00000,20.0*
1,1,0.01772,-0.00647,-0.00236*
1,1,0.01772,0.00647,0.00236*
%
%ADD72OVALD72*%

G36*
X-0Y52347D02*
X2057D01*
X6157Y52024D01*
X10220Y51381D01*
X14220Y50420D01*
X18132Y49149D01*
X21932Y47575D01*
X22098Y47491D01*
X22026Y46966D01*
X21964Y46954D01*
X21703Y46780D01*
X21703Y46780D01*
X17763Y42840D01*
X11971Y42840D01*
X11971Y42840D01*
X11664Y42778D01*
X11550Y42702D01*
X11144Y42761D01*
X10963Y42871D01*
X10655Y43332D01*
X10102Y43702D01*
X9449Y43832D01*
X8796Y43702D01*
X8242Y43332D01*
X7873Y42779D01*
X7743Y42126D01*
X7873Y41473D01*
X8242Y40920D01*
X8703Y40612D01*
X8864Y40065D01*
X3887Y35088D01*
X3712Y34827D01*
X3651Y34520D01*
X3712Y34213D01*
X3887Y33953D01*
X3887Y33953D01*
X12687Y25152D01*
X12947Y24978D01*
X13331Y24570D01*
X13363Y24429D01*
Y22441D01*
X13363Y22441D01*
X13454Y21980D01*
X13715Y21589D01*
X18038Y17267D01*
X17847Y16805D01*
X15097D01*
X14636Y16713D01*
X14245Y16452D01*
X14245Y16452D01*
X13545Y15753D01*
X10628D01*
X10627Y15755D01*
X10073Y16124D01*
X9420Y16254D01*
X8767Y16124D01*
X8214Y15755D01*
X7844Y15201D01*
X7714Y14548D01*
X7844Y13895D01*
X8214Y13342D01*
X8767Y12972D01*
X9420Y12842D01*
X10073Y12972D01*
X10627Y13342D01*
X10628Y13344D01*
X14044D01*
X14044Y13344D01*
X14505Y13436D01*
X14896Y13697D01*
X14896Y13697D01*
X15595Y14396D01*
X18955D01*
X20559Y12793D01*
X20559Y12793D01*
X20950Y12532D01*
X21410Y12440D01*
X21411Y12440D01*
X22465D01*
X22862Y12043D01*
X22862Y12040D01*
X22992Y11387D01*
X23361Y10834D01*
X23915Y10464D01*
X24568Y10334D01*
X25221Y10464D01*
X25774Y10834D01*
X25995Y11164D01*
X26072Y11206D01*
X26568Y11249D01*
X26600Y11239D01*
X33674Y4165D01*
X33935Y3991D01*
X34242Y3930D01*
X34549Y3991D01*
X34809Y4165D01*
X37816Y7172D01*
X37839Y7205D01*
X37869Y7230D01*
X37925Y7334D01*
X37990Y7432D01*
X38418Y7620D01*
X39070Y7750D01*
X39624Y8120D01*
X39994Y8673D01*
X40124Y9326D01*
X40311Y9753D01*
X40409Y9819D01*
X40513Y9874D01*
X40539Y9905D01*
X40572Y9927D01*
X42326Y11681D01*
X42500Y11942D01*
X42561Y12249D01*
Y17484D01*
X46780Y21703D01*
X46954Y21964D01*
X46966Y22026D01*
X47491Y22098D01*
X47575Y21932D01*
X49149Y18132D01*
X50420Y14220D01*
X51381Y10220D01*
X52024Y6157D01*
X52347Y2057D01*
Y-0D01*
X52347Y-38567D01*
X43307Y-38567D01*
X43000Y-38628D01*
X42739Y-38802D01*
X42565Y-39063D01*
X42504Y-39370D01*
X42504Y-44866D01*
X-42504Y-44866D01*
X-42504Y-39370D01*
X-42565Y-39063D01*
X-42739Y-38802D01*
X-43000Y-38628D01*
X-43307Y-38567D01*
X-52347D01*
X-52347Y-0D01*
X-52347Y2057D01*
X-52024Y6157D01*
X-51381Y10220D01*
X-50420Y14220D01*
X-49149Y18132D01*
X-47575Y21932D01*
X-45708Y25597D01*
X-43558Y29105D01*
X-41141Y32432D01*
X-38469Y35560D01*
X-35561Y38469D01*
X-32433Y41141D01*
X-29105Y43558D01*
X-25598Y45708D01*
X-21933Y47575D01*
X-18132Y49149D01*
X-14220Y50420D01*
X-10220Y51381D01*
X-6157Y52024D01*
X-2057Y52347D01*
X-0Y52347D01*
D02*
G37*
G36*
X29509Y38974D02*
X24740Y34205D01*
X24669Y34253D01*
X24016Y34383D01*
X23363Y34253D01*
X22809Y33884D01*
X22440Y33330D01*
X22400Y33128D01*
X20663D01*
X15095Y27560D01*
X15095D01*
X14542Y27191D01*
X14172Y26637D01*
D01*
X13255Y25720D01*
X4454Y34520D01*
X11971Y42037D01*
X18095Y42037D01*
X22271Y46213D01*
X29509Y38974D01*
D02*
G37*
G36*
X37861Y30623D02*
X28990Y21752D01*
X28493Y21801D01*
X28488Y21807D01*
X27935Y22177D01*
X27282Y22307D01*
X26629Y22177D01*
X26076Y21807D01*
X25706Y21254D01*
X25576Y20601D01*
X25706Y19948D01*
X25947Y19586D01*
X25952Y19573D01*
X25875Y19031D01*
X25834Y18955D01*
X25717Y18877D01*
X25717Y18877D01*
X23067Y16226D01*
X22748D01*
X15868Y23106D01*
X19225Y26463D01*
X19835Y26342D01*
X20488Y26472D01*
X21041Y26841D01*
X21411Y27395D01*
X21541Y28048D01*
X21420Y28658D01*
X23780Y31018D01*
X24016Y30971D01*
X24669Y31101D01*
X25222Y31471D01*
X25592Y32024D01*
X25722Y32677D01*
X25675Y32913D01*
X30623Y37861D01*
X37861Y30623D01*
D02*
G37*
G36*
X46213Y22271D02*
X41758Y17817D01*
Y12249D01*
X40004Y10495D01*
X39624Y10532D01*
X39070Y10902D01*
X38418Y11032D01*
X37765Y10902D01*
X37211Y10532D01*
X36841Y9979D01*
X36712Y9326D01*
X36841Y8673D01*
X37211Y8120D01*
X37249Y7740D01*
X34242Y4733D01*
X27004Y11971D01*
X30500Y15467D01*
X30762Y15415D01*
X31415Y15545D01*
X31968Y15915D01*
X32338Y16468D01*
X32468Y17121D01*
X32416Y17383D01*
X32850Y17817D01*
Y20839D01*
X32886Y21018D01*
X32850Y21198D01*
Y23385D01*
X38974Y29509D01*
X46213Y22271D01*
D02*
G37*
%LPC*%
G36*
X-14764Y35995D02*
X-15417Y35865D01*
X-15970Y35495D01*
X-16340Y34942D01*
X-16470Y34289D01*
X-16340Y33636D01*
X-15970Y33083D01*
X-15417Y32713D01*
X-14764Y32583D01*
X-14111Y32713D01*
X-13557Y33083D01*
X-13188Y33636D01*
X-13058Y34289D01*
X-13188Y34942D01*
X-13557Y35495D01*
X-14111Y35865D01*
X-14764Y35995D01*
D02*
G37*
G36*
X-19216Y36129D02*
X-19869Y35999D01*
X-20422Y35629D01*
X-20792Y35076D01*
X-20922Y34423D01*
X-20792Y33770D01*
X-20422Y33217D01*
X-20239Y33094D01*
X-19277Y26513D01*
X-19708Y26260D01*
X-19888Y26398D01*
X-21038Y26874D01*
X-22271Y27036D01*
X-23504Y26874D01*
X-24654Y26398D01*
X-25641Y25641D01*
X-25757Y25488D01*
X-26062Y25552D01*
X-26260Y25655D01*
X-26377Y26243D01*
X-26746Y26797D01*
X-27075Y27016D01*
X-27213Y27620D01*
X-27164Y27694D01*
X-27034Y28346D01*
X-27164Y28999D01*
X-27534Y29553D01*
X-28087Y29923D01*
X-28740Y30052D01*
X-29393Y29923D01*
X-29946Y29553D01*
X-30316Y28999D01*
X-30446Y28346D01*
X-30401Y28117D01*
X-30750Y27640D01*
X-30794Y27547D01*
X-30962Y27328D01*
X-31309Y26490D01*
X-31427Y25591D01*
X-31388Y25292D01*
X-31397Y25182D01*
X-29755Y11349D01*
X-29757Y11347D01*
X-29779Y11344D01*
X-29775Y11323D01*
X-29755Y11325D01*
X-29752Y11322D01*
X-28435Y-1536D01*
X-28397Y-1661D01*
X-28342Y-2083D01*
X-27994Y-2921D01*
X-27442Y-3640D01*
X-27131Y-3879D01*
X-27045Y-3974D01*
X-24417Y-5913D01*
X-24416Y-5917D01*
X-24430Y-5936D01*
X-24297Y-6024D01*
X-24282Y-6047D01*
X-24167Y-6262D01*
X-24046Y-6516D01*
X-24044Y-6526D01*
X-23992Y-6759D01*
X-23940Y-7021D01*
X-22645Y-16684D01*
X-22873Y-17025D01*
X-23003Y-17678D01*
X-22873Y-18330D01*
X-22503Y-18884D01*
X-21950Y-19254D01*
X-21297Y-19384D01*
X-20644Y-19254D01*
X-20090Y-18884D01*
X-19721Y-18330D01*
X-19684Y-18144D01*
X-19128Y-17914D01*
X-18984Y-18010D01*
X-18331Y-18140D01*
X-17679Y-18010D01*
X-17125Y-17640D01*
X-16755Y-17087D01*
X-16625Y-16434D01*
X-16755Y-15781D01*
X-17125Y-15228D01*
X-17551Y-14943D01*
X-18390Y-12369D01*
X-18058Y-11995D01*
X-17947Y-12017D01*
X-17294Y-11887D01*
X-17071Y-11738D01*
X-16536Y-11864D01*
X-16166Y-12418D01*
X-15613Y-12788D01*
X-14960Y-12918D01*
X-14307Y-12788D01*
X-13754Y-12418D01*
X-13447Y-11958D01*
X-11049Y-10915D01*
X-10622Y-11275D01*
X-10640Y-11348D01*
X-10538Y-12006D01*
X-10507Y-12058D01*
X-14910Y-17654D01*
X-15221Y-17716D01*
X-15774Y-18086D01*
X-16144Y-18639D01*
X-16274Y-19292D01*
X-16144Y-19945D01*
X-15774Y-20499D01*
X-15221Y-20868D01*
X-14568Y-20998D01*
X-13915Y-20868D01*
X-13361Y-20499D01*
X-12991Y-19945D01*
X-12862Y-19292D01*
X-12917Y-19016D01*
X-8143Y-12949D01*
X-7057Y-12554D01*
X-6488Y-12209D01*
X-6094Y-11672D01*
X-5936Y-11025D01*
X-6037Y-10367D01*
X-6383Y-9798D01*
X-6615Y-9628D01*
X-6970Y-9267D01*
X-6812Y-8620D01*
X-6913Y-7963D01*
X-7258Y-7394D01*
X-7490Y-7224D01*
X-7845Y-6862D01*
X-7687Y-6216D01*
X-7788Y-5558D01*
X-8133Y-4989D01*
X-8365Y-4819D01*
X-8720Y-4458D01*
X-8562Y-3811D01*
X-8663Y-3153D01*
X-9008Y-2584D01*
X-9545Y-2190D01*
X-10192Y-2032D01*
X-10850Y-2134D01*
X-12145Y-2605D01*
X-12714Y-2950D01*
X-13107Y-3487D01*
X-13114Y-3512D01*
X-13252Y-3484D01*
X-13905Y-3614D01*
X-14157Y-3783D01*
X-14801Y-3666D01*
X-14801Y-3666D01*
X-15262Y-3357D01*
X-15383Y-3217D01*
X-15558Y-2745D01*
X-15472Y-2312D01*
X-15602Y-1659D01*
X-15761Y-1422D01*
X-15341Y577D01*
X-14783Y805D01*
X-14552Y651D01*
X-13900Y521D01*
X-13247Y651D01*
X-12693Y1021D01*
X-12324Y1574D01*
X-12194Y2227D01*
X-12324Y2880D01*
X-12693Y3433D01*
X-13247Y3803D01*
X-13900Y3933D01*
X-14136Y3886D01*
X-14558Y4312D01*
X-14501Y4582D01*
X-14500Y4691D01*
X-14488Y4783D01*
X-14449Y4903D01*
X-11908Y26963D01*
X-11787Y27571D01*
X-11917Y28223D01*
X-12287Y28777D01*
X-12840Y29147D01*
X-13493Y29277D01*
X-14146Y29147D01*
X-14699Y28777D01*
X-15069Y28223D01*
X-15199Y27571D01*
X-15285Y27485D01*
X-15677Y27563D01*
X-16330Y27433D01*
X-16460Y27346D01*
X-17000Y27586D01*
X-17856Y33446D01*
X-17640Y33770D01*
X-17510Y34423D01*
X-17640Y35076D01*
X-18010Y35629D01*
X-18563Y35999D01*
X-19216Y36129D01*
D02*
G37*
G36*
X-46457Y15289D02*
X-47109Y15159D01*
X-47663Y14789D01*
X-48033Y14235D01*
X-48163Y13583D01*
X-48033Y12930D01*
X-47663Y12376D01*
X-47109Y12007D01*
X-46457Y11877D01*
X-45804Y12007D01*
X-45250Y12376D01*
X-44881Y12930D01*
X-44751Y13583D01*
X-44881Y14235D01*
X-45250Y14789D01*
X-45804Y15159D01*
X-46457Y15289D01*
D02*
G37*
G36*
X15155Y6622D02*
X14768Y6562D01*
X13288Y6024D01*
X12953Y5820D01*
X12303Y5739D01*
X12282Y5754D01*
X11636Y5912D01*
X10978Y5811D01*
X9683Y5340D01*
X9114Y4994D01*
X8720Y4458D01*
X8562Y3811D01*
X8663Y3153D01*
X9008Y2584D01*
X9240Y2414D01*
X9595Y2053D01*
X9437Y1406D01*
X9539Y748D01*
X9884Y179D01*
X10421Y-214D01*
X11067Y-372D01*
X11725Y-271D01*
X13020Y200D01*
X13589Y545D01*
X13983Y1082D01*
X14141Y1729D01*
X14136Y1761D01*
X14796Y2341D01*
X15420Y2569D01*
X16522Y2077D01*
X16525Y2072D01*
X16517Y2054D01*
X16596Y1970D01*
X16788Y1508D01*
X17283Y149D01*
X17269Y120D01*
D01*
X17263Y5D01*
X17283Y-5D01*
X7013Y-21004D01*
X6668Y-21235D01*
X6298Y-21788D01*
X6168Y-22441D01*
X6298Y-23094D01*
X6668Y-23647D01*
X7221Y-24017D01*
X7874Y-24147D01*
X8527Y-24017D01*
X9080Y-23647D01*
X9450Y-23094D01*
X9580Y-22441D01*
X9539Y-22234D01*
X17690Y-5569D01*
X18191Y-5683D01*
X18294Y-6204D01*
X18664Y-6758D01*
X19218Y-7128D01*
X19871Y-7258D01*
X20523Y-7128D01*
X21077Y-6758D01*
X21447Y-6204D01*
X21576Y-5551D01*
X21447Y-4899D01*
X21077Y-4345D01*
X20523Y-3975D01*
X19871Y-3845D01*
X19218Y-3975D01*
X18933Y-4166D01*
X18543Y-3825D01*
X19807Y-1240D01*
X19848Y-1086D01*
X20008Y-701D01*
X20109Y70D01*
X20008Y840D01*
X19946Y988D01*
X19931Y1089D01*
X19258Y2939D01*
X19175Y3074D01*
X19037Y3409D01*
X18563Y4025D01*
X17947Y4499D01*
X17763Y4575D01*
X17667Y4643D01*
X16315Y5246D01*
X16054Y5962D01*
X15851Y6297D01*
X15535Y6529D01*
X15155Y6622D01*
D02*
G37*
G36*
X39740Y2750D02*
X39087Y2620D01*
X38534Y2250D01*
X38164Y1697D01*
X38034Y1044D01*
X38164Y391D01*
X38534Y-162D01*
X39087Y-532D01*
X39740Y-662D01*
X40393Y-532D01*
X40946Y-162D01*
X41316Y391D01*
X41446Y1044D01*
X41316Y1697D01*
X40946Y2250D01*
X40393Y2620D01*
X39740Y2750D01*
D02*
G37*
G36*
X36469Y-521D02*
X35816Y-651D01*
X35263Y-1021D01*
X34893Y-1574D01*
X34763Y-2227D01*
X34893Y-2880D01*
X35263Y-3433D01*
X35816Y-3803D01*
X36469Y-3933D01*
X37122Y-3803D01*
X37675Y-3433D01*
X38045Y-2880D01*
X38175Y-2227D01*
X38045Y-1574D01*
X37675Y-1021D01*
X37122Y-651D01*
X36469Y-521D01*
D02*
G37*
G36*
X40945Y-4593D02*
X40292Y-4723D01*
X39739Y-5093D01*
X39369Y-5646D01*
X39239Y-6299D01*
X39369Y-6952D01*
X39739Y-7506D01*
X40292Y-7875D01*
X40945Y-8005D01*
X41598Y-7875D01*
X42151Y-7506D01*
X42521Y-6952D01*
X42651Y-6299D01*
X42521Y-5646D01*
X42151Y-5093D01*
X41598Y-4723D01*
X40945Y-4593D01*
D02*
G37*
G36*
X26383Y-8803D02*
X25730Y-8933D01*
X25177Y-9303D01*
X24807Y-9856D01*
X24677Y-10509D01*
X24807Y-11162D01*
X25177Y-11715D01*
X25730Y-12085D01*
X26383Y-12215D01*
X27036Y-12085D01*
X27589Y-11715D01*
X27959Y-11162D01*
X28089Y-10509D01*
X27959Y-9856D01*
X27589Y-9303D01*
X27036Y-8933D01*
X26383Y-8803D01*
D02*
G37*
G36*
X38976Y-11286D02*
X38324Y-11416D01*
X37770Y-11786D01*
X37400Y-12339D01*
X37270Y-12992D01*
X37400Y-13645D01*
X37770Y-14198D01*
X38324Y-14568D01*
X38976Y-14698D01*
X39629Y-14568D01*
X40183Y-14198D01*
X40552Y-13645D01*
X40682Y-12992D01*
X40552Y-12339D01*
X40183Y-11786D01*
X39629Y-11416D01*
X38976Y-11286D01*
D02*
G37*
G36*
X-40945Y-17979D02*
X-41598Y-18109D01*
X-42151Y-18479D01*
X-42521Y-19032D01*
X-42651Y-19685D01*
X-42521Y-20338D01*
X-42151Y-20891D01*
X-41598Y-21261D01*
X-40945Y-21391D01*
X-40292Y-21261D01*
X-39739Y-20891D01*
X-39369Y-20338D01*
X-39239Y-19685D01*
X-39369Y-19032D01*
X-39739Y-18479D01*
X-40292Y-18109D01*
X-40945Y-17979D01*
D02*
G37*
G36*
X36220Y-18373D02*
X35568Y-18503D01*
X35014Y-18872D01*
X34644Y-19426D01*
X34514Y-20079D01*
X34644Y-20732D01*
X35014Y-21285D01*
X35568Y-21655D01*
X36220Y-21785D01*
X36873Y-21655D01*
X37427Y-21285D01*
X37797Y-20732D01*
X37927Y-20079D01*
X37797Y-19426D01*
X37427Y-18872D01*
X36873Y-18503D01*
X36220Y-18373D01*
D02*
G37*
G36*
X22271Y-17506D02*
X21038Y-17668D01*
X19888Y-18144D01*
X18902Y-18902D01*
X18144Y-19888D01*
X17668Y-21038D01*
X17506Y-22271D01*
X17668Y-23504D01*
X18144Y-24654D01*
X18902Y-25641D01*
X19888Y-26398D01*
X21038Y-26874D01*
X22271Y-27036D01*
X23504Y-26874D01*
X24654Y-26398D01*
X25641Y-25641D01*
X26398Y-24654D01*
X26874Y-23504D01*
X27036Y-22271D01*
X26874Y-21038D01*
X26398Y-19888D01*
X25641Y-18902D01*
X24654Y-18144D01*
X23504Y-17668D01*
X22271Y-17506D01*
D02*
G37*
G36*
X33465Y-25459D02*
X32812Y-25589D01*
X32258Y-25959D01*
X31888Y-26513D01*
X31759Y-27165D01*
X31888Y-27818D01*
X32258Y-28372D01*
X32812Y-28741D01*
X33465Y-28871D01*
X34117Y-28741D01*
X34671Y-28372D01*
X35041Y-27818D01*
X35171Y-27165D01*
X35041Y-26513D01*
X34671Y-25959D01*
X34117Y-25589D01*
X33465Y-25459D01*
D02*
G37*
G36*
X33858Y-30971D02*
X33205Y-31101D01*
X32652Y-31471D01*
X32282Y-32024D01*
X32152Y-32677D01*
X32282Y-33330D01*
X32652Y-33884D01*
X33205Y-34253D01*
X33858Y-34383D01*
X34511Y-34253D01*
X35065Y-33884D01*
X35434Y-33330D01*
X35564Y-32677D01*
X35434Y-32024D01*
X35065Y-31471D01*
X34511Y-31101D01*
X33858Y-30971D01*
D02*
G37*
G36*
X29134D02*
X28481Y-31101D01*
X27928Y-31471D01*
X27558Y-32024D01*
X27428Y-32677D01*
X27558Y-33330D01*
X27928Y-33884D01*
X28481Y-34253D01*
X29134Y-34383D01*
X29787Y-34253D01*
X30340Y-33884D01*
X30710Y-33330D01*
X30840Y-32677D01*
X30710Y-32024D01*
X30340Y-31471D01*
X29787Y-31101D01*
X29134Y-30971D01*
D02*
G37*
G36*
X24409D02*
X23757Y-31101D01*
X23203Y-31471D01*
X22833Y-32024D01*
X22704Y-32677D01*
X22833Y-33330D01*
X23203Y-33884D01*
X23757Y-34253D01*
X24409Y-34383D01*
X25062Y-34253D01*
X25616Y-33884D01*
X25986Y-33330D01*
X26116Y-32677D01*
X25986Y-32024D01*
X25616Y-31471D01*
X25062Y-31101D01*
X24409Y-30971D01*
D02*
G37*
G36*
X-41732D02*
X-42385Y-31101D01*
X-42939Y-31471D01*
X-43308Y-32024D01*
X-43438Y-32677D01*
X-43308Y-33330D01*
X-42939Y-33884D01*
X-42385Y-34253D01*
X-41732Y-34383D01*
X-41079Y-34253D01*
X-40867Y-34682D01*
X-41364Y-35014D01*
X-41734Y-35568D01*
X-41864Y-36220D01*
X-41734Y-36873D01*
X-41364Y-37427D01*
X-40810Y-37797D01*
X-40157Y-37927D01*
X-39505Y-37797D01*
X-38951Y-37427D01*
X-38581Y-36873D01*
X-38451Y-36220D01*
X-38581Y-35568D01*
X-38951Y-35014D01*
X-39505Y-34644D01*
X-40157Y-34514D01*
X-40810Y-34644D01*
X-41023Y-34216D01*
X-40526Y-33884D01*
X-40156Y-33330D01*
X-40026Y-32677D01*
X-40156Y-32024D01*
X-40526Y-31471D01*
X-41079Y-31101D01*
X-41732Y-30971D01*
D02*
G37*
G36*
X33858Y-35696D02*
X33205Y-35825D01*
X32652Y-36195D01*
X32282Y-36749D01*
X32152Y-37402D01*
X32282Y-38054D01*
X32652Y-38608D01*
X33205Y-38978D01*
X33858Y-39108D01*
X34511Y-38978D01*
X35065Y-38608D01*
X35434Y-38054D01*
X35564Y-37402D01*
X35434Y-36749D01*
X35065Y-36195D01*
X34511Y-35825D01*
X33858Y-35696D01*
D02*
G37*
G36*
X29134Y-35696D02*
X28481Y-35825D01*
X27928Y-36195D01*
X27558Y-36749D01*
X27428Y-37402D01*
X27558Y-38054D01*
X27928Y-38608D01*
X28481Y-38978D01*
X29134Y-39108D01*
X29787Y-38978D01*
X30340Y-38608D01*
X30710Y-38054D01*
X30840Y-37402D01*
X30710Y-36749D01*
X30340Y-36195D01*
X29787Y-35825D01*
X29134Y-35696D01*
D02*
G37*
G36*
X24409D02*
X23757Y-35825D01*
X23203Y-36195D01*
X22833Y-36749D01*
X22704Y-37402D01*
X22833Y-38054D01*
X23203Y-38608D01*
X23757Y-38978D01*
X24409Y-39108D01*
X25062Y-38978D01*
X25616Y-38608D01*
X25986Y-38054D01*
X26116Y-37402D01*
X25986Y-36749D01*
X25616Y-36195D01*
X25062Y-35825D01*
X24409Y-35696D01*
D02*
G37*
%LPD*%
G36*
X-24654Y18144D02*
X-23504Y17668D01*
X-22271Y17506D01*
X-21038Y17668D01*
X-19940Y18123D01*
X-19624Y17963D01*
X-19493Y17872D01*
X-21802Y10082D01*
X-22186Y9826D01*
X-22556Y9272D01*
X-22685Y8619D01*
X-22556Y7967D01*
X-22186Y7413D01*
X-22137Y7380D01*
X-22332Y6909D01*
X-22441Y6931D01*
X-23094Y6801D01*
X-23324Y6648D01*
X-23885Y6874D01*
X-24550Y9927D01*
X-24629Y10410D01*
X-24644Y10490D01*
X-24735Y10972D01*
X-25746Y18352D01*
X-25279Y18624D01*
X-24654Y18144D01*
D02*
G37*
%LPC*%
G36*
X15172Y34277D02*
X14519Y34148D01*
X13966Y33778D01*
X13596Y33224D01*
X13466Y32571D01*
X13596Y31919D01*
X13966Y31365D01*
X14519Y30995D01*
X15172Y30865D01*
X15825Y30995D01*
X16378Y31365D01*
X16748Y31919D01*
X16878Y32571D01*
X16748Y33224D01*
X16378Y33778D01*
X15825Y34148D01*
X15172Y34277D01*
D02*
G37*
%LPD*%
D11*
X-22867Y-6144D02*
G03*
X-22873Y-6123I-761J-201D01*
G01*
X-27237Y-1414D02*
G03*
X-26330Y-3005I2252J231D01*
G01*
X-22837Y-6261D02*
G03*
X-22867Y-6144I-2206J-507D01*
G01*
X-22799Y-6470D02*
G03*
X-22834Y-6271I-2240J-296D01*
G01*
X-22873Y-6123D02*
G03*
X-23702Y-4944I-2166J-643D01*
G01*
X-29779Y26928D02*
G03*
X-30201Y25324I1826J-1338D01*
G01*
X-28554Y11445D02*
G03*
X-28559Y11490I-2253J-225D01*
G01*
X-22805Y-573D02*
G03*
X-22851Y-428I-2180J-610D01*
G01*
X-20151Y-10827D02*
G03*
X-20099Y-11013I2204J516D01*
G01*
X-21304Y-5898D02*
G03*
X-21351Y-5717I-3739J-870D01*
G01*
X-24653Y4743D02*
G03*
X-24576Y4474I2212J482D01*
G01*
X-25862Y10323D02*
G03*
X-25831Y10148I2243J307D01*
G01*
X-17917Y25530D02*
G03*
X-17829Y25154I2240J327D01*
G01*
X-17364Y20817D02*
G03*
X-17408Y23865I-4907J1455D01*
G01*
X-19521Y6871D02*
G03*
X-20148Y5084I1626J-1575D01*
G01*
X-15763Y20711D02*
G03*
X-15581Y22465I-6509J1560D01*
G01*
X-19432Y-2524D02*
G03*
X-19385Y-2816I2254J212D01*
G01*
X-19352Y7046D02*
G03*
X-18777Y8095I-1627J1574D01*
G01*
X-15680Y4830D02*
G03*
X-15645Y5041I-2215J467D01*
G01*
X-19216Y34423D02*
X-17917Y25530D01*
X-24576Y4474D02*
X-22851Y-428D01*
X-22805Y-573D02*
X-21351Y-5717D01*
X-26330Y-3005D02*
X-23702Y-4944D01*
X-22799Y-6470D02*
X-22798Y-6477D01*
X-22867Y-6144D02*
X-22867Y-6144D01*
X-22798Y-6477D02*
X-21297Y-17678D01*
X-22837Y-6261D02*
X-22834Y-6271D01*
X-30201Y25324D02*
X-28559Y11490D01*
X-29779Y26928D02*
X-28740Y28346D01*
X-28554Y11445D02*
X-27237Y-1414D01*
X-21304Y-5898D02*
X-20151Y-10827D01*
X-20099Y-11013D02*
X-18331Y-16434D01*
X-27953Y25591D02*
X-25862Y10323D01*
X-25831Y10148D02*
X-24653Y4743D01*
X-20979Y8619D02*
X-17364Y20817D01*
X-17829Y25154D02*
X-17408Y23865D01*
X-19521Y6871D02*
X-19352Y7046D01*
X-19385Y-2816D02*
X-18701Y-5815D01*
X-20148Y5084D02*
X-19432Y-2524D01*
X-15677Y25857D02*
X-15581Y22465D01*
X-18777Y8095D02*
X-15763Y20711D01*
X-15645Y5041D02*
X-13099Y27143D01*
X21986Y15022D02*
X23565D01*
X14567Y22441D02*
Y24537D01*
Y22441D02*
X21986Y15022D01*
X14044Y14548D02*
X15097Y15600D01*
X19454D02*
X21410Y13644D01*
X22964D01*
X24568Y12040D01*
X15097Y15600D02*
X19454D01*
X15748Y25718D02*
Y25984D01*
X14567Y24537D02*
X15748Y25718D01*
X-17178Y-2312D02*
X-15680Y4830D01*
X-14568Y-19292D02*
X-14418Y-18977D01*
X-8288Y-11186D01*
X-14960Y-11212D02*
X-14601Y-11147D01*
X-11991Y-7211D02*
X-10039Y-6377D01*
X-14601Y-11147D02*
X-9163Y-8782D01*
X-16007Y-8929D02*
Y-4872D01*
X-17668Y-10589D02*
X-16007Y-8929D01*
X-11991Y-7211D01*
X-13252Y-5190D02*
X-10914Y-3972D01*
X26569Y18025D02*
X28021D01*
X23565Y15022D02*
X26569Y18025D01*
X9420Y14548D02*
X14044D01*
X28021Y18025D02*
X31014Y21018D01*
X31179D01*
D39*
X22271Y-22271D02*
D03*
X-22271Y22271D02*
D03*
D41*
X17937Y2458D02*
G03*
X17095Y3360I-1480J-539D01*
G01*
X18545Y-622D02*
G03*
X18611Y608I-1415J692D01*
G01*
X13311Y3484D02*
G03*
X13687Y3469I236J1157D01*
G01*
X14708Y4425D02*
X17095Y3360D01*
X13983Y3504D02*
X14708Y4425D01*
X7874Y-22441D02*
X18545Y-622D01*
X13687Y3469D02*
X13983Y3504D01*
X10914Y3972D02*
X13311Y3484D01*
X11789Y1568D02*
X13987Y3501D01*
X17937Y2458D02*
X18611Y608D01*
X12664Y-837D02*
X16054Y725D01*
D48*
X48425Y-35433D02*
D03*
X-48425Y-35433D02*
D03*
D69*
X22271Y38974D02*
D03*
X30623Y30623D02*
D03*
X38974Y22271D02*
D03*
D70*
X-14764Y34289D02*
D03*
X-19216Y34423D02*
D03*
X-27953Y25591D02*
D03*
X-23619Y10630D02*
D03*
X-20979Y8619D02*
D03*
X-24985Y-1183D02*
D03*
X-467Y31471D02*
D03*
X2067Y35039D02*
D03*
X8049Y-16036D02*
D03*
X7874Y-22441D02*
D03*
X19871Y-5551D02*
D03*
X-40157Y-36220D02*
D03*
X-41732Y-32677D02*
D03*
X-46063Y-37402D02*
D03*
Y-32677D02*
D03*
X-51181D02*
D03*
Y-37402D02*
D03*
X-15677Y25857D02*
D03*
X-13493Y27571D02*
D03*
X-17895Y5296D02*
D03*
X-29134Y31102D02*
D03*
X-28740Y28346D02*
D03*
X-30807Y11220D02*
D03*
X33465Y-27165D02*
D03*
X36220Y-20079D02*
D03*
X38976Y-12992D02*
D03*
X40945Y-6299D02*
D03*
X36469Y-2227D02*
D03*
X39740Y1044D02*
D03*
X3825Y37781D02*
D03*
X18110Y22835D02*
D03*
X20079Y20866D02*
D03*
X15748Y25984D02*
D03*
X24016Y32677D02*
D03*
X8268D02*
D03*
X11024Y29921D02*
D03*
X29921Y11811D02*
D03*
X45276Y8268D02*
D03*
X45669Y4331D02*
D03*
X48819Y-7874D02*
D03*
X47244Y-4724D02*
D03*
X45276Y-11417D02*
D03*
X46850Y-14567D02*
D03*
X44094Y-21654D02*
D03*
X42520Y-18504D02*
D03*
X39764Y-25591D02*
D03*
X41339Y-28740D02*
D03*
X-9347Y-18422D02*
D03*
X-21297Y-17678D02*
D03*
X-25043Y-6768D02*
D03*
X-18331Y-16434D02*
D03*
X-17947Y-10311D02*
D03*
X-14568Y-19292D02*
D03*
X-22441Y5225D02*
D03*
X-18701Y-5815D02*
D03*
X-30553Y-1183D02*
D03*
X-24985Y-12319D02*
D03*
X-30553D02*
D03*
X-10236Y31102D02*
D03*
X-42815Y5610D02*
D03*
X-43209Y-8169D02*
D03*
X-39764Y11220D02*
D03*
X-33858Y11262D02*
D03*
X-36121Y-6751D02*
D03*
Y-12319D02*
D03*
Y-1183D02*
D03*
X-37008Y-19685D02*
D03*
X-40945D02*
D03*
X-14960Y-11212D02*
D03*
X31597Y-8491D02*
D03*
X46654Y-32677D02*
D03*
X44488Y-35039D02*
D03*
X48819Y-35039D02*
D03*
X46654Y-37402D02*
D03*
X50984Y-32677D02*
D03*
Y-37402D02*
D03*
X9449Y42126D02*
D03*
X15172Y32571D02*
D03*
X-46457Y13583D02*
D03*
X-2088Y-5150D02*
D03*
X5150D02*
D03*
Y2088D02*
D03*
X8491Y-8491D02*
D03*
X-5429Y5429D02*
D03*
X9326Y-1531D02*
D03*
X-6264D02*
D03*
X8213Y5707D02*
D03*
X-5429Y-8491D02*
D03*
X1531Y5150D02*
D03*
Y-8213D02*
D03*
X-2088Y2088D02*
D03*
X1531Y-1531D02*
D03*
X-30553Y-6751D02*
D03*
X-13900Y2227D02*
D03*
X-13252Y-5190D02*
D03*
X-17178Y-2312D02*
D03*
X-16007Y-4872D02*
D03*
X37992Y-37402D02*
D03*
X40157Y-35039D02*
D03*
X37992Y-32677D02*
D03*
X27282Y20601D02*
D03*
X26383Y-5498D02*
D03*
X27421Y15590D02*
D03*
X42323Y-37402D02*
D03*
X26383Y-10509D02*
D03*
X33858Y-37402D02*
D03*
X29134Y-37402D02*
D03*
X24409D02*
D03*
X33858Y-32677D02*
D03*
X29134D02*
D03*
X24409D02*
D03*
X42323D02*
D03*
X30901Y-5568D02*
D03*
X20670Y9674D02*
D03*
X18234Y12945D02*
D03*
X32432Y8212D02*
D03*
X30762Y17121D02*
D03*
X38418Y9326D02*
D03*
X19835Y28048D02*
D03*
X24568Y12040D02*
D03*
X31179Y21018D02*
D03*
X9420Y14548D02*
D03*
D71*
X16054Y725D02*
D03*
X14708Y4425D02*
D03*
D72*
X10914Y3972D02*
D03*
X11789Y1568D02*
D03*
X12664Y-837D02*
D03*
X-11789Y-1568D02*
D03*
X-10914Y-3972D02*
D03*
X-10039Y-6377D02*
D03*
X-9163Y-8782D02*
D03*
X-8288Y-11186D02*
D03*
M02*
