M48
;Layer_Color=9474304
;FILE_FORMAT=2:5
INCH,LZ
;TYPE=PLATED
T1F00S00C0.00787
T2F00S00C0.07087
;TYPE=NON_PLATED
T3F00S00C0.07874
%
T01
X-0040157Y-0036417
X-0037008Y-0019685
X-0036121Y-0012319
X-0030553
Y-0006751
X-0025043Y-0006768
X-0024985Y-0012319
X-0018694Y-0010076
X-0019046Y-0005926
X-0016303Y-0004872
X-0017484Y-0002369
X-0012121Y-0004609
X-0014205Y-0008861
X-0006073Y-0009683
X0001575Y-0008957
X0002153Y-0002153
X-0002165Y0002165
X-000561Y0004823
X-0013892Y0002613
X-0017899Y00053
X-0022441Y0005225
X-0020979Y0008619
X-0023619Y001063
X-0030807Y001122
X-0033858Y0011262
X-0039764Y001122
X-0036121Y-0001183
X-0030553
X-0024985Y-0001183
X-0036121Y-0006751
X-0021297Y-0017678
X-0018331Y-0016434
X-0014764Y-0019292
X-0009347Y-0018422
X0000492Y-0016535
X0004429Y-0015157
X0008657Y-0015295
X0008491Y-0008491
X0019871Y-0005551
X0026383Y-0005498
X0030901Y-0005568
X0031597Y-0008491
X0026383Y-0010509
X0038976Y-0012992
X0045276Y-0011417
X004685Y-0014567
X004252Y-0018504
X0044094Y-0021654
X0039764Y-0025591
X0041339Y-002874
X0042323Y-0032677
X0046654
X0050984
X0048819Y-0035039
X0044488Y-0035039
X0040157Y-0035039
X0042323Y-0037402
X0046654Y-0037402
X0050984Y-0037402
X0037992Y-0037402
X0033858Y-0037402
Y-0032677
X0037992
X0029134
Y-0037402
X0024409
Y-0032677
X0033465Y-0027165
X003622Y-0020079
X0036469Y-0002227
X003974Y0001044
X0040945Y-0006299
X0047244Y-0004724
X0048819Y-0007874
X0045669Y0004331
X0045276Y0008268
X0038418Y0009326
X0032432Y0008212
X0029921Y0011811
X0024568Y001204
X002067Y0009674
X0018234Y0012945
X0020079Y0020866
X001811Y0022835
X0015748Y0025984
X0019835Y0028048
X0024016Y0032677
X0015172Y0032571
X0011024Y0029921
X0008268Y0032677
X0002067Y0035039
X0003825Y0037781
X0009449Y0042126
X-0000467Y0031471
X-0010236Y0031102
X-0013493Y0027571
X-0015677Y0025857
X-0014764Y0034289
X-0019216Y0034423
X-0029134Y0031102
X-002874Y0028346
X-0027953Y0025591
X000942Y0014548
X0008661Y0006299
X0027421Y001559
X0030762Y0017121
X0031179Y0021018
X0027282Y0020601
X0007874Y-0022441
X-0040945Y-0019685
X-0041732Y-0032677
X-0046063
Y-0037402
X-0051181Y-0037402
Y-0032677
X-0043209Y-0008169
X-0042815Y000561
X-0046457Y0013583
T02
X0022271Y0038974
X0030623Y0030623
X0038974Y0022271
T03
X0022271Y-0022271
X-0022271Y0022271
M30
